<svg width="57" height="64" viewBox="0 0 57 64" fill="none" xmlns="http://www.w3.org/2000/svg">
<path d="M55.6932 44.3453C53.3917 48.9477 49.949 52.8836 45.6932 55.776L45.2654 56.0612C42.2839 58.0135 38.9639 59.3925 35.4764 60.1266H35.4754C35.3422 60.155 35.2082 60.1813 35.074 60.2076L34.8338 54.3639C35.0167 54.3352 35.2002 54.3081 35.3826 54.276C38.3455 53.7578 41.2152 52.8034 43.8973 51.442L43.8992 51.441C47.8604 49.4132 51.0842 46.5788 53.2459 43.2262L55.6932 44.3453Z" stroke="white"/>
<path d="M30.001 28.8542L31.3301 60.9099L28.2002 63.364L24.8662 60.7517L24.7471 60.658L24.5967 60.6472L23.6963 60.5632C19.2055 60.0761 14.8894 58.5322 11.1035 56.0525C6.65122 53.1351 3.05381 49.0917 0.674805 44.3367L3.10742 43.2263C5.26937 46.5791 8.49606 49.4134 12.4541 51.4412L12.4561 51.4421C15.1333 52.8005 17.9972 53.7541 20.9541 54.2732V54.2742C22.2218 54.4981 23.502 54.6483 24.7871 54.7234L25.2949 54.7527L25.3164 54.2449L26.3672 28.8542H30.001Z" stroke="white"/>
<path d="M53.7929 22.3959C53.0248 23.0966 52.1527 23.6779 51.204 24.1146C49.9031 24.7135 48.4896 25.029 47.0576 25.0414H45.7861C45.9994 24.8365 46.2074 24.626 46.4072 24.4076C46.9172 23.8605 47.3811 23.2722 47.7929 22.6478C47.8552 22.5609 47.9111 22.4772 47.9638 22.3959H53.7929Z" stroke="white"/>
<path d="M20.0033 6.10706H20.4926C22.7669 6.22024 24.9173 7.15271 26.5521 8.72229L25.0756 10.1129C23.6343 9.28919 22.0144 8.82301 20.3519 8.75647L20.3412 8.75549H20.0131C16.19 8.75549 13.7972 11.8755 13.7972 15.5729L13.807 15.9362C13.8265 16.297 13.8756 16.6559 13.9525 17.0094V17.0104C14.0674 17.5617 14.2496 18.0955 14.4926 18.6012H10.7318C10.6117 18.2685 10.5101 17.9293 10.4301 17.5846C10.2897 16.9273 10.2192 16.2567 10.2191 15.5846L10.2318 15.0992C10.503 10.1157 14.9193 6.1073 20.0033 6.10706Z" stroke="white"/>
<path d="M28.1683 0.5C30.7022 0.511432 33.14 1.47281 34.9993 3.19434V3.19531C35.8278 3.96074 36.5102 4.87068 37.012 5.88086L37.1331 6.12402L37.4026 6.15527C38.6593 6.29925 39.8751 6.68169 40.9857 7.28027L41.4554 7.5498L41.5921 7.63477V7.63574L41.6282 7.65918L41.6351 7.66406L41.6419 7.66797C42.9898 8.50505 44.1057 9.66829 44.886 11.0498C45.6176 12.3449 46.0325 13.7932 46.0989 15.2764L46.1077 15.5732C46.1074 15.9532 46.0837 16.3327 46.0384 16.71V16.7109C46.0043 16.9946 45.9561 17.28 45.8958 17.5674C44.9684 21.8885 40.7799 25.0508 36.3255 25.0508H9.28156C7.84984 25.0388 6.43656 24.7229 5.13605 24.124C4.18792 23.6874 3.31662 23.1059 2.54913 22.4053H35.8987C37.0785 22.4046 38.2363 22.0871 39.2523 21.4873C40.2681 20.8875 41.1047 20.0268 41.6751 18.9941L41.7376 18.8809V18.8506C42.0455 18.2727 42.2722 17.655 42.4095 17.0146C42.4464 16.8454 42.4745 16.6757 42.4964 16.5059L42.4974 16.5068C42.5399 16.1978 42.5612 15.8862 42.5618 15.5742V15.5732C42.5618 12.6935 41.1129 10.1646 38.639 9.1709L37.9525 8.89551V9.97852C37.9488 10.8114 37.8124 11.6385 37.5491 12.4287C37.0817 13.7868 36.3515 15.0375 35.4036 16.1123L33.9036 14.6973C34.2322 13.9065 34.4682 13.0802 34.6068 12.2344L34.6077 12.2354C34.8624 10.7761 34.7763 9.27714 34.3568 7.85645L34.3548 7.85059L34.3528 7.84375L34.263 7.58691C33.7934 6.3154 32.9682 5.20344 31.8831 4.38477C30.7277 3.51298 29.3333 3.01562 27.887 2.95996H27.888C26.9439 2.90841 25.9992 3.02539 25.096 3.30176C24.4795 3.0464 23.8451 2.83675 23.1966 2.67871H23.1976C22.9167 2.60931 22.6335 2.5509 22.3489 2.5C24.0041 1.21003 26.0496 0.498676 28.1683 0.5Z" stroke="white"/>
</svg>
