<svg width="57" height="64" viewBox="0 0 57 64" fill="none" xmlns="http://www.w3.org/2000/svg">
<path d="M53.0596 42.5914C50.9539 46.0206 47.7082 48.9295 43.6714 50.996C41.0334 52.3351 38.211 53.2749 35.2969 53.7845C34.972 53.8417 34.6441 53.8928 34.3162 53.9409L34.599 60.8054C34.9269 60.7482 35.2547 60.6851 35.5796 60.6159C39.128 59.8689 42.5058 58.4662 45.5394 56.4798C50.2108 53.4202 53.9558 49.1405 56.3685 44.1045L53.0596 42.5914Z" fill="white"/>
<path d="M30.4508 28.3542H25.8876L24.8167 54.2238C23.5508 54.1498 22.2903 54.0022 21.0415 53.7816C18.1328 53.271 15.3157 52.3323 12.6821 50.9961C8.64824 48.9295 5.39951 46.0207 3.29385 42.5915L0 44.0956C2.41374 49.1309 6.1585 53.4103 10.8291 56.4708C14.9378 59.1621 19.6607 60.7702 24.558 61.1454L28.2008 64L31.8406 61.1454L30.4809 28.3573L30.4508 28.3542Z" fill="white"/>
<path d="M44.4535 25.5417H44.4384H47.0615C48.5644 25.5288 50.0475 25.1971 51.4128 24.5687C52.7781 23.9402 53.9946 23.0292 54.9817 21.8959H47.6871C47.5939 22.0493 47.5006 22.1967 47.3863 22.3561C46.9863 22.9647 46.5355 23.5383 46.0387 24.0707C45.5514 24.6036 45.0212 25.0955 44.4535 25.5417Z" fill="white"/>
<path d="M10.3869 19.1013H15.3442C14.9104 18.4324 14.6044 17.6889 14.4418 16.9084C14.3459 16.4697 14.2975 16.0219 14.2974 15.5728C14.2974 12.0835 16.5294 9.25586 20.0128 9.25586H20.3316C22.037 9.32407 23.6955 9.83404 25.1446 10.7358L27.2683 8.73546C25.5052 6.8535 23.0789 5.73152 20.5031 5.60706C20.3346 5.60706 20.1662 5.60706 20.0038 5.60706C14.499 5.60706 9.71912 10.0831 9.71912 15.5849C9.71919 16.2926 9.7938 16.9984 9.94171 17.6905C10.053 18.1717 10.2019 18.6434 10.3869 19.1013Z" fill="white"/>
<path d="M9.27696 25.5507H36.3257C40.9972 25.5507 45.404 22.2418 46.3847 17.6725C46.4478 17.3717 46.499 17.0709 46.5351 16.7701C46.5831 16.3708 46.6072 15.969 46.6073 15.5668C46.585 13.8964 46.1427 12.2584 45.3211 10.8038C44.4994 9.34921 43.3249 8.12482 41.9056 7.24347L41.8695 7.21941L41.7161 7.12315C40.4208 6.33098 38.9682 5.83104 37.4597 5.65821C36.9308 4.59355 36.2122 3.63431 35.339 2.8276C33.3878 1.02099 30.8299 0.0120004 28.1707 3.51932e-06C25.5615 -0.00218841 23.0557 1.0196 21.192 2.84565C21.8277 2.90472 22.4582 3.01131 23.078 3.16451C23.7604 3.33079 24.4275 3.55418 25.0724 3.8323C25.9703 3.53423 26.9162 3.40769 27.8609 3.4593C29.2076 3.50972 30.5064 3.97193 31.5822 4.78361C32.658 5.59529 33.459 6.71737 33.8771 7.9985C34.2748 9.34547 34.3562 10.7661 34.1147 12.1497C33.964 13.0718 33.6919 13.97 33.3055 14.8208L35.4292 16.8242C36.5922 15.6197 37.4773 14.175 38.0222 12.5918C38.3033 11.7499 38.4485 10.8685 38.4524 9.98083C38.4524 9.86652 38.4524 9.7492 38.4524 9.6349C40.6994 10.5373 42.0621 12.8535 42.0621 15.5729C42.0615 15.8627 42.0414 16.1521 42.0019 16.4392C41.9818 16.5956 41.9548 16.752 41.9207 16.9084C41.7902 17.5177 41.5734 18.1052 41.277 18.6531L41.2378 18.7283V18.7524C40.7106 19.7069 39.9373 20.5028 38.9983 21.0572C38.0593 21.6116 36.9889 21.9043 35.8985 21.9049H1.35968C2.34604 23.0384 3.56188 23.9496 4.92675 24.5781C6.29161 25.2066 7.77439 25.5381 9.27696 25.5507Z" fill="white"/>
</svg>
