<svg width="269" height="269" viewBox="0 0 269 269" fill="none" xmlns="http://www.w3.org/2000/svg">
<g clip-path="url(#clip0_993_154796)">
<path d="M0 134.5C0 139.163 0.358667 144.812 1.076 151.447C1.25533 152.344 1.52433 153.689 1.883 155.482C2.60033 160.145 3.497 164.628 4.573 168.932C4.75233 169.291 4.842 169.739 4.842 170.277C4.842 170.815 5.02133 171.174 5.38 171.353C8.42867 182.472 12.912 192.963 18.83 202.826C30.4867 222.732 46.3577 238.603 66.443 250.439C76.127 256.178 86.5283 260.661 97.647 263.889C98.0057 263.889 98.454 263.979 98.992 264.158C99.53 264.337 99.8887 264.427 100.068 264.427C104.013 265.503 108.586 266.489 113.787 267.386C114.146 267.565 114.773 267.655 115.67 267.655C116.567 267.655 117.284 267.745 117.822 267.924C123.202 268.641 128.761 269 134.5 269C140.239 269 145.888 268.641 151.447 267.924C151.806 267.924 152.433 267.834 153.33 267.655C154.227 267.476 154.854 267.386 155.213 267.386C160.414 266.489 164.987 265.503 168.932 264.427C169.111 264.427 169.47 264.337 170.008 264.158C170.546 263.979 170.994 263.889 171.353 263.889C182.292 260.84 192.694 256.357 202.557 250.439C222.642 238.603 238.513 222.732 250.17 202.826C256.088 192.963 260.661 182.472 263.889 171.353C263.889 171.174 263.979 170.815 264.158 170.277C264.337 169.739 264.427 169.291 264.427 168.932C265.503 164.987 266.489 160.503 267.386 155.482C267.386 154.944 267.476 154.227 267.655 153.33C267.834 152.433 267.924 151.806 267.924 151.447C268.641 145.888 269 140.239 269 134.5C269 128.761 268.641 123.202 267.924 117.822C267.924 117.284 267.834 116.656 267.655 115.939C267.476 115.222 267.386 114.504 267.386 113.787C266.489 108.586 265.503 104.013 264.427 100.068C264.248 99.8887 264.158 99.53 264.158 98.992C264.158 98.454 264.068 98.0953 263.889 97.916C260.661 86.9767 256.088 76.4857 250.17 66.443C238.513 46.537 222.642 30.666 202.557 18.83C192.694 12.912 182.292 8.42867 171.353 5.38C170.994 5.20067 170.546 5.111 170.008 5.111C169.47 5.111 169.111 4.93167 168.932 4.573C164.987 3.67633 160.414 2.77967 155.213 1.883C154.854 1.70367 154.227 1.52433 153.33 1.345C152.433 1.16567 151.806 1.16567 151.447 1.345C145.888 0.448333 140.239 0 134.5 0C128.761 0 123.202 0.448333 117.822 1.345C117.284 1.345 116.567 1.345 115.67 1.345C114.773 1.345 114.146 1.52433 113.787 1.883C108.586 2.77967 104.013 3.67633 100.068 4.573C99.8887 4.75233 99.53 4.93167 98.992 5.111C98.454 5.29033 98.0057 5.38 97.647 5.38C86.5283 8.42867 76.127 12.912 66.443 18.83C46.3577 30.666 30.4867 46.537 18.83 66.443C12.912 76.4857 8.42867 86.9767 5.38 97.916C5.20067 98.0953 5.02133 98.454 4.842 98.992C4.66267 99.53 4.573 99.8887 4.573 100.068C3.497 104.551 2.60033 109.124 1.883 113.787C1.52433 115.58 1.25533 116.925 1.076 117.822C0.358667 124.457 0 130.017 0 134.5ZM16.947 134.5C16.947 115.311 21.789 96.84 31.473 79.086L56.49 104.103C52.5447 114.325 50.572 124.457 50.572 134.5C50.572 144.543 52.5447 154.765 56.49 165.166L31.473 190.183C21.789 172.429 16.947 153.868 16.947 134.5ZM67.25 134.5C67.25 131.093 67.6087 127.685 68.326 124.278C68.5053 122.664 68.9537 120.333 69.671 117.284C72.7197 105.627 78.548 95.5847 87.156 87.156C95.764 78.7273 105.807 72.9887 117.284 69.94C118.898 69.402 121.14 68.864 124.009 68.326C127.775 67.6087 131.272 67.25 134.5 67.25C137.907 67.25 141.404 67.6087 144.991 68.326C147.86 68.864 150.102 69.402 151.716 69.94C163.373 72.9887 173.415 78.7273 181.844 87.156C190.273 95.5847 196.101 105.627 199.329 117.284C199.688 118.898 200.136 121.14 200.674 124.009C201.391 127.775 201.75 131.272 201.75 134.5C201.75 137.728 201.391 141.225 200.674 144.991C200.136 148.04 199.688 150.281 199.329 151.716C196.28 163.373 190.452 173.505 181.844 182.113C173.236 190.721 163.193 196.46 151.716 199.329C148.667 200.046 146.426 200.495 144.991 200.674C141.404 201.391 137.907 201.75 134.5 201.75C131.272 201.75 127.775 201.391 124.009 200.674C122.574 200.495 120.333 200.046 117.284 199.329C105.627 196.28 95.5847 190.542 87.156 182.113C78.7273 173.684 72.899 163.552 69.671 151.716C68.9537 148.847 68.5053 146.605 68.326 144.991C67.6087 141.225 67.25 137.728 67.25 134.5ZM79.086 237.796L103.834 212.779C114.056 216.724 124.278 218.697 134.5 218.697C144.901 218.697 155.123 216.635 165.166 212.51L190.183 237.796C172.25 247.48 153.689 252.322 134.5 252.322C115.311 252.322 96.84 247.48 79.086 237.796ZM79.086 31.473C96.84 21.789 115.311 16.947 134.5 16.947C153.689 16.947 172.25 21.789 190.183 31.473L165.166 56.49C154.944 52.5447 144.722 50.572 134.5 50.572C124.278 50.572 114.056 52.5447 103.834 56.49L79.086 31.473ZM212.779 165.166C216.724 154.944 218.697 144.722 218.697 134.5C218.697 124.278 216.724 114.146 212.779 104.103L237.527 79.086C247.39 96.84 252.322 115.311 252.322 134.5C252.322 153.689 247.39 172.25 237.527 190.183L212.779 165.166Z" fill="#FF0000"/>
</g>
<defs>
<clipPath id="clip0_993_154796">
<rect width="269" height="269" fill="white"/>
</clipPath>
</defs>
</svg>
