<svg width="269" height="269" viewBox="0 0 269 269" fill="none" xmlns="http://www.w3.org/2000/svg">
<path d="M189.281 22.6906C175.3 8.68524 155.861 -0.00840016 134.5 6.09077e-06C113.14 -0.00840016 93.7005 8.68524 79.7199 22.6906C65.7229 36.6791 57.0214 56.1101 57.0293 77.471C57.0209 95.671 63.3424 112.491 73.8828 125.7C76.9857 129.608 79.6705 132.85 81.813 135.633C83.4223 137.719 84.7274 139.541 85.7619 141.199C87.3133 143.695 88.2575 145.755 88.9552 148.226C89.6366 150.706 90.0554 153.727 90.0632 157.995C90.0632 160.869 90.3832 163.668 91.1881 166.418C91.7876 168.47 92.6823 170.506 93.9464 172.378C95.81 175.202 98.5767 177.575 101.614 178.979C104.643 180.399 107.804 180.916 110.751 180.916H158.258C160.876 180.916 163.659 180.506 166.385 179.414C168.421 178.601 170.408 177.387 172.099 175.827C174.66 173.495 176.458 170.499 177.5 167.445C178.551 164.375 178.945 161.231 178.945 157.997C178.945 154.204 179.282 151.388 179.832 149.081C180.686 145.633 181.934 143.072 184.372 139.484C186.793 135.93 190.455 131.563 195.134 125.701C205.667 112.492 211.98 95.6637 211.971 77.472C211.979 56.1101 203.277 36.6791 189.281 22.6906ZM177.861 111.941C174.881 115.668 172.197 118.927 169.709 122.137C167.854 124.551 166.106 126.948 164.505 129.509C162.116 133.334 160.08 137.587 158.766 142.348C157.453 147.11 156.862 152.257 156.862 157.995C156.862 158.307 156.854 158.586 156.837 158.832H112.179C112.163 158.586 112.146 158.315 112.146 157.995C112.146 152.889 111.686 148.259 110.644 143.941C109.117 137.447 106.235 131.898 102.853 126.997C99.4467 122.055 95.5961 117.54 91.155 111.941C83.6025 102.46 79.1204 90.54 79.112 77.471C79.1204 62.1443 85.2937 48.369 95.3418 38.3047C105.398 28.2644 119.166 22.0827 134.5 22.0827C149.835 22.0827 163.61 28.2644 173.667 38.3041C183.706 48.3685 189.88 62.1437 189.888 77.4704C189.88 90.5479 185.397 102.467 177.861 111.941Z" fill="#FF0000"/>
<path d="M134.5 269C143.645 269 151.066 261.587 151.066 252.434H117.934C117.934 261.587 125.355 269 134.5 269Z" fill="#FF0000"/>
<path d="M162.896 194.066H106.113C101.171 194.066 97.1729 198.064 97.1729 202.998C97.1729 207.94 101.171 211.938 106.113 211.938H162.896C167.83 211.938 171.836 207.94 171.836 202.998C171.836 198.064 167.83 194.066 162.896 194.066Z" fill="#FF0000"/>
<path d="M162.896 222.922H106.113C101.171 222.922 97.1729 226.92 97.1729 231.862C97.1729 236.796 101.171 240.794 106.113 240.794H162.896C167.83 240.794 171.836 236.796 171.836 231.862C171.836 226.92 167.83 222.922 162.896 222.922Z" fill="#FF0000"/>
</svg>
