<svg width="269" height="269" viewBox="0 0 269 269" fill="none" xmlns="http://www.w3.org/2000/svg">
<path d="M120.739 71.3672L113.904 60.8594C66.6191 92.6434 40.3496 131.262 40.3496 163.046C40.3496 193.779 62.9456 208.229 82.1203 208.229C106.288 208.229 123.361 187.735 123.361 166.198C123.361 148.074 111.803 132.573 96.3016 126.79C91.8379 125.209 87.6348 123.898 87.6348 116.282C87.6348 106.564 94.7296 92.1222 120.739 71.3672ZM225.027 71.3672L218.192 60.8594C171.428 92.6434 144.638 131.262 144.638 163.046C144.638 193.779 167.755 208.229 186.929 208.229C211.358 208.229 228.7 187.735 228.7 166.198C228.7 148.074 216.881 132.573 200.85 126.79C196.386 125.209 192.444 123.898 192.444 116.282C192.444 106.564 199.799 92.1138 225.018 71.3588L225.027 71.3672Z" fill="#FF0000"/>
</svg>
