<svg width="707" height="707" viewBox="0 0 707 707" fill="none" xmlns="http://www.w3.org/2000/svg">
<path d="M353.5 58.918C492.367 58.918 561.803 58.918 604.942 102.059C648.084 145.199 648.084 214.633 648.084 353.501C648.084 492.368 648.084 561.804 604.942 604.943C561.803 648.085 492.367 648.085 353.5 648.085C214.632 648.085 145.198 648.085 102.058 604.943C58.917 561.804 58.917 492.368 58.917 353.501C58.917 214.633 58.917 145.199 102.058 102.059C145.198 58.918 214.632 58.918 353.5 58.918Z" stroke="#FF0000" stroke-width="50"/>
<path d="M633.354 500.793H73.6455" stroke="#FF0000" stroke-width="50" stroke-linecap="round"/>
<path d="M633.354 206.207H73.6455" stroke="#FF0000" stroke-width="50" stroke-linecap="round"/>
<path d="M353.5 58.918V206.21M353.5 648.085V500.793" stroke="#FF0000" stroke-width="50" stroke-linecap="round"/>
<path d="M500.792 73.6445V206.207M500.792 633.353V500.79" stroke="#FF0000" stroke-width="50" stroke-linecap="round"/>
<path d="M206.208 73.6445V206.207M206.208 633.353V500.79" stroke="#FF0000" stroke-width="50" stroke-linecap="round"/>
<path d="M412.416 353.501C412.416 337.953 396.815 327.466 365.613 306.495C333.984 285.238 318.167 274.609 306.375 282.413C294.583 290.217 294.583 311.311 294.583 353.501C294.583 395.692 294.583 416.787 306.375 424.59C318.167 432.394 333.984 421.765 365.613 400.508C396.815 379.537 412.416 369.049 412.416 353.501Z" stroke="#FF0000" stroke-width="50" stroke-linecap="round"/>
</svg>
