<svg width="40" height="40" viewBox="0 0 40 40" fill="none" xmlns="http://www.w3.org/2000/svg">
<mask id="path-1-outside-1_1163_167800" maskUnits="userSpaceOnUse" x="1" y="1" width="38" height="38" fill="black">
<rect fill="white" x="1" y="1" width="38" height="38"/>
<path d="M20 4C28.8366 4 36 11.1634 36 20C36 28.8366 28.8366 36 20 36C11.1634 36 4 28.8366 4 20C4 11.1634 11.1634 4 20 4ZM20 9.33301C14.109 9.33301 9.33301 14.109 9.33301 20C9.33301 25.891 14.109 30.667 20 30.667C25.891 30.667 30.667 25.891 30.667 20C30.667 14.109 25.891 9.33301 20 9.33301Z"/>
</mask>
<path d="M20 4C28.8366 4 36 11.1634 36 20C36 28.8366 28.8366 36 20 36C11.1634 36 4 28.8366 4 20C4 11.1634 11.1634 4 20 4ZM20 9.33301C14.109 9.33301 9.33301 14.109 9.33301 20C9.33301 25.891 14.109 30.667 20 30.667C25.891 30.667 30.667 25.891 30.667 20C30.667 14.109 25.891 9.33301 20 9.33301Z" fill="#DEF7EC"/>
<path d="M20 9.33301L20 6.33301L20 6.33301L20 9.33301ZM9.33301 20L6.33301 20V20H9.33301ZM20 30.667L20 33.667H20V30.667ZM30.667 20L33.667 20V20L30.667 20ZM20 4V7C27.1797 7 33 12.8203 33 20H36H39C39 9.50659 30.4934 1 20 1V4ZM36 20H33C33 27.1797 27.1797 33 20 33V36V39C30.4934 39 39 30.4934 39 20H36ZM20 36V33C12.8203 33 7 27.1797 7 20H4H1C1 30.4934 9.50659 39 20 39V36ZM4 20H7C7 12.8203 12.8203 7 20 7V4V1C9.50659 1 1 9.50659 1 20H4ZM20 9.33301L20 6.33301C12.4521 6.33301 6.33301 12.4521 6.33301 20L9.33301 20L12.333 20C12.333 15.7658 15.7658 12.333 20 12.333L20 9.33301ZM9.33301 20H6.33301C6.33301 27.5479 12.4521 33.667 20 33.667L20 30.667L20 27.667C15.7658 27.667 12.333 24.2342 12.333 20H9.33301ZM20 30.667V33.667C27.5479 33.667 33.667 27.5479 33.667 20H30.667H27.667C27.667 24.2342 24.2342 27.667 20 27.667V30.667ZM30.667 20L33.667 20C33.667 12.4521 27.5479 6.33301 20 6.33301V9.33301V12.333C24.2342 12.333 27.667 15.7658 27.667 20L30.667 20Z" fill="#DEF7EC" mask="url(#path-1-outside-1_1163_167800)"/>
<circle cx="20" cy="20" r="11" fill="#0694A2"/>
<circle cx="32.5" cy="7.5" r="3.5" fill="#0694A2"/>
</svg>
