<svg width="1695" height="356" viewBox="0 0 1695 356" fill="none" xmlns="http://www.w3.org/2000/svg">
<g filter="url(#filter0_d_1196_168875)">
<rect x="2" y="13" width="240" height="280" rx="2" fill="white"/>
<path d="M64.9244 160.156C64.4935 160.156 64.1242 160.005 63.8164 159.702C63.5086 159.399 63.3571 159.029 63.3619 158.594C63.3571 158.168 63.5086 157.803 63.8164 157.5C64.1242 157.197 64.4935 157.045 64.9244 157.045C65.341 157.045 65.7032 157.197 66.011 157.5C66.3235 157.803 66.4821 158.168 66.4869 158.594C66.4821 158.883 66.4064 159.145 66.2596 159.382C66.1175 159.619 65.9281 159.808 65.6914 159.95C65.4594 160.088 65.2037 160.156 64.9244 160.156ZM77.7635 151.974L75.4197 152.23C75.3535 151.993 75.2375 151.771 75.0717 151.562C74.9107 151.354 74.6929 151.186 74.4183 151.058C74.1437 150.93 73.8075 150.866 73.4098 150.866C72.8748 150.866 72.425 150.982 72.0604 151.214C71.7005 151.446 71.523 151.747 71.5277 152.116C71.523 152.434 71.639 152.692 71.8757 152.891C72.1172 153.089 72.5149 153.253 73.0689 153.381L74.9297 153.778C75.9619 154.001 76.7289 154.354 77.2308 154.837C77.7375 155.32 77.9931 155.952 77.9979 156.733C77.9931 157.42 77.7919 158.026 77.3942 158.551C77.0012 159.072 76.4543 159.479 75.7536 159.773C75.0528 160.066 74.2479 160.213 73.3388 160.213C72.0036 160.213 70.9287 159.934 70.1143 159.375C69.3 158.812 68.8146 158.028 68.6584 157.024L71.1655 156.783C71.2791 157.275 71.5206 157.647 71.8899 157.898C72.2592 158.149 72.7398 158.274 73.3317 158.274C73.9425 158.274 74.4325 158.149 74.8018 157.898C75.1759 157.647 75.3629 157.337 75.3629 156.967C75.3629 156.655 75.2422 156.397 75.0007 156.193C74.764 155.99 74.3946 155.833 73.8928 155.724L72.032 155.334C70.9856 155.116 70.2114 154.749 69.7095 154.233C69.2076 153.712 68.959 153.054 68.9638 152.259C68.959 151.586 69.1413 151.004 69.5107 150.511C69.8847 150.014 70.4032 149.631 71.0661 149.361C71.7337 149.086 72.5031 148.949 73.3743 148.949C74.6527 148.949 75.6589 149.221 76.3928 149.766C77.1314 150.31 77.5883 151.046 77.7635 151.974ZM82.6889 153.608V160H80.1179V145.455H82.6321V150.945H82.7599C83.0156 150.329 83.411 149.844 83.946 149.489C84.4858 149.129 85.1723 148.949 86.0057 148.949C86.7633 148.949 87.4238 149.107 87.9872 149.425C88.5507 149.742 88.9863 150.206 89.294 150.817C89.6065 151.428 89.7628 152.173 89.7628 153.054V160H87.1918V153.452C87.1918 152.718 87.0024 152.147 86.6236 151.74C86.2495 151.328 85.724 151.122 85.0469 151.122C84.5923 151.122 84.1851 151.222 83.8253 151.42C83.4702 151.615 83.1908 151.896 82.9872 152.266C82.7884 152.635 82.6889 153.082 82.6889 153.608ZM95.5227 160.22C94.8314 160.22 94.2088 160.097 93.6548 159.851C93.1056 159.6 92.67 159.231 92.348 158.743C92.0308 158.255 91.8722 157.654 91.8722 156.939C91.8722 156.323 91.9858 155.814 92.2131 155.412C92.4403 155.009 92.7505 154.688 93.1435 154.446C93.5365 154.205 93.9792 154.022 94.4716 153.899C94.9688 153.771 95.4825 153.679 96.0128 153.622C96.652 153.556 97.1705 153.497 97.5682 153.445C97.9659 153.388 98.2547 153.303 98.4347 153.189C98.6193 153.071 98.7116 152.888 98.7116 152.642V152.599C98.7116 152.064 98.553 151.65 98.2358 151.357C97.9186 151.063 97.4616 150.916 96.8651 150.916C96.2353 150.916 95.7358 151.054 95.3665 151.328C95.0019 151.603 94.7557 151.927 94.6278 152.301L92.2273 151.96C92.4167 151.297 92.7292 150.743 93.1648 150.298C93.6004 149.848 94.133 149.512 94.7628 149.29C95.3925 149.062 96.0885 148.949 96.8509 148.949C97.3764 148.949 97.8996 149.01 98.4205 149.134C98.9413 149.257 99.4171 149.46 99.848 149.744C100.279 150.024 100.625 150.405 100.885 150.888C101.15 151.371 101.283 151.974 101.283 152.699V160H98.8111V158.501H98.7259C98.5696 158.804 98.3494 159.089 98.0653 159.354C97.786 159.614 97.4332 159.825 97.0071 159.986C96.5857 160.142 96.0909 160.22 95.5227 160.22ZM96.1903 158.331C96.7064 158.331 97.1539 158.229 97.5327 158.026C97.9115 157.817 98.2027 157.543 98.4062 157.202C98.6146 156.861 98.7188 156.489 98.7188 156.087V154.801C98.6383 154.867 98.5009 154.929 98.3068 154.986C98.1174 155.043 97.9044 155.092 97.6676 155.135C97.4309 155.178 97.1965 155.215 96.9645 155.249C96.7325 155.282 96.5313 155.31 96.3608 155.334C95.9773 155.386 95.634 155.471 95.331 155.589C95.0279 155.708 94.7888 155.874 94.6136 156.087C94.4384 156.295 94.3509 156.565 94.3509 156.896C94.3509 157.37 94.5237 157.727 94.8693 157.969C95.215 158.21 95.6553 158.331 96.1903 158.331ZM107.916 160.192C107.059 160.192 106.292 159.972 105.615 159.531C104.938 159.091 104.403 158.452 104.01 157.614C103.617 156.776 103.42 155.758 103.42 154.56C103.42 153.348 103.619 152.325 104.017 151.491C104.42 150.653 104.962 150.021 105.643 149.595C106.325 149.164 107.085 148.949 107.923 148.949C108.563 148.949 109.088 149.058 109.5 149.276C109.912 149.489 110.239 149.747 110.48 150.05C110.722 150.348 110.909 150.63 111.041 150.895H111.148V145.455H113.726V160H111.197V158.281H111.041C110.909 158.546 110.717 158.828 110.466 159.126C110.215 159.42 109.884 159.671 109.472 159.879C109.06 160.088 108.541 160.192 107.916 160.192ZM108.634 158.082C109.178 158.082 109.642 157.936 110.026 157.642C110.409 157.344 110.7 156.929 110.899 156.399C111.098 155.869 111.197 155.251 111.197 154.545C111.197 153.84 111.098 153.227 110.899 152.706C110.705 152.185 110.416 151.78 110.033 151.491C109.654 151.203 109.188 151.058 108.634 151.058C108.061 151.058 107.582 151.207 107.199 151.506C106.815 151.804 106.527 152.216 106.332 152.741C106.138 153.267 106.041 153.868 106.041 154.545C106.041 155.227 106.138 155.836 106.332 156.371C106.531 156.901 106.822 157.32 107.206 157.628C107.594 157.931 108.07 158.082 108.634 158.082ZM121.224 160.213C120.159 160.213 119.235 159.979 118.454 159.51C117.673 159.041 117.067 158.385 116.636 157.543C116.21 156.7 115.997 155.715 115.997 154.588C115.997 153.461 116.21 152.474 116.636 151.626C117.067 150.779 117.673 150.121 118.454 149.652C119.235 149.183 120.159 148.949 121.224 148.949C122.289 148.949 123.213 149.183 123.994 149.652C124.775 150.121 125.379 150.779 125.805 151.626C126.236 152.474 126.451 153.461 126.451 154.588C126.451 155.715 126.236 156.7 125.805 157.543C125.379 158.385 124.775 159.041 123.994 159.51C123.213 159.979 122.289 160.213 121.224 160.213ZM121.238 158.153C121.816 158.153 122.299 157.995 122.687 157.678C123.075 157.356 123.364 156.925 123.554 156.385C123.748 155.845 123.845 155.244 123.845 154.581C123.845 153.913 123.748 153.31 123.554 152.77C123.364 152.225 123.075 151.792 122.687 151.47C122.299 151.148 121.816 150.987 121.238 150.987C120.646 150.987 120.154 151.148 119.761 151.47C119.373 151.792 119.082 152.225 118.887 152.77C118.698 153.31 118.603 153.913 118.603 154.581C118.603 155.244 118.698 155.845 118.887 156.385C119.082 156.925 119.373 157.356 119.761 157.678C120.154 157.995 120.646 158.153 121.238 158.153ZM130.572 160L127.49 149.091H130.111L132.028 156.761H132.128L134.088 149.091H136.68L138.641 156.719H138.747L140.636 149.091H143.264L140.175 160H137.497L135.452 152.628H135.303L133.257 160H130.572ZM151.672 152.884V155H145.123V152.884H151.672ZM162.998 151.974L160.654 152.23C160.588 151.993 160.472 151.771 160.306 151.562C160.145 151.354 159.927 151.186 159.653 151.058C159.378 150.93 159.042 150.866 158.644 150.866C158.109 150.866 157.659 150.982 157.295 151.214C156.935 151.446 156.757 151.747 156.762 152.116C156.757 152.434 156.873 152.692 157.11 152.891C157.352 153.089 157.749 153.253 158.303 153.381L160.164 153.778C161.196 154.001 161.963 154.354 162.465 154.837C162.972 155.32 163.228 155.952 163.232 156.733C163.228 157.42 163.026 158.026 162.629 158.551C162.236 159.072 161.689 159.479 160.988 159.773C160.287 160.066 159.482 160.213 158.573 160.213C157.238 160.213 156.163 159.934 155.349 159.375C154.534 158.812 154.049 158.028 153.893 157.024L156.4 156.783C156.513 157.275 156.755 157.647 157.124 157.898C157.494 158.149 157.974 158.274 158.566 158.274C159.177 158.274 159.667 158.149 160.036 157.898C160.41 157.647 160.597 157.337 160.597 156.967C160.597 156.655 160.477 156.397 160.235 156.193C159.998 155.99 159.629 155.833 159.127 155.724L157.266 155.334C156.22 155.116 155.446 154.749 154.944 154.233C154.442 153.712 154.193 153.054 154.198 152.259C154.193 151.586 154.376 151.004 154.745 150.511C155.119 150.014 155.638 149.631 156.3 149.361C156.968 149.086 157.737 148.949 158.609 148.949C159.887 148.949 160.893 149.221 161.627 149.766C162.366 150.31 162.823 151.046 162.998 151.974ZM165.352 160V149.091H167.81V150.945H167.938C168.165 150.32 168.541 149.832 169.067 149.482C169.592 149.126 170.22 148.949 170.949 148.949C171.688 148.949 172.31 149.129 172.817 149.489C173.328 149.844 173.688 150.329 173.896 150.945H174.01C174.251 150.339 174.659 149.856 175.232 149.496C175.809 149.131 176.493 148.949 177.284 148.949C178.288 148.949 179.107 149.266 179.741 149.901C180.376 150.535 180.693 151.461 180.693 152.678V160H178.115V153.075C178.115 152.398 177.935 151.903 177.575 151.591C177.215 151.274 176.775 151.115 176.254 151.115C175.634 151.115 175.149 151.309 174.798 151.697C174.453 152.081 174.28 152.58 174.28 153.196V160H171.759V152.969C171.759 152.405 171.588 151.955 171.247 151.619C170.911 151.283 170.471 151.115 169.926 151.115C169.557 151.115 169.221 151.21 168.918 151.399C168.615 151.584 168.373 151.847 168.193 152.188C168.013 152.524 167.923 152.917 167.923 153.366V160H165.352Z" fill="#1C64F2"/>
</g>
<g filter="url(#filter1_d_1196_168875)">
<rect x="285" y="13" width="240" height="280" rx="2" fill="white" shape-rendering="crispEdges"/>
<path d="M367.045 160.156C366.615 160.156 366.245 160.005 365.938 159.702C365.63 159.399 365.478 159.029 365.483 158.594C365.478 158.168 365.63 157.803 365.938 157.5C366.245 157.197 366.615 157.045 367.045 157.045C367.462 157.045 367.824 157.197 368.132 157.5C368.445 157.803 368.603 158.168 368.608 158.594C368.603 158.883 368.527 159.145 368.381 159.382C368.239 159.619 368.049 159.808 367.812 159.95C367.58 160.088 367.325 160.156 367.045 160.156ZM379.885 151.974L377.541 152.23C377.475 151.993 377.359 151.771 377.193 151.562C377.032 151.354 376.814 151.186 376.539 151.058C376.265 150.93 375.929 150.866 375.531 150.866C374.996 150.866 374.546 150.982 374.181 151.214C373.822 151.446 373.644 151.747 373.649 152.116C373.644 152.434 373.76 152.692 373.997 152.891C374.238 153.089 374.636 153.253 375.19 153.381L377.051 153.778C378.083 154.001 378.85 154.354 379.352 154.837C379.859 155.32 380.114 155.952 380.119 156.733C380.114 157.42 379.913 158.026 379.515 158.551C379.122 159.072 378.575 159.479 377.875 159.773C377.174 160.066 376.369 160.213 375.46 160.213C374.125 160.213 373.05 159.934 372.235 159.375C371.421 158.812 370.936 158.028 370.779 157.024L373.287 156.783C373.4 157.275 373.642 157.647 374.011 157.898C374.38 158.149 374.861 158.274 375.453 158.274C376.064 158.274 376.554 158.149 376.923 157.898C377.297 157.647 377.484 157.337 377.484 156.967C377.484 156.655 377.363 156.397 377.122 156.193C376.885 155.99 376.516 155.833 376.014 155.724L374.153 155.334C373.107 155.116 372.333 154.749 371.831 154.233C371.329 153.712 371.08 153.054 371.085 152.259C371.08 151.586 371.262 151.004 371.632 150.511C372.006 150.014 372.524 149.631 373.187 149.361C373.855 149.086 374.624 148.949 375.495 148.949C376.774 148.949 377.78 149.221 378.514 149.766C379.252 150.31 379.709 151.046 379.885 151.974ZM384.81 153.608V160H382.239V145.455H384.753V150.945H384.881C385.137 150.329 385.532 149.844 386.067 149.489C386.607 149.129 387.293 148.949 388.127 148.949C388.884 148.949 389.545 149.107 390.108 149.425C390.672 149.742 391.107 150.206 391.415 150.817C391.728 151.428 391.884 152.173 391.884 153.054V160H389.313V153.452C389.313 152.718 389.123 152.147 388.745 151.74C388.371 151.328 387.845 151.122 387.168 151.122C386.713 151.122 386.306 151.222 385.946 151.42C385.591 151.615 385.312 151.896 385.108 152.266C384.909 152.635 384.81 153.082 384.81 153.608ZM397.644 160.22C396.953 160.22 396.33 160.097 395.776 159.851C395.227 159.6 394.791 159.231 394.469 158.743C394.152 158.255 393.993 157.654 393.993 156.939C393.993 156.323 394.107 155.814 394.334 155.412C394.561 155.009 394.872 154.688 395.265 154.446C395.658 154.205 396.1 154.022 396.593 153.899C397.09 153.771 397.604 153.679 398.134 153.622C398.773 153.556 399.292 153.497 399.689 153.445C400.087 153.388 400.376 153.303 400.556 153.189C400.74 153.071 400.833 152.888 400.833 152.642V152.599C400.833 152.064 400.674 151.65 400.357 151.357C400.04 151.063 399.583 150.916 398.986 150.916C398.356 150.916 397.857 151.054 397.488 151.328C397.123 151.603 396.877 151.927 396.749 152.301L394.348 151.96C394.538 151.297 394.85 150.743 395.286 150.298C395.721 149.848 396.254 149.512 396.884 149.29C397.514 149.062 398.21 148.949 398.972 148.949C399.498 148.949 400.021 149.01 400.542 149.134C401.062 149.257 401.538 149.46 401.969 149.744C402.4 150.024 402.746 150.405 403.006 150.888C403.271 151.371 403.404 151.974 403.404 152.699V160H400.932V158.501H400.847C400.691 158.804 400.471 159.089 400.186 159.354C399.907 159.614 399.554 159.825 399.128 159.986C398.707 160.142 398.212 160.22 397.644 160.22ZM398.311 158.331C398.828 158.331 399.275 158.229 399.654 158.026C400.033 157.817 400.324 157.543 400.527 157.202C400.736 156.861 400.84 156.489 400.84 156.087V154.801C400.759 154.867 400.622 154.929 400.428 154.986C400.239 155.043 400.025 155.092 399.789 155.135C399.552 155.178 399.318 155.215 399.086 155.249C398.854 155.282 398.652 155.31 398.482 155.334C398.098 155.386 397.755 155.471 397.452 155.589C397.149 155.708 396.91 155.874 396.735 156.087C396.56 156.295 396.472 156.565 396.472 156.896C396.472 157.37 396.645 157.727 396.99 157.969C397.336 158.21 397.776 158.331 398.311 158.331ZM410.037 160.192C409.18 160.192 408.413 159.972 407.736 159.531C407.059 159.091 406.524 158.452 406.131 157.614C405.738 156.776 405.542 155.758 405.542 154.56C405.542 153.348 405.74 152.325 406.138 151.491C406.541 150.653 407.083 150.021 407.765 149.595C408.446 149.164 409.206 148.949 410.044 148.949C410.684 148.949 411.209 149.058 411.621 149.276C412.033 149.489 412.36 149.747 412.601 150.05C412.843 150.348 413.03 150.63 413.162 150.895H413.269V145.455H415.847V160H413.319V158.281H413.162C413.03 158.546 412.838 158.828 412.587 159.126C412.336 159.42 412.005 159.671 411.593 159.879C411.181 160.088 410.662 160.192 410.037 160.192ZM410.755 158.082C411.299 158.082 411.763 157.936 412.147 157.642C412.53 157.344 412.821 156.929 413.02 156.399C413.219 155.869 413.319 155.251 413.319 154.545C413.319 153.84 413.219 153.227 413.02 152.706C412.826 152.185 412.537 151.78 412.154 151.491C411.775 151.203 411.309 151.058 410.755 151.058C410.182 151.058 409.703 151.207 409.32 151.506C408.936 151.804 408.648 152.216 408.453 152.741C408.259 153.267 408.162 153.868 408.162 154.545C408.162 155.227 408.259 155.836 408.453 156.371C408.652 156.901 408.944 157.32 409.327 157.628C409.715 157.931 410.191 158.082 410.755 158.082ZM423.345 160.213C422.28 160.213 421.357 159.979 420.575 159.51C419.794 159.041 419.188 158.385 418.757 157.543C418.331 156.7 418.118 155.715 418.118 154.588C418.118 153.461 418.331 152.474 418.757 151.626C419.188 150.779 419.794 150.121 420.575 149.652C421.357 149.183 422.28 148.949 423.345 148.949C424.411 148.949 425.334 149.183 426.115 149.652C426.896 150.121 427.5 150.779 427.926 151.626C428.357 152.474 428.572 153.461 428.572 154.588C428.572 155.715 428.357 156.7 427.926 157.543C427.5 158.385 426.896 159.041 426.115 159.51C425.334 159.979 424.411 160.213 423.345 160.213ZM423.359 158.153C423.937 158.153 424.42 157.995 424.808 157.678C425.196 157.356 425.485 156.925 425.675 156.385C425.869 155.845 425.966 155.244 425.966 154.581C425.966 153.913 425.869 153.31 425.675 152.77C425.485 152.225 425.196 151.792 424.808 151.47C424.42 151.148 423.937 150.987 423.359 150.987C422.768 150.987 422.275 151.148 421.882 151.47C421.494 151.792 421.203 152.225 421.009 152.77C420.819 153.31 420.724 153.913 420.724 154.581C420.724 155.244 420.819 155.845 421.009 156.385C421.203 156.925 421.494 157.356 421.882 157.678C422.275 157.995 422.768 158.153 423.359 158.153ZM432.694 160L429.611 149.091H432.232L434.15 156.761H434.249L436.209 149.091H438.801L440.762 156.719H440.868L442.757 149.091H445.385L442.296 160H439.618L437.573 152.628H437.424L435.378 160H432.694Z" fill="#1C64F2"/>
</g>
<g filter="url(#filter2_d_1196_168875)">
<rect x="568" y="13" width="240" height="280" rx="2" fill="white" shape-rendering="crispEdges"/>
<path d="M630.114 160.156C629.683 160.156 629.314 160.005 629.006 159.702C628.698 159.399 628.547 159.029 628.551 158.594C628.547 158.168 628.698 157.803 629.006 157.5C629.314 157.197 629.683 157.045 630.114 157.045C630.53 157.045 630.893 157.197 631.2 157.5C631.513 157.803 631.672 158.168 631.676 158.594C631.672 158.883 631.596 159.145 631.449 159.382C631.307 159.619 631.118 159.808 630.881 159.95C630.649 160.088 630.393 160.156 630.114 160.156ZM642.953 151.974L640.609 152.23C640.543 151.993 640.427 151.771 640.261 151.562C640.1 151.354 639.882 151.186 639.608 151.058C639.333 150.93 638.997 150.866 638.599 150.866C638.064 150.866 637.614 150.982 637.25 151.214C636.89 151.446 636.712 151.747 636.717 152.116C636.712 152.434 636.828 152.692 637.065 152.891C637.307 153.089 637.704 153.253 638.258 153.381L640.119 153.778C641.151 154.001 641.918 154.354 642.42 154.837C642.927 155.32 643.183 155.952 643.187 156.733C643.183 157.42 642.981 158.026 642.584 158.551C642.191 159.072 641.644 159.479 640.943 159.773C640.242 160.066 639.437 160.213 638.528 160.213C637.193 160.213 636.118 159.934 635.304 159.375C634.489 158.812 634.004 158.028 633.848 157.024L636.355 156.783C636.469 157.275 636.71 157.647 637.079 157.898C637.449 158.149 637.929 158.274 638.521 158.274C639.132 158.274 639.622 158.149 639.991 157.898C640.365 157.647 640.552 157.337 640.552 156.967C640.552 156.655 640.432 156.397 640.19 156.193C639.953 155.99 639.584 155.833 639.082 155.724L637.221 155.334C636.175 155.116 635.401 154.749 634.899 154.233C634.397 153.712 634.148 153.054 634.153 152.259C634.148 151.586 634.331 151.004 634.7 150.511C635.074 150.014 635.593 149.631 636.256 149.361C636.923 149.086 637.693 148.949 638.564 148.949C639.842 148.949 640.848 149.221 641.582 149.766C642.321 150.31 642.778 151.046 642.953 151.974ZM647.878 153.608V160H645.307V145.455H647.822V150.945H647.949C648.205 150.329 648.6 149.844 649.135 149.489C649.675 149.129 650.362 148.949 651.195 148.949C651.953 148.949 652.613 149.107 653.177 149.425C653.74 149.742 654.176 150.206 654.483 150.817C654.796 151.428 654.952 152.173 654.952 153.054V160H652.381V153.452C652.381 152.718 652.192 152.147 651.813 151.74C651.439 151.328 650.913 151.122 650.236 151.122C649.782 151.122 649.375 151.222 649.015 151.42C648.66 151.615 648.38 151.896 648.177 152.266C647.978 152.635 647.878 153.082 647.878 153.608ZM660.712 160.22C660.021 160.22 659.398 160.097 658.844 159.851C658.295 159.6 657.859 159.231 657.537 158.743C657.22 158.255 657.062 157.654 657.062 156.939C657.062 156.323 657.175 155.814 657.403 155.412C657.63 155.009 657.94 154.688 658.333 154.446C658.726 154.205 659.169 154.022 659.661 153.899C660.158 153.771 660.672 153.679 661.202 153.622C661.841 153.556 662.36 153.497 662.758 153.445C663.155 153.388 663.444 153.303 663.624 153.189C663.809 153.071 663.901 152.888 663.901 152.642V152.599C663.901 152.064 663.742 151.65 663.425 151.357C663.108 151.063 662.651 150.916 662.055 150.916C661.425 150.916 660.925 151.054 660.556 151.328C660.191 151.603 659.945 151.927 659.817 152.301L657.417 151.96C657.606 151.297 657.919 150.743 658.354 150.298C658.79 149.848 659.323 149.512 659.952 149.29C660.582 149.062 661.278 148.949 662.04 148.949C662.566 148.949 663.089 149.01 663.61 149.134C664.131 149.257 664.607 149.46 665.037 149.744C665.468 150.024 665.814 150.405 666.074 150.888C666.34 151.371 666.472 151.974 666.472 152.699V160H664.001V158.501H663.915C663.759 158.804 663.539 159.089 663.255 159.354C662.975 159.614 662.623 159.825 662.197 159.986C661.775 160.142 661.28 160.22 660.712 160.22ZM661.38 158.331C661.896 158.331 662.343 158.229 662.722 158.026C663.101 157.817 663.392 157.543 663.596 157.202C663.804 156.861 663.908 156.489 663.908 156.087V154.801C663.828 154.867 663.69 154.929 663.496 154.986C663.307 155.043 663.094 155.092 662.857 155.135C662.62 155.178 662.386 155.215 662.154 155.249C661.922 155.282 661.721 155.31 661.55 155.334C661.167 155.386 660.823 155.471 660.52 155.589C660.217 155.708 659.978 155.874 659.803 156.087C659.628 156.295 659.54 156.565 659.54 156.896C659.54 157.37 659.713 157.727 660.059 157.969C660.404 158.21 660.845 158.331 661.38 158.331ZM673.106 160.192C672.249 160.192 671.482 159.972 670.805 159.531C670.127 159.091 669.592 158.452 669.199 157.614C668.806 156.776 668.61 155.758 668.61 154.56C668.61 153.348 668.809 152.325 669.206 151.491C669.609 150.653 670.151 150.021 670.833 149.595C671.515 149.164 672.275 148.949 673.113 148.949C673.752 148.949 674.278 149.058 674.689 149.276C675.101 149.489 675.428 149.747 675.67 150.05C675.911 150.348 676.098 150.63 676.231 150.895H676.337V145.455H678.915V160H676.387V158.281H676.231C676.098 158.546 675.906 158.828 675.655 159.126C675.404 159.42 675.073 159.671 674.661 159.879C674.249 160.088 673.731 160.192 673.106 160.192ZM673.823 158.082C674.367 158.082 674.831 157.936 675.215 157.642C675.599 157.344 675.89 156.929 676.089 156.399C676.287 155.869 676.387 155.251 676.387 154.545C676.387 153.84 676.287 153.227 676.089 152.706C675.894 152.185 675.606 151.78 675.222 151.491C674.843 151.203 674.377 151.058 673.823 151.058C673.25 151.058 672.772 151.207 672.388 151.506C672.005 151.804 671.716 152.216 671.522 152.741C671.328 153.267 671.231 153.868 671.231 154.545C671.231 155.227 671.328 155.836 671.522 156.371C671.721 156.901 672.012 157.32 672.395 157.628C672.784 157.931 673.26 158.082 673.823 158.082ZM686.414 160.213C685.348 160.213 684.425 159.979 683.644 159.51C682.862 159.041 682.256 158.385 681.825 157.543C681.399 156.7 681.186 155.715 681.186 154.588C681.186 153.461 681.399 152.474 681.825 151.626C682.256 150.779 682.862 150.121 683.644 149.652C684.425 149.183 685.348 148.949 686.414 148.949C687.479 148.949 688.402 149.183 689.183 149.652C689.965 150.121 690.568 150.779 690.994 151.626C691.425 152.474 691.641 153.461 691.641 154.588C691.641 155.715 691.425 156.7 690.994 157.543C690.568 158.385 689.965 159.041 689.183 159.51C688.402 159.979 687.479 160.213 686.414 160.213ZM686.428 158.153C687.005 158.153 687.488 157.995 687.877 157.678C688.265 157.356 688.554 156.925 688.743 156.385C688.937 155.845 689.034 155.244 689.034 154.581C689.034 153.913 688.937 153.31 688.743 152.77C688.554 152.225 688.265 151.792 687.877 151.47C687.488 151.148 687.005 150.987 686.428 150.987C685.836 150.987 685.343 151.148 684.95 151.47C684.562 151.792 684.271 152.225 684.077 152.77C683.887 153.31 683.793 153.913 683.793 154.581C683.793 155.244 683.887 155.845 684.077 156.385C684.271 156.925 684.562 157.356 684.95 157.678C685.343 157.995 685.836 158.153 686.428 158.153ZM695.762 160L692.68 149.091H695.3L697.218 156.761H697.317L699.278 149.091H701.87L703.83 156.719H703.937L705.826 149.091H708.454L705.364 160H702.687L700.641 152.628H700.492L698.447 160H695.762ZM716.861 152.884V155H710.313V152.884H716.861ZM719.565 160V149.091H722.023V150.945H722.15C722.378 150.32 722.754 149.832 723.28 149.482C723.805 149.126 724.433 148.949 725.162 148.949C725.9 148.949 726.523 149.129 727.03 149.489C727.541 149.844 727.901 150.329 728.109 150.945H728.223C728.464 150.339 728.872 149.856 729.444 149.496C730.022 149.131 730.706 148.949 731.497 148.949C732.501 148.949 733.32 149.266 733.954 149.901C734.589 150.535 734.906 151.461 734.906 152.678V160H732.328V153.075C732.328 152.398 732.148 151.903 731.788 151.591C731.428 151.274 730.988 151.115 730.467 151.115C729.847 151.115 729.362 151.309 729.011 151.697C728.666 152.081 728.493 152.58 728.493 153.196V160H725.971V152.969C725.971 152.405 725.801 151.955 725.46 151.619C725.124 151.283 724.684 151.115 724.139 151.115C723.77 151.115 723.434 151.21 723.131 151.399C722.827 151.584 722.586 151.847 722.406 152.188C722.226 152.524 722.136 152.917 722.136 153.366V160H719.565ZM741.563 160.192C740.706 160.192 739.939 159.972 739.262 159.531C738.584 159.091 738.049 158.452 737.656 157.614C737.263 156.776 737.067 155.758 737.067 154.56C737.067 153.348 737.266 152.325 737.664 151.491C738.066 150.653 738.608 150.021 739.29 149.595C739.972 149.164 740.732 148.949 741.57 148.949C742.209 148.949 742.735 149.058 743.146 149.276C743.558 149.489 743.885 149.747 744.127 150.05C744.368 150.348 744.555 150.63 744.688 150.895H744.794V145.455H747.372V160H744.844V158.281H744.688C744.555 158.546 744.363 158.828 744.112 159.126C743.861 159.42 743.53 159.671 743.118 159.879C742.706 160.088 742.188 160.192 741.563 160.192ZM742.28 158.082C742.825 158.082 743.289 157.936 743.672 157.642C744.056 157.344 744.347 156.929 744.546 156.399C744.744 155.869 744.844 155.251 744.844 154.545C744.844 153.84 744.744 153.227 744.546 152.706C744.352 152.185 744.063 151.78 743.679 151.491C743.3 151.203 742.834 151.058 742.28 151.058C741.707 151.058 741.229 151.207 740.845 151.506C740.462 151.804 740.173 152.216 739.979 152.741C739.785 153.267 739.688 153.868 739.688 154.545C739.688 155.227 739.785 155.836 739.979 156.371C740.178 156.901 740.469 157.32 740.852 157.628C741.241 157.931 741.717 158.082 742.28 158.082Z" fill="#1C64F2"/>
</g>
<g filter="url(#filter3_d_1196_168875)">
<rect x="851" y="13" width="240" height="280" rx="2" fill="white" shape-rendering="crispEdges"/>
<path d="M919.53 160.156C919.099 160.156 918.73 160.005 918.422 159.702C918.114 159.399 917.963 159.029 917.967 158.594C917.963 158.168 918.114 157.803 918.422 157.5C918.73 157.197 919.099 157.045 919.53 157.045C919.946 157.045 920.309 157.197 920.616 157.5C920.929 157.803 921.088 158.168 921.092 158.594C921.088 158.883 921.012 159.145 920.865 159.382C920.723 159.619 920.534 159.808 920.297 159.95C920.065 160.088 919.809 160.156 919.53 160.156ZM932.369 151.974L930.025 152.23C929.959 151.993 929.843 151.771 929.677 151.562C929.516 151.354 929.298 151.186 929.024 151.058C928.749 150.93 928.413 150.866 928.015 150.866C927.48 150.866 927.03 150.982 926.666 151.214C926.306 151.446 926.128 151.747 926.133 152.116C926.128 152.434 926.244 152.692 926.481 152.891C926.723 153.089 927.12 153.253 927.674 153.381L929.535 153.778C930.567 154.001 931.334 154.354 931.836 154.837C932.343 155.32 932.599 155.952 932.603 156.733C932.599 157.42 932.397 158.026 932 158.551C931.607 159.072 931.06 159.479 930.359 159.773C929.658 160.066 928.853 160.213 927.944 160.213C926.609 160.213 925.534 159.934 924.72 159.375C923.905 158.812 923.42 158.028 923.264 157.024L925.771 156.783C925.885 157.275 926.126 157.647 926.495 157.898C926.865 158.149 927.345 158.274 927.937 158.274C928.548 158.274 929.038 158.149 929.407 157.898C929.781 157.647 929.968 157.337 929.968 156.967C929.968 156.655 929.848 156.397 929.606 156.193C929.369 155.99 929 155.833 928.498 155.724L926.637 155.334C925.591 155.116 924.817 154.749 924.315 154.233C923.813 153.712 923.565 153.054 923.569 152.259C923.565 151.586 923.747 151.004 924.116 150.511C924.49 150.014 925.009 149.631 925.672 149.361C926.339 149.086 927.109 148.949 927.98 148.949C929.258 148.949 930.264 149.221 930.998 149.766C931.737 150.31 932.194 151.046 932.369 151.974ZM937.294 153.608V160H934.723V145.455H937.238V150.945H937.365C937.621 150.329 938.016 149.844 938.551 149.489C939.091 149.129 939.778 148.949 940.611 148.949C941.369 148.949 942.029 149.107 942.593 149.425C943.156 149.742 943.592 150.206 943.9 150.817C944.212 151.428 944.368 152.173 944.368 153.054V160H941.797V153.452C941.797 152.718 941.608 152.147 941.229 151.74C940.855 151.328 940.329 151.122 939.652 151.122C939.198 151.122 938.791 151.222 938.431 151.42C938.076 151.615 937.796 151.896 937.593 152.266C937.394 152.635 937.294 153.082 937.294 153.608ZM950.128 160.22C949.437 160.22 948.814 160.097 948.26 159.851C947.711 159.6 947.275 159.231 946.953 158.743C946.636 158.255 946.478 157.654 946.478 156.939C946.478 156.323 946.591 155.814 946.819 155.412C947.046 155.009 947.356 154.688 947.749 154.446C948.142 154.205 948.585 154.022 949.077 153.899C949.574 153.771 950.088 153.679 950.618 153.622C951.257 153.556 951.776 153.497 952.174 153.445C952.571 153.388 952.86 153.303 953.04 153.189C953.225 153.071 953.317 152.888 953.317 152.642V152.599C953.317 152.064 953.158 151.65 952.841 151.357C952.524 151.063 952.067 150.916 951.471 150.916C950.841 150.916 950.341 151.054 949.972 151.328C949.607 151.603 949.361 151.927 949.233 152.301L946.833 151.96C947.022 151.297 947.335 150.743 947.77 150.298C948.206 149.848 948.739 149.512 949.368 149.29C949.998 149.062 950.694 148.949 951.456 148.949C951.982 148.949 952.505 149.01 953.026 149.134C953.547 149.257 954.023 149.46 954.453 149.744C954.884 150.024 955.23 150.405 955.49 150.888C955.756 151.371 955.888 151.974 955.888 152.699V160H953.417V158.501H953.331C953.175 158.804 952.955 159.089 952.671 159.354C952.391 159.614 952.039 159.825 951.613 159.986C951.191 160.142 950.696 160.22 950.128 160.22ZM950.796 158.331C951.312 158.331 951.759 158.229 952.138 158.026C952.517 157.817 952.808 157.543 953.012 157.202C953.22 156.861 953.324 156.489 953.324 156.087V154.801C953.244 154.867 953.106 154.929 952.912 154.986C952.723 155.043 952.51 155.092 952.273 155.135C952.036 155.178 951.802 155.215 951.57 155.249C951.338 155.282 951.137 155.31 950.966 155.334C950.583 155.386 950.239 155.471 949.936 155.589C949.633 155.708 949.394 155.874 949.219 156.087C949.044 156.295 948.956 156.565 948.956 156.896C948.956 157.37 949.129 157.727 949.475 157.969C949.82 158.21 950.261 158.331 950.796 158.331ZM962.522 160.192C961.665 160.192 960.898 159.972 960.221 159.531C959.543 159.091 959.008 158.452 958.615 157.614C958.222 156.776 958.026 155.758 958.026 154.56C958.026 153.348 958.225 152.325 958.623 151.491C959.025 150.653 959.567 150.021 960.249 149.595C960.931 149.164 961.691 148.949 962.529 148.949C963.168 148.949 963.694 149.058 964.105 149.276C964.517 149.489 964.844 149.747 965.086 150.05C965.327 150.348 965.514 150.63 965.647 150.895H965.753V145.455H968.331V160H965.803V158.281H965.647C965.514 158.546 965.322 158.828 965.071 159.126C964.82 159.42 964.489 159.671 964.077 159.879C963.665 160.088 963.147 160.192 962.522 160.192ZM963.239 158.082C963.783 158.082 964.248 157.936 964.631 157.642C965.015 157.344 965.306 156.929 965.505 156.399C965.703 155.869 965.803 155.251 965.803 154.545C965.803 153.84 965.703 153.227 965.505 152.706C965.31 152.185 965.022 151.78 964.638 151.491C964.259 151.203 963.793 151.058 963.239 151.058C962.666 151.058 962.188 151.207 961.804 151.506C961.421 151.804 961.132 152.216 960.938 152.741C960.744 153.267 960.647 153.868 960.647 154.545C960.647 155.227 960.744 155.836 960.938 156.371C961.137 156.901 961.428 157.32 961.811 157.628C962.2 157.931 962.676 158.082 963.239 158.082ZM975.83 160.213C974.764 160.213 973.841 159.979 973.06 159.51C972.278 159.041 971.672 158.385 971.241 157.543C970.815 156.7 970.602 155.715 970.602 154.588C970.602 153.461 970.815 152.474 971.241 151.626C971.672 150.779 972.278 150.121 973.06 149.652C973.841 149.183 974.764 148.949 975.83 148.949C976.895 148.949 977.818 149.183 978.599 149.652C979.381 150.121 979.984 150.779 980.411 151.626C980.841 152.474 981.057 153.461 981.057 154.588C981.057 155.715 980.841 156.7 980.411 157.543C979.984 158.385 979.381 159.041 978.599 159.51C977.818 159.979 976.895 160.213 975.83 160.213ZM975.844 158.153C976.421 158.153 976.904 157.995 977.293 157.678C977.681 157.356 977.97 156.925 978.159 156.385C978.353 155.845 978.45 155.244 978.45 154.581C978.45 153.913 978.353 153.31 978.159 152.77C977.97 152.225 977.681 151.792 977.293 151.47C976.904 151.148 976.421 150.987 975.844 150.987C975.252 150.987 974.759 151.148 974.366 151.47C973.978 151.792 973.687 152.225 973.493 152.77C973.304 153.31 973.209 153.913 973.209 154.581C973.209 155.244 973.304 155.845 973.493 156.385C973.687 156.925 973.978 157.356 974.366 157.678C974.759 157.995 975.252 158.153 975.844 158.153ZM985.178 160L982.096 149.091H984.716L986.634 156.761H986.733L988.694 149.091H991.286L993.246 156.719H993.353L995.242 149.091H997.87L994.78 160H992.103L990.057 152.628H989.908L987.863 160H985.178ZM1006.28 152.884V155H999.729V152.884H1006.28ZM1011.55 145.455V160H1008.98V145.455H1011.55ZM1018.94 164.318C1018.02 164.318 1017.22 164.193 1016.56 163.942C1015.9 163.696 1015.37 163.364 1014.96 162.947C1014.56 162.531 1014.28 162.069 1014.12 161.562L1016.44 161.001C1016.54 161.214 1016.7 161.425 1016.89 161.634C1017.09 161.847 1017.36 162.022 1017.7 162.159C1018.04 162.301 1018.47 162.372 1018.98 162.372C1019.71 162.372 1020.32 162.195 1020.79 161.839C1021.27 161.489 1021.51 160.911 1021.51 160.107V158.04H1021.38C1021.25 158.305 1021.06 158.577 1020.8 158.857C1020.55 159.136 1020.22 159.37 1019.8 159.56C1019.39 159.749 1018.87 159.844 1018.24 159.844C1017.41 159.844 1016.65 159.647 1015.96 159.254C1015.29 158.857 1014.75 158.265 1014.35 157.479C1013.95 156.688 1013.75 155.698 1013.75 154.51C1013.75 153.312 1013.95 152.301 1014.35 151.477C1014.75 150.649 1015.29 150.021 1015.97 149.595C1016.65 149.164 1017.41 148.949 1018.25 148.949C1018.89 148.949 1019.42 149.058 1019.83 149.276C1020.24 149.489 1020.58 149.747 1020.82 150.05C1021.07 150.348 1021.26 150.63 1021.38 150.895H1021.53V149.091H1024.06V160.178C1024.06 161.11 1023.84 161.882 1023.39 162.493C1022.95 163.104 1022.34 163.561 1021.57 163.864C1020.8 164.167 1019.92 164.318 1018.94 164.318ZM1018.96 157.827C1019.51 157.827 1019.97 157.694 1020.35 157.429C1020.74 157.164 1021.03 156.783 1021.23 156.286C1021.43 155.788 1021.53 155.192 1021.53 154.496C1021.53 153.809 1021.43 153.208 1021.23 152.692C1021.03 152.176 1020.74 151.776 1020.36 151.491C1019.98 151.203 1019.52 151.058 1018.96 151.058C1018.39 151.058 1017.91 151.207 1017.53 151.506C1017.14 151.804 1016.85 152.214 1016.66 152.734C1016.47 153.25 1016.37 153.838 1016.37 154.496C1016.37 155.163 1016.47 155.748 1016.66 156.25C1016.86 156.747 1017.15 157.135 1017.53 157.415C1017.92 157.689 1018.4 157.827 1018.96 157.827Z" fill="#1C64F2"/>
</g>
<g filter="url(#filter4_d_1196_168875)">
<rect x="1134" y="13" width="240" height="280" rx="2" fill="white"/>
<path d="M1203.38 160.156C1202.95 160.156 1202.58 160.005 1202.27 159.702C1201.96 159.399 1201.81 159.029 1201.82 158.594C1201.81 158.168 1201.96 157.803 1202.27 157.5C1202.58 157.197 1202.95 157.045 1203.38 157.045C1203.8 157.045 1204.16 157.197 1204.47 157.5C1204.78 157.803 1204.94 158.168 1204.94 158.594C1204.94 158.883 1204.86 159.145 1204.71 159.382C1204.57 159.619 1204.38 159.808 1204.15 159.95C1203.91 160.088 1203.66 160.156 1203.38 160.156ZM1216.22 151.974L1213.87 152.23C1213.81 151.993 1213.69 151.771 1213.53 151.562C1213.37 151.354 1213.15 151.186 1212.87 151.058C1212.6 150.93 1212.26 150.866 1211.86 150.866C1211.33 150.866 1210.88 150.982 1210.52 151.214C1210.16 151.446 1209.98 151.747 1209.98 152.116C1209.98 152.434 1210.09 152.692 1210.33 152.891C1210.57 153.089 1210.97 153.253 1211.52 153.381L1213.38 153.778C1214.42 154.001 1215.18 154.354 1215.69 154.837C1216.19 155.32 1216.45 155.952 1216.45 156.733C1216.45 157.42 1216.25 158.026 1215.85 158.551C1215.46 159.072 1214.91 159.479 1214.21 159.773C1213.51 160.066 1212.7 160.213 1211.79 160.213C1210.46 160.213 1209.38 159.934 1208.57 159.375C1207.76 158.812 1207.27 158.028 1207.11 157.024L1209.62 156.783C1209.73 157.275 1209.98 157.647 1210.34 157.898C1210.71 158.149 1211.19 158.274 1211.79 158.274C1212.4 158.274 1212.89 158.149 1213.26 157.898C1213.63 157.647 1213.82 157.337 1213.82 156.967C1213.82 156.655 1213.7 156.397 1213.46 156.193C1213.22 155.99 1212.85 155.833 1212.35 155.724L1210.49 155.334C1209.44 155.116 1208.67 154.749 1208.16 154.233C1207.66 153.712 1207.41 153.054 1207.42 152.259C1207.41 151.586 1207.6 151.004 1207.97 150.511C1208.34 150.014 1208.86 149.631 1209.52 149.361C1210.19 149.086 1210.96 148.949 1211.83 148.949C1213.11 148.949 1214.11 149.221 1214.85 149.766C1215.59 150.31 1216.04 151.046 1216.22 151.974ZM1221.14 153.608V160H1218.57V145.455H1221.09V150.945H1221.22C1221.47 150.329 1221.87 149.844 1222.4 149.489C1222.94 149.129 1223.63 148.949 1224.46 148.949C1225.22 148.949 1225.88 149.107 1226.44 149.425C1227.01 149.742 1227.44 150.206 1227.75 150.817C1228.06 151.428 1228.22 152.173 1228.22 153.054V160H1225.65V153.452C1225.65 152.718 1225.46 152.147 1225.08 151.74C1224.7 151.328 1224.18 151.122 1223.5 151.122C1223.05 151.122 1222.64 151.222 1222.28 151.42C1221.93 151.615 1221.65 151.896 1221.44 152.266C1221.24 152.635 1221.14 153.082 1221.14 153.608ZM1233.98 160.22C1233.29 160.22 1232.66 160.097 1232.11 159.851C1231.56 159.6 1231.13 159.231 1230.8 158.743C1230.49 158.255 1230.33 157.654 1230.33 156.939C1230.33 156.323 1230.44 155.814 1230.67 155.412C1230.9 155.009 1231.21 154.688 1231.6 154.446C1231.99 154.205 1232.43 154.022 1232.93 153.899C1233.42 153.771 1233.94 153.679 1234.47 153.622C1235.11 153.556 1235.63 153.497 1236.02 153.445C1236.42 153.388 1236.71 153.303 1236.89 153.189C1237.07 153.071 1237.17 152.888 1237.17 152.642V152.599C1237.17 152.064 1237.01 151.65 1236.69 151.357C1236.37 151.063 1235.92 150.916 1235.32 150.916C1234.69 150.916 1234.19 151.054 1233.82 151.328C1233.46 151.603 1233.21 151.927 1233.08 152.301L1230.68 151.96C1230.87 151.297 1231.18 150.743 1231.62 150.298C1232.06 149.848 1232.59 149.512 1233.22 149.29C1233.85 149.062 1234.54 148.949 1235.31 148.949C1235.83 148.949 1236.35 149.01 1236.88 149.134C1237.4 149.257 1237.87 149.46 1238.3 149.744C1238.73 150.024 1239.08 150.405 1239.34 150.888C1239.61 151.371 1239.74 151.974 1239.74 152.699V160H1237.27V158.501H1237.18C1237.02 158.804 1236.8 159.089 1236.52 159.354C1236.24 159.614 1235.89 159.825 1235.46 159.986C1235.04 160.142 1234.55 160.22 1233.98 160.22ZM1234.65 158.331C1235.16 158.331 1235.61 158.229 1235.99 158.026C1236.37 157.817 1236.66 157.543 1236.86 157.202C1237.07 156.861 1237.17 156.489 1237.17 156.087V154.801C1237.09 154.867 1236.96 154.929 1236.76 154.986C1236.57 155.043 1236.36 155.092 1236.12 155.135C1235.89 155.178 1235.65 155.215 1235.42 155.249C1235.19 155.282 1234.99 155.31 1234.82 155.334C1234.43 155.386 1234.09 155.471 1233.79 155.589C1233.48 155.708 1233.24 155.874 1233.07 156.087C1232.89 156.295 1232.81 156.565 1232.81 156.896C1232.81 157.37 1232.98 157.727 1233.32 157.969C1233.67 158.21 1234.11 158.331 1234.65 158.331ZM1246.37 160.192C1245.51 160.192 1244.75 159.972 1244.07 159.531C1243.39 159.091 1242.86 158.452 1242.47 157.614C1242.07 156.776 1241.88 155.758 1241.88 154.56C1241.88 153.348 1242.07 152.325 1242.47 151.491C1242.87 150.653 1243.42 150.021 1244.1 149.595C1244.78 149.164 1245.54 148.949 1246.38 148.949C1247.02 148.949 1247.54 149.058 1247.96 149.276C1248.37 149.489 1248.69 149.747 1248.94 150.05C1249.18 150.348 1249.36 150.63 1249.5 150.895H1249.6V145.455H1252.18V160H1249.65V158.281H1249.5C1249.36 158.546 1249.17 158.828 1248.92 159.126C1248.67 159.42 1248.34 159.671 1247.93 159.879C1247.51 160.088 1247 160.192 1246.37 160.192ZM1247.09 158.082C1247.63 158.082 1248.1 157.936 1248.48 157.642C1248.86 157.344 1249.16 156.929 1249.35 156.399C1249.55 155.869 1249.65 155.251 1249.65 154.545C1249.65 153.84 1249.55 153.227 1249.35 152.706C1249.16 152.185 1248.87 151.78 1248.49 151.491C1248.11 151.203 1247.64 151.058 1247.09 151.058C1246.52 151.058 1246.04 151.207 1245.65 151.506C1245.27 151.804 1244.98 152.216 1244.79 152.741C1244.59 153.267 1244.5 153.868 1244.5 154.545C1244.5 155.227 1244.59 155.836 1244.79 156.371C1244.99 156.901 1245.28 157.32 1245.66 157.628C1246.05 157.931 1246.53 158.082 1247.09 158.082ZM1259.68 160.213C1258.61 160.213 1257.69 159.979 1256.91 159.51C1256.13 159.041 1255.52 158.385 1255.09 157.543C1254.66 156.7 1254.45 155.715 1254.45 154.588C1254.45 153.461 1254.66 152.474 1255.09 151.626C1255.52 150.779 1256.13 150.121 1256.91 149.652C1257.69 149.183 1258.61 148.949 1259.68 148.949C1260.74 148.949 1261.67 149.183 1262.45 149.652C1263.23 150.121 1263.83 150.779 1264.26 151.626C1264.69 152.474 1264.91 153.461 1264.91 154.588C1264.91 155.715 1264.69 156.7 1264.26 157.543C1263.83 158.385 1263.23 159.041 1262.45 159.51C1261.67 159.979 1260.74 160.213 1259.68 160.213ZM1259.69 158.153C1260.27 158.153 1260.75 157.995 1261.14 157.678C1261.53 157.356 1261.82 156.925 1262.01 156.385C1262.2 155.845 1262.3 155.244 1262.3 154.581C1262.3 153.913 1262.2 153.31 1262.01 152.77C1261.82 152.225 1261.53 151.792 1261.14 151.47C1260.75 151.148 1260.27 150.987 1259.69 150.987C1259.1 150.987 1258.61 151.148 1258.22 151.47C1257.83 151.792 1257.54 152.225 1257.34 152.77C1257.15 153.31 1257.06 153.913 1257.06 154.581C1257.06 155.244 1257.15 155.845 1257.34 156.385C1257.54 156.925 1257.83 157.356 1258.22 157.678C1258.61 157.995 1259.1 158.153 1259.69 158.153ZM1269.03 160L1265.95 149.091H1268.57L1270.48 156.761H1270.58L1272.54 149.091H1275.14L1277.1 156.719H1277.2L1279.09 149.091H1281.72L1278.63 160H1275.95L1273.91 152.628H1273.76L1271.71 160H1269.03ZM1290.13 152.884V155H1283.58V152.884H1290.13ZM1294.48 149.091L1296.69 153.118L1298.92 149.091H1301.64L1298.35 154.545L1301.7 160H1298.99L1296.69 156.072L1294.4 160H1291.67L1295 154.545L1291.76 149.091H1294.48ZM1306.2 145.455V160H1303.63V145.455H1306.2Z" fill="#1C64F2"/>
</g>
<g filter="url(#filter5_d_1196_168875)">
<rect x="1417" y="13" width="240" height="280" rx="2" fill="white" shape-rendering="crispEdges"/>
<path d="M1480.2 160.156C1479.77 160.156 1479.4 160.005 1479.09 159.702C1478.78 159.399 1478.63 159.029 1478.64 158.594C1478.63 158.168 1478.78 157.803 1479.09 157.5C1479.4 157.197 1479.77 157.045 1480.2 157.045C1480.61 157.045 1480.98 157.197 1481.28 157.5C1481.6 157.803 1481.76 158.168 1481.76 158.594C1481.76 158.883 1481.68 159.145 1481.53 159.382C1481.39 159.619 1481.2 159.808 1480.96 159.95C1480.73 160.088 1480.48 160.156 1480.2 160.156ZM1493.04 151.974L1490.69 152.23C1490.63 151.993 1490.51 151.771 1490.35 151.562C1490.18 151.354 1489.97 151.186 1489.69 151.058C1489.42 150.93 1489.08 150.866 1488.68 150.866C1488.15 150.866 1487.7 150.982 1487.33 151.214C1486.97 151.446 1486.8 151.747 1486.8 152.116C1486.8 152.434 1486.91 152.692 1487.15 152.891C1487.39 153.089 1487.79 153.253 1488.34 153.381L1490.2 153.778C1491.24 154.001 1492 154.354 1492.5 154.837C1493.01 155.32 1493.27 155.952 1493.27 156.733C1493.27 157.42 1493.07 158.026 1492.67 158.551C1492.27 159.072 1491.73 159.479 1491.03 159.773C1490.33 160.066 1489.52 160.213 1488.61 160.213C1487.28 160.213 1486.2 159.934 1485.39 159.375C1484.57 158.812 1484.09 158.028 1483.93 157.024L1486.44 156.783C1486.55 157.275 1486.79 157.647 1487.16 157.898C1487.53 158.149 1488.01 158.274 1488.61 158.274C1489.22 158.274 1489.71 158.149 1490.08 157.898C1490.45 157.647 1490.64 157.337 1490.64 156.967C1490.64 156.655 1490.52 156.397 1490.27 156.193C1490.04 155.99 1489.67 155.833 1489.17 155.724L1487.31 155.334C1486.26 155.116 1485.48 154.749 1484.98 154.233C1484.48 153.712 1484.23 153.054 1484.24 152.259C1484.23 151.586 1484.41 151.004 1484.78 150.511C1485.16 150.014 1485.68 149.631 1486.34 149.361C1487.01 149.086 1487.78 148.949 1488.65 148.949C1489.93 148.949 1490.93 149.221 1491.67 149.766C1492.4 150.31 1492.86 151.046 1493.04 151.974ZM1497.96 153.608V160H1495.39V145.455H1497.91V150.945H1498.03C1498.29 150.329 1498.68 149.844 1499.22 149.489C1499.76 149.129 1500.45 148.949 1501.28 148.949C1502.04 148.949 1502.7 149.107 1503.26 149.425C1503.82 149.742 1504.26 150.206 1504.57 150.817C1504.88 151.428 1505.04 152.173 1505.04 153.054V160H1502.47V153.452C1502.47 152.718 1502.28 152.147 1501.9 151.74C1501.52 151.328 1501 151.122 1500.32 151.122C1499.87 151.122 1499.46 151.222 1499.1 151.42C1498.74 151.615 1498.46 151.896 1498.26 152.266C1498.06 152.635 1497.96 153.082 1497.96 153.608ZM1510.8 160.22C1510.1 160.22 1509.48 160.097 1508.93 159.851C1508.38 159.6 1507.94 159.231 1507.62 158.743C1507.3 158.255 1507.15 157.654 1507.15 156.939C1507.15 156.323 1507.26 155.814 1507.49 155.412C1507.71 155.009 1508.02 154.688 1508.42 154.446C1508.81 154.205 1509.25 154.022 1509.75 153.899C1510.24 153.771 1510.76 153.679 1511.29 153.622C1511.93 153.556 1512.44 153.497 1512.84 153.445C1513.24 153.388 1513.53 153.303 1513.71 153.189C1513.89 153.071 1513.99 152.888 1513.99 152.642V152.599C1513.99 152.064 1513.83 151.65 1513.51 151.357C1513.19 151.063 1512.74 150.916 1512.14 150.916C1511.51 150.916 1511.01 151.054 1510.64 151.328C1510.28 151.603 1510.03 151.927 1509.9 152.301L1507.5 151.96C1507.69 151.297 1508 150.743 1508.44 150.298C1508.87 149.848 1509.41 149.512 1510.04 149.29C1510.67 149.062 1511.36 148.949 1512.12 148.949C1512.65 148.949 1513.17 149.01 1513.69 149.134C1514.21 149.257 1514.69 149.46 1515.12 149.744C1515.55 150.024 1515.9 150.405 1516.16 150.888C1516.42 151.371 1516.56 151.974 1516.56 152.699V160H1514.08V158.501H1514C1513.84 158.804 1513.62 159.089 1513.34 159.354C1513.06 159.614 1512.71 159.825 1512.28 159.986C1511.86 160.142 1511.36 160.22 1510.8 160.22ZM1511.46 158.331C1511.98 158.331 1512.43 158.229 1512.81 158.026C1513.18 157.817 1513.48 157.543 1513.68 157.202C1513.89 156.861 1513.99 156.489 1513.99 156.087V154.801C1513.91 154.867 1513.77 154.929 1513.58 154.986C1513.39 155.043 1513.18 155.092 1512.94 155.135C1512.7 155.178 1512.47 155.215 1512.24 155.249C1512.01 155.282 1511.8 155.31 1511.63 155.334C1511.25 155.386 1510.91 155.471 1510.6 155.589C1510.3 155.708 1510.06 155.874 1509.89 156.087C1509.71 156.295 1509.62 156.565 1509.62 156.896C1509.62 157.37 1509.8 157.727 1510.14 157.969C1510.49 158.21 1510.93 158.331 1511.46 158.331ZM1523.19 160.192C1522.33 160.192 1521.57 159.972 1520.89 159.531C1520.21 159.091 1519.68 158.452 1519.28 157.614C1518.89 156.776 1518.69 155.758 1518.69 154.56C1518.69 153.348 1518.89 152.325 1519.29 151.491C1519.69 150.653 1520.24 150.021 1520.92 149.595C1521.6 149.164 1522.36 148.949 1523.2 148.949C1523.84 148.949 1524.36 149.058 1524.77 149.276C1525.19 149.489 1525.51 149.747 1525.75 150.05C1526 150.348 1526.18 150.63 1526.31 150.895H1526.42V145.455H1529V160H1526.47V158.281H1526.31C1526.18 158.546 1525.99 158.828 1525.74 159.126C1525.49 159.42 1525.16 159.671 1524.75 159.879C1524.33 160.088 1523.81 160.192 1523.19 160.192ZM1523.91 158.082C1524.45 158.082 1524.92 157.936 1525.3 157.642C1525.68 157.344 1525.97 156.929 1526.17 156.399C1526.37 155.869 1526.47 155.251 1526.47 154.545C1526.47 153.84 1526.37 153.227 1526.17 152.706C1525.98 152.185 1525.69 151.78 1525.31 151.491C1524.93 151.203 1524.46 151.058 1523.91 151.058C1523.33 151.058 1522.86 151.207 1522.47 151.506C1522.09 151.804 1521.8 152.216 1521.61 152.741C1521.41 153.267 1521.31 153.868 1521.31 154.545C1521.31 155.227 1521.41 155.836 1521.61 156.371C1521.8 156.901 1522.1 157.32 1522.48 157.628C1522.87 157.931 1523.34 158.082 1523.91 158.082ZM1536.5 160.213C1535.43 160.213 1534.51 159.979 1533.73 159.51C1532.95 159.041 1532.34 158.385 1531.91 157.543C1531.48 156.7 1531.27 155.715 1531.27 154.588C1531.27 153.461 1531.48 152.474 1531.91 151.626C1532.34 150.779 1532.95 150.121 1533.73 149.652C1534.51 149.183 1535.43 148.949 1536.5 148.949C1537.56 148.949 1538.49 149.183 1539.27 149.652C1540.05 150.121 1540.65 150.779 1541.08 151.626C1541.51 152.474 1541.72 153.461 1541.72 154.588C1541.72 155.715 1541.51 156.7 1541.08 157.543C1540.65 158.385 1540.05 159.041 1539.27 159.51C1538.49 159.979 1537.56 160.213 1536.5 160.213ZM1536.51 158.153C1537.09 158.153 1537.57 157.995 1537.96 157.678C1538.35 157.356 1538.64 156.925 1538.83 156.385C1539.02 155.845 1539.12 155.244 1539.12 154.581C1539.12 153.913 1539.02 153.31 1538.83 152.77C1538.64 152.225 1538.35 151.792 1537.96 151.47C1537.57 151.148 1537.09 150.987 1536.51 150.987C1535.92 150.987 1535.43 151.148 1535.03 151.47C1534.65 151.792 1534.35 152.225 1534.16 152.77C1533.97 153.31 1533.88 153.913 1533.88 154.581C1533.88 155.244 1533.97 155.845 1534.16 156.385C1534.35 156.925 1534.65 157.356 1535.03 157.678C1535.43 157.995 1535.92 158.153 1536.51 158.153ZM1545.85 160L1542.76 149.091H1545.38L1547.3 156.761H1547.4L1549.36 149.091H1551.95L1553.91 156.719H1554.02L1555.91 149.091H1558.54L1555.45 160H1552.77L1550.73 152.628H1550.58L1548.53 160H1545.85ZM1566.94 152.884V155H1560.4V152.884H1566.94ZM1569.11 160V158.097L1574.16 153.146C1574.65 152.659 1575.05 152.225 1575.37 151.847C1575.69 151.468 1575.93 151.101 1576.09 150.746C1576.26 150.391 1576.34 150.012 1576.34 149.609C1576.34 149.15 1576.23 148.757 1576.02 148.43C1575.82 148.099 1575.53 147.843 1575.16 147.663C1574.8 147.483 1574.39 147.393 1573.92 147.393C1573.44 147.393 1573.02 147.493 1572.66 147.692C1572.3 147.886 1572.02 148.163 1571.83 148.523C1571.63 148.883 1571.53 149.311 1571.53 149.808H1569.03C1569.03 148.885 1569.24 148.082 1569.66 147.401C1570.08 146.719 1570.66 146.191 1571.4 145.817C1572.14 145.443 1573 145.256 1573.96 145.256C1574.93 145.256 1575.79 145.438 1576.53 145.803C1577.27 146.167 1577.84 146.667 1578.25 147.301C1578.66 147.936 1578.86 148.66 1578.86 149.474C1578.86 150.019 1578.76 150.554 1578.55 151.08C1578.34 151.605 1577.98 152.187 1577.45 152.827C1576.93 153.466 1576.2 154.24 1575.26 155.149L1572.75 157.699V157.798H1579.08V160H1569.11ZM1583.67 149.091L1585.87 153.118L1588.1 149.091H1590.82L1587.54 154.545L1590.88 160H1588.18L1585.87 156.072L1583.58 160H1580.85L1584.18 154.545L1580.94 149.091H1583.67ZM1595.38 145.455V160H1592.81V145.455H1595.38Z" fill="#1C64F2"/>
</g>
<defs>
<filter id="filter0_d_1196_168875" x="0" y="12" width="244" height="284" filterUnits="userSpaceOnUse" color-interpolation-filters="sRGB">
<feFlood flood-opacity="0" result="BackgroundImageFix"/>
<feColorMatrix in="SourceAlpha" type="matrix" values="0 0 0 0 0 0 0 0 0 0 0 0 0 0 0 0 0 0 127 0" result="hardAlpha"/>
<feOffset dy="1"/>
<feGaussianBlur stdDeviation="1"/>
<feColorMatrix type="matrix" values="0 0 0 0 0 0 0 0 0 0 0 0 0 0 0 0 0 0 0.08 0"/>
<feBlend mode="normal" in2="BackgroundImageFix" result="effect1_dropShadow_1196_168875"/>
<feBlend mode="normal" in="SourceGraphic" in2="effect1_dropShadow_1196_168875" result="shape"/>
</filter>
<filter id="filter1_d_1196_168875" x="283" y="12" width="244" height="284" filterUnits="userSpaceOnUse" color-interpolation-filters="sRGB">
<feFlood flood-opacity="0" result="BackgroundImageFix"/>
<feColorMatrix in="SourceAlpha" type="matrix" values="0 0 0 0 0 0 0 0 0 0 0 0 0 0 0 0 0 0 127 0" result="hardAlpha"/>
<feMorphology radius="1" operator="erode" in="SourceAlpha" result="effect1_dropShadow_1196_168875"/>
<feOffset dy="1"/>
<feGaussianBlur stdDeviation="1.5"/>
<feComposite in2="hardAlpha" operator="out"/>
<feColorMatrix type="matrix" values="0 0 0 0 0 0 0 0 0 0 0 0 0 0 0 0 0 0 0.1 0"/>
<feBlend mode="normal" in2="BackgroundImageFix" result="effect1_dropShadow_1196_168875"/>
<feBlend mode="normal" in="SourceGraphic" in2="effect1_dropShadow_1196_168875" result="shape"/>
</filter>
<filter id="filter2_d_1196_168875" x="563" y="12" width="250" height="290" filterUnits="userSpaceOnUse" color-interpolation-filters="sRGB">
<feFlood flood-opacity="0" result="BackgroundImageFix"/>
<feColorMatrix in="SourceAlpha" type="matrix" values="0 0 0 0 0 0 0 0 0 0 0 0 0 0 0 0 0 0 127 0" result="hardAlpha"/>
<feMorphology radius="1" operator="erode" in="SourceAlpha" result="effect1_dropShadow_1196_168875"/>
<feOffset dy="4"/>
<feGaussianBlur stdDeviation="3"/>
<feComposite in2="hardAlpha" operator="out"/>
<feColorMatrix type="matrix" values="0 0 0 0 0 0 0 0 0 0 0 0 0 0 0 0 0 0 0.1 0"/>
<feBlend mode="normal" in2="BackgroundImageFix" result="effect1_dropShadow_1196_168875"/>
<feBlend mode="normal" in="SourceGraphic" in2="effect1_dropShadow_1196_168875" result="shape"/>
</filter>
<filter id="filter3_d_1196_168875" x="839" y="11" width="264" height="304" filterUnits="userSpaceOnUse" color-interpolation-filters="sRGB">
<feFlood flood-opacity="0" result="BackgroundImageFix"/>
<feColorMatrix in="SourceAlpha" type="matrix" values="0 0 0 0 0 0 0 0 0 0 0 0 0 0 0 0 0 0 127 0" result="hardAlpha"/>
<feMorphology radius="3" operator="erode" in="SourceAlpha" result="effect1_dropShadow_1196_168875"/>
<feOffset dy="10"/>
<feGaussianBlur stdDeviation="7.5"/>
<feComposite in2="hardAlpha" operator="out"/>
<feColorMatrix type="matrix" values="0 0 0 0 0 0 0 0 0 0 0 0 0 0 0 0 0 0 0.1 0"/>
<feBlend mode="normal" in2="BackgroundImageFix" result="effect1_dropShadow_1196_168875"/>
<feBlend mode="normal" in="SourceGraphic" in2="effect1_dropShadow_1196_168875" result="shape"/>
</filter>
<filter id="filter4_d_1196_168875" x="1114" y="13" width="280" height="320" filterUnits="userSpaceOnUse" color-interpolation-filters="sRGB">
<feFlood flood-opacity="0" result="BackgroundImageFix"/>
<feColorMatrix in="SourceAlpha" type="matrix" values="0 0 0 0 0 0 0 0 0 0 0 0 0 0 0 0 0 0 127 0" result="hardAlpha"/>
<feMorphology radius="5" operator="erode" in="SourceAlpha" result="effect1_dropShadow_1196_168875"/>
<feOffset dy="20"/>
<feGaussianBlur stdDeviation="12.5"/>
<feColorMatrix type="matrix" values="0 0 0 0 0 0 0 0 0 0 0 0 0 0 0 0 0 0 0.1 0"/>
<feBlend mode="normal" in2="BackgroundImageFix" result="effect1_dropShadow_1196_168875"/>
<feBlend mode="normal" in="SourceGraphic" in2="effect1_dropShadow_1196_168875" result="shape"/>
</filter>
<filter id="filter5_d_1196_168875" x="1379" y="0" width="316" height="356" filterUnits="userSpaceOnUse" color-interpolation-filters="sRGB">
<feFlood flood-opacity="0" result="BackgroundImageFix"/>
<feColorMatrix in="SourceAlpha" type="matrix" values="0 0 0 0 0 0 0 0 0 0 0 0 0 0 0 0 0 0 127 0" result="hardAlpha"/>
<feMorphology radius="12" operator="erode" in="SourceAlpha" result="effect1_dropShadow_1196_168875"/>
<feOffset dy="25"/>
<feGaussianBlur stdDeviation="25"/>
<feComposite in2="hardAlpha" operator="out"/>
<feColorMatrix type="matrix" values="0 0 0 0 0 0 0 0 0 0 0 0 0 0 0 0 0 0 0.25 0"/>
<feBlend mode="normal" in2="BackgroundImageFix" result="effect1_dropShadow_1196_168875"/>
<feBlend mode="normal" in="SourceGraphic" in2="effect1_dropShadow_1196_168875" result="shape"/>
</filter>
</defs>
</svg>
