<svg width="800" height="800" viewBox="0 0 800 800" fill="none" xmlns="http://www.w3.org/2000/svg">
<path fill-rule="evenodd" clip-rule="evenodd" d="M694.923 62.6252C655.87 23.5729 592.553 23.5727 553.5 62.6252L81.581 534.545C67.621 548.505 58.1054 566.285 54.2337 585.642L34.6647 683.489C25.3351 730.135 66.463 771.265 113.111 761.935L210.956 742.365C230.315 738.495 248.095 728.979 262.055 715.019L733.973 243.098C773.026 204.046 773.026 140.73 733.973 101.677L694.923 62.6252ZM600.64 109.765C613.66 96.7482 634.763 96.7482 647.783 109.765L686.833 148.818C699.853 161.835 699.853 182.94 686.833 195.958L597.78 285.011L511.59 198.818L600.64 109.765ZM464.446 245.959L128.721 581.685C124.068 586.339 120.896 592.265 119.606 598.719L100.037 696.562L197.881 676.992C204.334 675.702 210.261 672.532 214.914 667.879L550.64 332.151L464.446 245.959Z" fill="#0694A2"/>
</svg>
