<svg width="36" height="36" viewBox="0 0 36 36" fill="none" xmlns="http://www.w3.org/2000/svg">
<mask id="path-1-outside-1_1205_168911" maskUnits="userSpaceOnUse" x="1" y="1" width="34" height="34" fill="black">
<rect fill="white" x="1" y="1" width="34" height="34"/>
<path d="M18 3C26.2843 3 33 9.71573 33 18C33 26.2843 26.2843 33 18 33C9.71573 33 3 26.2843 3 18C3 9.71573 9.71573 3 18 3ZM18 7.99902C12.4774 7.99919 8.00019 12.4764 8 17.999C8 23.5218 12.4773 27.9989 18 27.999C23.5228 27.999 28 23.5219 28 17.999C27.9998 12.4763 23.5227 7.99902 18 7.99902Z"/>
</mask>
<path d="M18 3C26.2843 3 33 9.71573 33 18C33 26.2843 26.2843 33 18 33C9.71573 33 3 26.2843 3 18C3 9.71573 9.71573 3 18 3ZM18 7.99902C12.4774 7.99919 8.00019 12.4764 8 17.999C8 23.5218 12.4773 27.9989 18 27.999C23.5228 27.999 28 23.5219 28 17.999C27.9998 12.4763 23.5227 7.99902 18 7.99902Z" fill="#DEF7EC"/>
<path d="M18 7.99902L18 5.99902L17.9999 5.99902L18 7.99902ZM8 17.999L6 17.999V17.999H8ZM18 27.999L17.9999 29.999H18V27.999ZM28 17.999L30 17.999L30 17.999L28 17.999ZM18 3V5C25.1797 5 31 10.8203 31 18H33H35C35 8.61116 27.3888 1 18 1V3ZM33 18H31C31 25.1797 25.1797 31 18 31V33V35C27.3888 35 35 27.3888 35 18H33ZM18 33V31C10.8203 31 5 25.1797 5 18H3H1C1 27.3888 8.61116 35 18 35V33ZM3 18H5C5 10.8203 10.8203 5 18 5V3V1C8.61116 1 1 8.61116 1 18H3ZM18 7.99902L17.9999 5.99902C11.3728 5.99923 6.00022 11.3719 6 17.999L8 17.999L10 17.9991C10.0001 13.581 13.582 9.99916 18.0001 9.99902L18 7.99902ZM8 17.999H6C6 24.6264 11.3728 29.9988 17.9999 29.999L18 27.999L18.0001 25.999C13.5818 25.9989 10 22.4171 10 17.999H8ZM18 27.999V29.999C24.6274 29.999 30 24.6264 30 17.999H28H26C26 22.4173 22.4183 25.999 18 25.999V27.999ZM28 17.999L30 17.999C29.9998 11.3718 24.6274 5.99902 18 5.99902V7.99902V9.99902C22.4181 9.99902 25.9999 13.5809 26 17.9991L28 17.999Z" fill="#0694A2" mask="url(#path-1-outside-1_1205_168911)"/>
<circle cx="18" cy="18" r="4" fill="#DEF7EC" stroke="#0694A2" stroke-width="2"/>
</svg>
