<svg width="654" height="167" viewBox="0 0 654 167" fill="none" xmlns="http://www.w3.org/2000/svg">
<rect width="116" height="60" rx="8" fill="white"/>
<path d="M17.0232 29.96C17.0232 29.3533 17.1305 28.7607 17.3452 28.182C17.5599 27.594 17.8725 27.062 18.2832 26.586C18.7032 26.1007 19.2119 25.718 19.8092 25.438C20.4065 25.1487 21.0832 25.004 21.8392 25.004C22.7352 25.004 23.5099 25.2093 24.1632 25.62C24.8165 26.0213 25.3019 26.5393 25.6192 27.174L24.3872 28C24.2005 27.5987 23.9625 27.2813 23.6732 27.048C23.3932 26.8147 23.0852 26.6513 22.7492 26.558C22.4225 26.4647 22.1005 26.418 21.7832 26.418C21.2605 26.418 20.8032 26.5253 20.4112 26.74C20.0192 26.9453 19.6879 27.2207 19.4172 27.566C19.1559 27.9113 18.9552 28.2987 18.8152 28.728C18.6845 29.1573 18.6192 29.5867 18.6192 30.016C18.6192 30.492 18.6985 30.954 18.8572 31.402C19.0159 31.8407 19.2352 32.2327 19.5152 32.578C19.8045 32.914 20.1452 33.18 20.5372 33.376C20.9292 33.572 21.3585 33.67 21.8252 33.67C22.1425 33.67 22.4739 33.614 22.8192 33.502C23.1645 33.39 23.4819 33.2173 23.7712 32.984C24.0699 32.7413 24.3032 32.424 24.4712 32.032L25.7732 32.774C25.5679 33.2687 25.2459 33.6887 24.8072 34.034C24.3779 34.3793 23.8925 34.6407 23.3512 34.818C22.8192 34.9953 22.2919 35.084 21.7692 35.084C21.0692 35.084 20.4299 34.9393 19.8512 34.65C19.2725 34.3513 18.7732 33.9593 18.3532 33.474C17.9332 32.9793 17.6065 32.4287 17.3732 31.822C17.1399 31.206 17.0232 30.5853 17.0232 29.96ZM30.3038 35.14C29.7252 35.14 29.2072 35.042 28.7498 34.846C28.2925 34.6407 27.8958 34.3607 27.5598 34.006C27.2332 33.6513 26.9812 33.25 26.8038 32.802C26.6265 32.3447 26.5378 31.8593 26.5378 31.346C26.5378 30.8327 26.6265 30.3473 26.8038 29.89C26.9812 29.4327 27.2332 29.0313 27.5598 28.686C27.8958 28.3313 28.2925 28.056 28.7498 27.86C29.2165 27.6547 29.7345 27.552 30.3038 27.552C30.8732 27.552 31.3865 27.6547 31.8438 27.86C32.3105 28.056 32.7072 28.3313 33.0338 28.686C33.3698 29.0313 33.6265 29.4327 33.8038 29.89C33.9812 30.3473 34.0698 30.8327 34.0698 31.346C34.0698 31.8593 33.9812 32.3447 33.8038 32.802C33.6265 33.25 33.3698 33.6513 33.0338 34.006C32.7072 34.3607 32.3105 34.6407 31.8438 34.846C31.3865 35.042 30.8732 35.14 30.3038 35.14ZM28.1198 31.36C28.1198 31.8267 28.2178 32.2467 28.4138 32.62C28.6098 32.9933 28.8712 33.2873 29.1978 33.502C29.5245 33.7167 29.8932 33.824 30.3038 33.824C30.7052 33.824 31.0692 33.7167 31.3958 33.502C31.7318 33.278 31.9978 32.9793 32.1938 32.606C32.3898 32.2233 32.4878 31.8033 32.4878 31.346C32.4878 30.8793 32.3898 30.4593 32.1938 30.086C31.9978 29.7127 31.7318 29.4187 31.3958 29.204C31.0692 28.98 30.7052 28.868 30.3038 28.868C29.8932 28.868 29.5245 28.98 29.1978 29.204C28.8712 29.428 28.6098 29.7267 28.4138 30.1C28.2178 30.464 28.1198 30.884 28.1198 31.36ZM42.0017 35H40.4617V30.898C40.4617 30.2167 40.3497 29.7173 40.1257 29.4C39.9111 29.0827 39.5891 28.924 39.1597 28.924C38.8611 28.924 38.5624 28.9987 38.2637 29.148C37.9744 29.2973 37.7131 29.5027 37.4797 29.764C37.2464 30.016 37.0784 30.31 36.9757 30.646V35H35.4357V27.678H36.8357V29.148C37.0224 28.8213 37.2651 28.5413 37.5637 28.308C37.8717 28.0653 38.2171 27.8787 38.5997 27.748C38.9824 27.6173 39.3884 27.552 39.8177 27.552C40.2564 27.552 40.6157 27.6313 40.8957 27.79C41.1851 27.9487 41.4091 28.168 41.5677 28.448C41.7357 28.7187 41.8477 29.036 41.9037 29.4C41.9691 29.7547 42.0017 30.1327 42.0017 30.534V35ZM47.8085 34.622C47.6779 34.6873 47.5145 34.7573 47.3185 34.832C47.1225 34.9067 46.8985 34.972 46.6465 35.028C46.4039 35.084 46.1519 35.112 45.8905 35.112C45.5732 35.112 45.2792 35.056 45.0085 34.944C44.7379 34.832 44.5185 34.6547 44.3505 34.412C44.1919 34.16 44.1125 33.838 44.1125 33.446V28.868H43.1465V27.678H44.1125V25.27H45.6525V27.678H47.2485V28.868H45.6525V32.956C45.6712 33.208 45.7505 33.3947 45.8905 33.516C46.0399 33.6373 46.2219 33.698 46.4365 33.698C46.6512 33.698 46.8565 33.6607 47.0525 33.586C47.2485 33.5113 47.3932 33.4507 47.4865 33.404L47.8085 34.622ZM52.9912 29.008C52.3938 29.0173 51.8618 29.1527 51.3952 29.414C50.9378 29.6753 50.6112 30.044 50.4152 30.52V35H48.8752V27.678H50.3032V29.316C50.5552 28.812 50.8865 28.4107 51.2972 28.112C51.7078 27.804 52.1418 27.636 52.5992 27.608C52.6925 27.608 52.7672 27.608 52.8232 27.608C52.8885 27.608 52.9445 27.6127 52.9912 27.622V29.008ZM54.1115 35V27.678H55.6515V35H54.1115ZM54.1115 26.474V24.78H55.6515V26.474H54.1115ZM61.4501 35.14C60.8901 35.14 60.3815 35.0093 59.9241 34.748C59.4761 34.4773 59.1215 34.118 58.8601 33.67V35H57.5021V24.78H59.0421V29.064C59.3315 28.5973 59.6908 28.2287 60.1201 27.958C60.5588 27.6873 61.0721 27.552 61.6601 27.552C62.1455 27.552 62.5888 27.6547 62.9901 27.86C63.3915 28.0653 63.7321 28.3453 64.0121 28.7C64.3015 29.0547 64.5208 29.4607 64.6701 29.918C64.8288 30.3753 64.9081 30.8607 64.9081 31.374C64.9081 31.8873 64.8195 32.3727 64.6421 32.83C64.4741 33.2873 64.2315 33.6887 63.9141 34.034C63.5968 34.3793 63.2281 34.65 62.8081 34.846C62.3975 35.042 61.9448 35.14 61.4501 35.14ZM61.0441 33.824C61.3801 33.824 61.6881 33.7587 61.9681 33.628C62.2481 33.488 62.4908 33.306 62.6961 33.082C62.9015 32.858 63.0555 32.5967 63.1581 32.298C63.2701 31.9993 63.3261 31.6913 63.3261 31.374C63.3261 30.9353 63.2328 30.5247 63.0461 30.142C62.8688 29.7593 62.6168 29.4513 62.2901 29.218C61.9635 28.9847 61.5855 28.868 61.1561 28.868C60.8481 28.868 60.5588 28.9427 60.2881 29.092C60.0175 29.232 59.7748 29.4233 59.5601 29.666C59.3548 29.8993 59.1821 30.1607 59.0421 30.45V32.382C59.0981 32.5967 59.1961 32.7927 59.3361 32.97C59.4761 33.138 59.6395 33.2873 59.8261 33.418C60.0128 33.5393 60.2135 33.6373 60.4281 33.712C60.6428 33.7867 60.8481 33.824 61.0441 33.824ZM66.2231 32.158V27.678H67.7631V31.85C67.7631 32.5033 67.8798 32.998 68.1131 33.334C68.3558 33.6607 68.7058 33.824 69.1631 33.824C69.4525 33.824 69.7325 33.7633 70.0031 33.642C70.2831 33.5207 70.5351 33.3433 70.7591 33.11C70.9925 32.8673 71.1791 32.578 71.3191 32.242V27.678H72.8591V33.264C72.8591 33.4413 72.8918 33.5673 72.9571 33.642C73.0225 33.7167 73.1298 33.7587 73.2791 33.768V35C73.1205 35.028 72.9898 35.0467 72.8871 35.056C72.7845 35.0653 72.6865 35.07 72.5931 35.07C72.3131 35.07 72.0798 34.9953 71.8931 34.846C71.7065 34.6873 71.5991 34.4867 71.5711 34.244L71.5431 33.516C71.2165 34.048 70.7918 34.454 70.2691 34.734C69.7465 35.0047 69.1725 35.14 68.5471 35.14C67.7818 35.14 67.2031 34.888 66.8111 34.384C66.4191 33.88 66.2231 33.138 66.2231 32.158ZM78.8847 34.622C78.7541 34.6873 78.5907 34.7573 78.3947 34.832C78.1987 34.9067 77.9747 34.972 77.7227 35.028C77.4801 35.084 77.2281 35.112 76.9667 35.112C76.6494 35.112 76.3554 35.056 76.0847 34.944C75.8141 34.832 75.5947 34.6547 75.4267 34.412C75.2681 34.16 75.1887 33.838 75.1887 33.446V28.868H74.2227V27.678H75.1887V25.27H76.7287V27.678H78.3247V28.868H76.7287V32.956C76.7474 33.208 76.8267 33.3947 76.9667 33.516C77.1161 33.6373 77.2981 33.698 77.5127 33.698C77.7274 33.698 77.9327 33.6607 78.1287 33.586C78.3247 33.5113 78.4694 33.4507 78.5627 33.404L78.8847 34.622ZM83.1456 35.14C82.567 35.14 82.049 35.042 81.5916 34.846C81.1343 34.6407 80.7376 34.3607 80.4016 34.006C80.075 33.6513 79.823 33.25 79.6456 32.802C79.4683 32.3447 79.3796 31.8593 79.3796 31.346C79.3796 30.8327 79.4683 30.3473 79.6456 29.89C79.823 29.4327 80.075 29.0313 80.4016 28.686C80.7376 28.3313 81.1343 28.056 81.5916 27.86C82.0583 27.6547 82.5763 27.552 83.1456 27.552C83.715 27.552 84.2283 27.6547 84.6856 27.86C85.1523 28.056 85.549 28.3313 85.8756 28.686C86.2116 29.0313 86.4683 29.4327 86.6456 29.89C86.823 30.3473 86.9116 30.8327 86.9116 31.346C86.9116 31.8593 86.823 32.3447 86.6456 32.802C86.4683 33.25 86.2116 33.6513 85.8756 34.006C85.549 34.3607 85.1523 34.6407 84.6856 34.846C84.2283 35.042 83.715 35.14 83.1456 35.14ZM80.9616 31.36C80.9616 31.8267 81.0596 32.2467 81.2556 32.62C81.4516 32.9933 81.713 33.2873 82.0396 33.502C82.3663 33.7167 82.735 33.824 83.1456 33.824C83.547 33.824 83.911 33.7167 84.2376 33.502C84.5736 33.278 84.8396 32.9793 85.0356 32.606C85.2316 32.2233 85.3296 31.8033 85.3296 31.346C85.3296 30.8793 85.2316 30.4593 85.0356 30.086C84.8396 29.7127 84.5736 29.4187 84.2376 29.204C83.911 28.98 83.547 28.868 83.1456 28.868C82.735 28.868 82.3663 28.98 82.0396 29.204C81.713 29.428 81.4516 29.7267 81.2556 30.1C81.0596 30.464 80.9616 30.884 80.9616 31.36ZM92.3935 29.008C91.7962 29.0173 91.2642 29.1527 90.7975 29.414C90.3402 29.6753 90.0135 30.044 89.8175 30.52V35H88.2775V27.678H89.7055V29.316C89.9575 28.812 90.2888 28.4107 90.6995 28.112C91.1102 27.804 91.5442 27.636 92.0015 27.608C92.0948 27.608 92.1695 27.608 92.2255 27.608C92.2908 27.608 92.3468 27.6127 92.3935 27.622V29.008ZM96.1178 35.14C95.5018 35.14 94.9185 35.042 94.3678 34.846C93.8172 34.6407 93.3458 34.3373 92.9538 33.936L93.5278 32.9C93.9478 33.2733 94.3678 33.544 94.7878 33.712C95.2172 33.88 95.6418 33.964 96.0618 33.964C96.4912 33.964 96.8412 33.8847 97.1118 33.726C97.3825 33.558 97.5178 33.3153 97.5178 32.998C97.5178 32.7647 97.4478 32.592 97.3078 32.48C97.1678 32.368 96.9625 32.27 96.6918 32.186C96.4305 32.102 96.1132 32.0087 95.7398 31.906C95.2172 31.7473 94.7785 31.584 94.4238 31.416C94.0692 31.2387 93.8032 31.024 93.6258 30.772C93.4485 30.52 93.3598 30.198 93.3598 29.806C93.3598 29.33 93.4812 28.924 93.7238 28.588C93.9665 28.252 94.3025 27.9953 94.7318 27.818C95.1705 27.6407 95.6745 27.552 96.2438 27.552C96.7758 27.552 97.2658 27.636 97.7138 27.804C98.1712 27.9627 98.5725 28.2147 98.9178 28.56L98.2598 29.582C97.9332 29.2833 97.5972 29.064 97.2518 28.924C96.9158 28.784 96.5518 28.714 96.1598 28.714C95.9358 28.714 95.7212 28.742 95.5158 28.798C95.3105 28.8447 95.1378 28.938 94.9978 29.078C94.8672 29.2087 94.8018 29.3953 94.8018 29.638C94.8018 29.834 94.8578 29.9927 94.9698 30.114C95.0818 30.2353 95.2498 30.338 95.4738 30.422C95.6978 30.506 95.9732 30.5993 96.2998 30.702C96.8692 30.87 97.3545 31.038 97.7558 31.206C98.1572 31.3647 98.4652 31.5747 98.6798 31.836C98.9038 32.088 99.0158 32.438 99.0158 32.886C99.0158 33.5953 98.7498 34.1507 98.2178 34.552C97.6952 34.944 96.9952 35.14 96.1178 35.14Z" fill="#0694A2"/>
<rect x="186" width="133" height="60" rx="8" fill="white"/>
<path d="M217.594 29.96C217.594 29.3533 217.701 28.7607 217.916 28.182C218.13 27.594 218.443 27.062 218.854 26.586C219.274 26.1007 219.782 25.718 220.38 25.438C220.977 25.1487 221.654 25.004 222.41 25.004C223.306 25.004 224.08 25.2093 224.734 25.62C225.387 26.0213 225.872 26.5393 226.19 27.174L224.958 28C224.771 27.5987 224.533 27.2813 224.244 27.048C223.964 26.8147 223.656 26.6513 223.32 26.558C222.993 26.4647 222.671 26.418 222.354 26.418C221.831 26.418 221.374 26.5253 220.982 26.74C220.59 26.9453 220.258 27.2207 219.988 27.566C219.726 27.9113 219.526 28.2987 219.386 28.728C219.255 29.1573 219.19 29.5867 219.19 30.016C219.19 30.492 219.269 30.954 219.428 31.402C219.586 31.8407 219.806 32.2327 220.086 32.578C220.375 32.914 220.716 33.18 221.108 33.376C221.5 33.572 221.929 33.67 222.396 33.67C222.713 33.67 223.044 33.614 223.39 33.502C223.735 33.39 224.052 33.2173 224.342 32.984C224.64 32.7413 224.874 32.424 225.042 32.032L226.344 32.774C226.138 33.2687 225.816 33.6887 225.378 34.034C224.948 34.3793 224.463 34.6407 223.922 34.818C223.39 34.9953 222.862 35.084 222.34 35.084C221.64 35.084 221 34.9393 220.422 34.65C219.843 34.3513 219.344 33.9593 218.924 33.474C218.504 32.9793 218.177 32.4287 217.944 31.822C217.71 31.206 217.594 30.5853 217.594 29.96ZM230.874 35.14C230.295 35.14 229.777 35.042 229.32 34.846C228.863 34.6407 228.466 34.3607 228.13 34.006C227.803 33.6513 227.551 33.25 227.374 32.802C227.197 32.3447 227.108 31.8593 227.108 31.346C227.108 30.8327 227.197 30.3473 227.374 29.89C227.551 29.4327 227.803 29.0313 228.13 28.686C228.466 28.3313 228.863 28.056 229.32 27.86C229.787 27.6547 230.305 27.552 230.874 27.552C231.443 27.552 231.957 27.6547 232.414 27.86C232.881 28.056 233.277 28.3313 233.604 28.686C233.94 29.0313 234.197 29.4327 234.374 29.89C234.551 30.3473 234.64 30.8327 234.64 31.346C234.64 31.8593 234.551 32.3447 234.374 32.802C234.197 33.25 233.94 33.6513 233.604 34.006C233.277 34.3607 232.881 34.6407 232.414 34.846C231.957 35.042 231.443 35.14 230.874 35.14ZM228.69 31.36C228.69 31.8267 228.788 32.2467 228.984 32.62C229.18 32.9933 229.441 33.2873 229.768 33.502C230.095 33.7167 230.463 33.824 230.874 33.824C231.275 33.824 231.639 33.7167 231.966 33.502C232.302 33.278 232.568 32.9793 232.764 32.606C232.96 32.2233 233.058 31.8033 233.058 31.346C233.058 30.8793 232.96 30.4593 232.764 30.086C232.568 29.7127 232.302 29.4187 231.966 29.204C231.639 28.98 231.275 28.868 230.874 28.868C230.463 28.868 230.095 28.98 229.768 29.204C229.441 29.428 229.18 29.7267 228.984 30.1C228.788 30.464 228.69 30.884 228.69 31.36ZM240.122 29.008C239.525 29.0173 238.993 29.1527 238.526 29.414C238.069 29.6753 237.742 30.044 237.546 30.52V35H236.006V27.678H237.434V29.316C237.686 28.812 238.017 28.4107 238.428 28.112C238.839 27.804 239.273 27.636 239.73 27.608C239.823 27.608 239.898 27.608 239.954 27.608C240.019 27.608 240.075 27.6127 240.122 27.622V29.008ZM244.424 35.14C243.854 35.14 243.336 35.042 242.87 34.846C242.412 34.6407 242.016 34.3653 241.68 34.02C241.344 33.6653 241.082 33.264 240.896 32.816C240.718 32.3587 240.63 31.8733 240.63 31.36C240.63 30.6693 240.788 30.0393 241.106 29.47C241.423 28.8913 241.866 28.4293 242.436 28.084C243.005 27.7293 243.672 27.552 244.438 27.552C245.203 27.552 245.861 27.7293 246.412 28.084C246.972 28.4293 247.406 28.8867 247.714 29.456C248.022 30.0253 248.176 30.6367 248.176 31.29C248.176 31.402 248.171 31.5093 248.162 31.612C248.152 31.7053 248.143 31.7847 248.134 31.85H242.268C242.296 32.2793 242.412 32.6573 242.618 32.984C242.832 33.3013 243.103 33.5533 243.43 33.74C243.756 33.9173 244.106 34.006 244.48 34.006C244.89 34.006 245.278 33.9033 245.642 33.698C246.015 33.4927 246.267 33.222 246.398 32.886L247.714 33.264C247.555 33.6187 247.312 33.9407 246.986 34.23C246.668 34.51 246.29 34.734 245.852 34.902C245.413 35.0607 244.937 35.14 244.424 35.14ZM242.226 30.828H246.65C246.622 30.408 246.5 30.0393 246.286 29.722C246.08 29.3953 245.814 29.1433 245.488 28.966C245.17 28.7793 244.816 28.686 244.424 28.686C244.041 28.686 243.686 28.7793 243.36 28.966C243.042 29.1433 242.781 29.3953 242.576 29.722C242.37 30.0393 242.254 30.408 242.226 30.828ZM259.957 26.446H256.653V35H255.071V26.446H251.753V25.06H259.957V26.446ZM262.935 35.14C262.366 35.14 261.848 35.042 261.381 34.846C260.924 34.6407 260.527 34.3653 260.191 34.02C259.855 33.6653 259.594 33.264 259.407 32.816C259.23 32.3587 259.141 31.8733 259.141 31.36C259.141 30.6693 259.3 30.0393 259.617 29.47C259.935 28.8913 260.378 28.4293 260.947 28.084C261.517 27.7293 262.184 27.552 262.949 27.552C263.715 27.552 264.373 27.7293 264.923 28.084C265.483 28.4293 265.917 28.8867 266.225 29.456C266.533 30.0253 266.687 30.6367 266.687 31.29C266.687 31.402 266.683 31.5093 266.673 31.612C266.664 31.7053 266.655 31.7847 266.645 31.85H260.779C260.807 32.2793 260.924 32.6573 261.129 32.984C261.344 33.3013 261.615 33.5533 261.941 33.74C262.268 33.9173 262.618 34.006 262.991 34.006C263.402 34.006 263.789 33.9033 264.153 33.698C264.527 33.4927 264.779 33.222 264.909 32.886L266.225 33.264C266.067 33.6187 265.824 33.9407 265.497 34.23C265.18 34.51 264.802 34.734 264.363 34.902C263.925 35.0607 263.449 35.14 262.935 35.14ZM260.737 30.828H265.161C265.133 30.408 265.012 30.0393 264.797 29.722C264.592 29.3953 264.326 29.1433 263.999 28.966C263.682 28.7793 263.327 28.686 262.935 28.686C262.553 28.686 262.198 28.7793 261.871 28.966C261.554 29.1433 261.293 29.3953 261.087 29.722C260.882 30.0393 260.765 30.408 260.737 30.828ZM267.412 32.858C267.412 32.3913 267.542 31.9853 267.804 31.64C268.074 31.2853 268.443 31.0147 268.91 30.828C269.376 30.632 269.918 30.534 270.534 30.534C270.86 30.534 271.192 30.5573 271.528 30.604C271.873 30.6507 272.176 30.7253 272.438 30.828V30.366C272.438 29.8527 272.284 29.4513 271.976 29.162C271.668 28.8727 271.224 28.728 270.646 28.728C270.235 28.728 269.848 28.8027 269.484 28.952C269.12 29.092 268.732 29.2927 268.322 29.554L267.804 28.518C268.289 28.1913 268.774 27.9487 269.26 27.79C269.754 27.6313 270.272 27.552 270.814 27.552C271.794 27.552 272.564 27.8133 273.124 28.336C273.693 28.8493 273.978 29.582 273.978 30.534V33.264C273.978 33.4413 274.006 33.5673 274.062 33.642C274.127 33.7167 274.234 33.7587 274.384 33.768V35C274.244 35.028 274.118 35.0467 274.006 35.056C273.894 35.0653 273.8 35.07 273.726 35.07C273.399 35.07 273.152 34.9907 272.984 34.832C272.816 34.6733 272.718 34.4867 272.69 34.272L272.648 33.852C272.33 34.2627 271.924 34.58 271.43 34.804C270.935 35.028 270.436 35.14 269.932 35.14C269.446 35.14 269.012 35.042 268.63 34.846C268.247 34.6407 267.948 34.3653 267.734 34.02C267.519 33.6747 267.412 33.2873 267.412 32.858ZM272.074 33.306C272.186 33.1847 272.274 33.0633 272.34 32.942C272.405 32.8207 272.438 32.7133 272.438 32.62V31.78C272.176 31.6773 271.901 31.6027 271.612 31.556C271.322 31.5 271.038 31.472 270.758 31.472C270.198 31.472 269.74 31.584 269.386 31.808C269.04 32.032 268.868 32.34 268.868 32.732C268.868 32.9467 268.924 33.152 269.036 33.348C269.157 33.544 269.325 33.7027 269.54 33.824C269.764 33.9453 270.039 34.006 270.366 34.006C270.702 34.006 271.024 33.9407 271.332 33.81C271.64 33.6793 271.887 33.5113 272.074 33.306ZM287.046 35H285.506V30.898C285.506 30.2167 285.394 29.7173 285.17 29.4C284.946 29.0827 284.619 28.924 284.19 28.924C283.761 28.924 283.359 29.0873 282.986 29.414C282.622 29.7313 282.365 30.1467 282.216 30.66V35H280.676V30.898C280.676 30.2167 280.564 29.7173 280.34 29.4C280.116 29.0827 279.794 28.924 279.374 28.924C278.945 28.924 278.543 29.0827 278.17 29.4C277.806 29.7173 277.545 30.1327 277.386 30.646V35H275.846V27.678H277.246V29.148C277.535 28.6347 277.913 28.2427 278.38 27.972C278.856 27.692 279.397 27.552 280.004 27.552C280.611 27.552 281.087 27.7107 281.432 28.028C281.787 28.3453 282.006 28.742 282.09 29.218C282.407 28.6767 282.795 28.266 283.252 27.986C283.719 27.6967 284.251 27.552 284.848 27.552C285.277 27.552 285.637 27.6313 285.926 27.79C286.215 27.9487 286.439 28.168 286.598 28.448C286.757 28.7187 286.869 29.036 286.934 29.4C287.009 29.7547 287.046 30.1327 287.046 30.534V35Z" fill="#0694A2"/>
<rect x="385" width="98" height="60" rx="8" fill="white"/>
<path d="M408.624 35V25.06H412.95C413.398 25.06 413.809 25.1533 414.182 25.34C414.555 25.5267 414.877 25.774 415.148 26.082C415.428 26.39 415.643 26.7353 415.792 27.118C415.951 27.5007 416.03 27.8927 416.03 28.294C416.03 28.7327 415.951 29.1527 415.792 29.554C415.633 29.9553 415.405 30.3007 415.106 30.59C414.817 30.8793 414.476 31.0893 414.084 31.22L416.422 35H414.658L412.502 31.542H410.192V35H408.624ZM410.192 30.156H412.936C413.225 30.156 413.482 30.072 413.706 29.904C413.93 29.736 414.107 29.512 414.238 29.232C414.369 28.9427 414.434 28.63 414.434 28.294C414.434 27.9487 414.359 27.6407 414.21 27.37C414.061 27.09 413.865 26.866 413.622 26.698C413.389 26.53 413.132 26.446 412.852 26.446H410.192V30.156ZM420.769 35.14C420.2 35.14 419.682 35.042 419.215 34.846C418.758 34.6407 418.361 34.3653 418.025 34.02C417.689 33.6653 417.428 33.264 417.241 32.816C417.064 32.3587 416.975 31.8733 416.975 31.36C416.975 30.6693 417.134 30.0393 417.451 29.47C417.769 28.8913 418.212 28.4293 418.781 28.084C419.351 27.7293 420.018 27.552 420.783 27.552C421.549 27.552 422.207 27.7293 422.757 28.084C423.317 28.4293 423.751 28.8867 424.059 29.456C424.367 30.0253 424.521 30.6367 424.521 31.29C424.521 31.402 424.517 31.5093 424.507 31.612C424.498 31.7053 424.489 31.7847 424.479 31.85H418.613C418.641 32.2793 418.758 32.6573 418.963 32.984C419.178 33.3013 419.449 33.5533 419.775 33.74C420.102 33.9173 420.452 34.006 420.825 34.006C421.236 34.006 421.623 33.9033 421.987 33.698C422.361 33.4927 422.613 33.222 422.743 32.886L424.059 33.264C423.901 33.6187 423.658 33.9407 423.331 34.23C423.014 34.51 422.636 34.734 422.197 34.902C421.759 35.0607 421.283 35.14 420.769 35.14ZM418.571 30.828H422.995C422.967 30.408 422.846 30.0393 422.631 29.722C422.426 29.3953 422.16 29.1433 421.833 28.966C421.516 28.7793 421.161 28.686 420.769 28.686C420.387 28.686 420.032 28.7793 419.705 28.966C419.388 29.1433 419.127 29.3953 418.921 29.722C418.716 30.0393 418.599 30.408 418.571 30.828ZM425.792 24.78H427.332V32.886C427.332 33.2593 427.388 33.4973 427.5 33.6C427.612 33.7027 427.752 33.754 427.92 33.754C428.106 33.754 428.279 33.7353 428.438 33.698C428.606 33.6607 428.75 33.614 428.872 33.558L429.096 34.776C428.872 34.8693 428.606 34.9487 428.298 35.014C427.99 35.0793 427.714 35.112 427.472 35.112C426.949 35.112 426.538 34.9673 426.24 34.678C425.941 34.3793 425.792 33.9687 425.792 33.446V24.78ZM433.306 35.14C432.737 35.14 432.219 35.042 431.752 34.846C431.295 34.6407 430.898 34.3653 430.562 34.02C430.226 33.6653 429.965 33.264 429.778 32.816C429.601 32.3587 429.512 31.8733 429.512 31.36C429.512 30.6693 429.671 30.0393 429.988 29.47C430.306 28.8913 430.749 28.4293 431.318 28.084C431.888 27.7293 432.555 27.552 433.32 27.552C434.086 27.552 434.744 27.7293 435.294 28.084C435.854 28.4293 436.288 28.8867 436.596 29.456C436.904 30.0253 437.058 30.6367 437.058 31.29C437.058 31.402 437.054 31.5093 437.044 31.612C437.035 31.7053 437.026 31.7847 437.016 31.85H431.15C431.178 32.2793 431.295 32.6573 431.5 32.984C431.715 33.3013 431.986 33.5533 432.312 33.74C432.639 33.9173 432.989 34.006 433.362 34.006C433.773 34.006 434.16 33.9033 434.524 33.698C434.898 33.4927 435.15 33.222 435.28 32.886L436.596 33.264C436.438 33.6187 436.195 33.9407 435.868 34.23C435.551 34.51 435.173 34.734 434.734 34.902C434.296 35.0607 433.82 35.14 433.306 35.14ZM431.108 30.828H435.532C435.504 30.408 435.383 30.0393 435.168 29.722C434.963 29.3953 434.697 29.1433 434.37 28.966C434.053 28.7793 433.698 28.686 433.306 28.686C432.924 28.686 432.569 28.7793 432.242 28.966C431.925 29.1433 431.664 29.3953 431.458 29.722C431.253 30.0393 431.136 30.408 431.108 30.828ZM437.783 32.858C437.783 32.3913 437.913 31.9853 438.175 31.64C438.445 31.2853 438.814 31.0147 439.281 30.828C439.747 30.632 440.289 30.534 440.905 30.534C441.231 30.534 441.563 30.5573 441.899 30.604C442.244 30.6507 442.547 30.7253 442.809 30.828V30.366C442.809 29.8527 442.655 29.4513 442.347 29.162C442.039 28.8727 441.595 28.728 441.017 28.728C440.606 28.728 440.219 28.8027 439.855 28.952C439.491 29.092 439.103 29.2927 438.693 29.554L438.175 28.518C438.66 28.1913 439.145 27.9487 439.631 27.79C440.125 27.6313 440.643 27.552 441.185 27.552C442.165 27.552 442.935 27.8133 443.495 28.336C444.064 28.8493 444.349 29.582 444.349 30.534V33.264C444.349 33.4413 444.377 33.5673 444.433 33.642C444.498 33.7167 444.605 33.7587 444.755 33.768V35C444.615 35.028 444.489 35.0467 444.377 35.056C444.265 35.0653 444.171 35.07 444.097 35.07C443.77 35.07 443.523 34.9907 443.355 34.832C443.187 34.6733 443.089 34.4867 443.061 34.272L443.019 33.852C442.701 34.2627 442.295 34.58 441.801 34.804C441.306 35.028 440.807 35.14 440.303 35.14C439.817 35.14 439.383 35.042 439.001 34.846C438.618 34.6407 438.319 34.3653 438.105 34.02C437.89 33.6747 437.783 33.2873 437.783 32.858ZM442.445 33.306C442.557 33.1847 442.645 33.0633 442.711 32.942C442.776 32.8207 442.809 32.7133 442.809 32.62V31.78C442.547 31.6773 442.272 31.6027 441.983 31.556C441.693 31.5 441.409 31.472 441.129 31.472C440.569 31.472 440.111 31.584 439.757 31.808C439.411 32.032 439.239 32.34 439.239 32.732C439.239 32.9467 439.295 33.152 439.407 33.348C439.528 33.544 439.696 33.7027 439.911 33.824C440.135 33.9453 440.41 34.006 440.737 34.006C441.073 34.006 441.395 33.9407 441.703 33.81C442.011 33.6793 442.258 33.5113 442.445 33.306ZM448.821 35.14C448.205 35.14 447.622 35.042 447.071 34.846C446.52 34.6407 446.049 34.3373 445.657 33.936L446.231 32.9C446.651 33.2733 447.071 33.544 447.491 33.712C447.92 33.88 448.345 33.964 448.765 33.964C449.194 33.964 449.544 33.8847 449.815 33.726C450.086 33.558 450.221 33.3153 450.221 32.998C450.221 32.7647 450.151 32.592 450.011 32.48C449.871 32.368 449.666 32.27 449.395 32.186C449.134 32.102 448.816 32.0087 448.443 31.906C447.92 31.7473 447.482 31.584 447.127 31.416C446.772 31.2387 446.506 31.024 446.329 30.772C446.152 30.52 446.063 30.198 446.063 29.806C446.063 29.33 446.184 28.924 446.427 28.588C446.67 28.252 447.006 27.9953 447.435 27.818C447.874 27.6407 448.378 27.552 448.947 27.552C449.479 27.552 449.969 27.636 450.417 27.804C450.874 27.9627 451.276 28.2147 451.621 28.56L450.963 29.582C450.636 29.2833 450.3 29.064 449.955 28.924C449.619 28.784 449.255 28.714 448.863 28.714C448.639 28.714 448.424 28.742 448.219 28.798C448.014 28.8447 447.841 28.938 447.701 29.078C447.57 29.2087 447.505 29.3953 447.505 29.638C447.505 29.834 447.561 29.9927 447.673 30.114C447.785 30.2353 447.953 30.338 448.177 30.422C448.401 30.506 448.676 30.5993 449.003 30.702C449.572 30.87 450.058 31.038 450.459 31.206C450.86 31.3647 451.168 31.5747 451.383 31.836C451.607 32.088 451.719 32.438 451.719 32.886C451.719 33.5953 451.453 34.1507 450.921 34.552C450.398 34.944 449.698 35.14 448.821 35.14ZM456.412 35.14C455.843 35.14 455.325 35.042 454.858 34.846C454.401 34.6407 454.004 34.3653 453.668 34.02C453.332 33.6653 453.071 33.264 452.884 32.816C452.707 32.3587 452.618 31.8733 452.618 31.36C452.618 30.6693 452.777 30.0393 453.094 29.47C453.411 28.8913 453.855 28.4293 454.424 28.084C454.993 27.7293 455.661 27.552 456.426 27.552C457.191 27.552 457.849 27.7293 458.4 28.084C458.96 28.4293 459.394 28.8867 459.702 29.456C460.01 30.0253 460.164 30.6367 460.164 31.29C460.164 31.402 460.159 31.5093 460.15 31.612C460.141 31.7053 460.131 31.7847 460.122 31.85H454.256C454.284 32.2793 454.401 32.6573 454.606 32.984C454.821 33.3013 455.091 33.5533 455.418 33.74C455.745 33.9173 456.095 34.006 456.468 34.006C456.879 34.006 457.266 33.9033 457.63 33.698C458.003 33.4927 458.255 33.222 458.386 32.886L459.702 33.264C459.543 33.6187 459.301 33.9407 458.974 34.23C458.657 34.51 458.279 34.734 457.84 34.902C457.401 35.0607 456.925 35.14 456.412 35.14ZM454.214 30.828H458.638C458.61 30.408 458.489 30.0393 458.274 29.722C458.069 29.3953 457.803 29.1433 457.476 28.966C457.159 28.7793 456.804 28.686 456.412 28.686C456.029 28.686 455.675 28.7793 455.348 28.966C455.031 29.1433 454.769 29.3953 454.564 29.722C454.359 30.0393 454.242 30.408 454.214 30.828Z" fill="#0694A2"/>
<rect x="553" width="101" height="60" rx="8" fill="#0694A2"/>
<path d="M569.851 29.96C569.851 29.3533 569.959 28.7607 570.173 28.182C570.388 27.594 570.701 27.062 571.111 26.586C571.531 26.1007 572.04 25.718 572.637 25.438C573.235 25.1487 573.911 25.004 574.667 25.004C575.563 25.004 576.338 25.2093 576.991 25.62C577.645 26.0213 578.13 26.5393 578.447 27.174L577.215 28C577.029 27.5987 576.791 27.2813 576.501 27.048C576.221 26.8147 575.913 26.6513 575.577 26.558C575.251 26.4647 574.929 26.418 574.611 26.418C574.089 26.418 573.631 26.5253 573.239 26.74C572.847 26.9453 572.516 27.2207 572.245 27.566C571.984 27.9113 571.783 28.2987 571.643 28.728C571.513 29.1573 571.447 29.5867 571.447 30.016C571.447 30.492 571.527 30.954 571.685 31.402C571.844 31.8407 572.063 32.2327 572.343 32.578C572.633 32.914 572.973 33.18 573.365 33.376C573.757 33.572 574.187 33.67 574.653 33.67C574.971 33.67 575.302 33.614 575.647 33.502C575.993 33.39 576.31 33.2173 576.599 32.984C576.898 32.7413 577.131 32.424 577.299 32.032L578.601 32.774C578.396 33.2687 578.074 33.6887 577.635 34.034C577.206 34.3793 576.721 34.6407 576.179 34.818C575.647 34.9953 575.12 35.084 574.597 35.084C573.897 35.084 573.258 34.9393 572.679 34.65C572.101 34.3513 571.601 33.9593 571.181 33.474C570.761 32.9793 570.435 32.4287 570.201 31.822C569.968 31.206 569.851 30.5853 569.851 29.96ZM583.132 35.14C582.553 35.14 582.035 35.042 581.578 34.846C581.121 34.6407 580.724 34.3607 580.388 34.006C580.061 33.6513 579.809 33.25 579.632 32.802C579.455 32.3447 579.366 31.8593 579.366 31.346C579.366 30.8327 579.455 30.3473 579.632 29.89C579.809 29.4327 580.061 29.0313 580.388 28.686C580.724 28.3313 581.121 28.056 581.578 27.86C582.045 27.6547 582.563 27.552 583.132 27.552C583.701 27.552 584.215 27.6547 584.672 27.86C585.139 28.056 585.535 28.3313 585.862 28.686C586.198 29.0313 586.455 29.4327 586.632 29.89C586.809 30.3473 586.898 30.8327 586.898 31.346C586.898 31.8593 586.809 32.3447 586.632 32.802C586.455 33.25 586.198 33.6513 585.862 34.006C585.535 34.3607 585.139 34.6407 584.672 34.846C584.215 35.042 583.701 35.14 583.132 35.14ZM580.948 31.36C580.948 31.8267 581.046 32.2467 581.242 32.62C581.438 32.9933 581.699 33.2873 582.026 33.502C582.353 33.7167 582.721 33.824 583.132 33.824C583.533 33.824 583.897 33.7167 584.224 33.502C584.56 33.278 584.826 32.9793 585.022 32.606C585.218 32.2233 585.316 31.8033 585.316 31.346C585.316 30.8793 585.218 30.4593 585.022 30.086C584.826 29.7127 584.56 29.4187 584.224 29.204C583.897 28.98 583.533 28.868 583.132 28.868C582.721 28.868 582.353 28.98 582.026 29.204C581.699 29.428 581.438 29.7267 581.242 30.1C581.046 30.464 580.948 30.884 580.948 31.36ZM594.83 35H593.29V30.898C593.29 30.2167 593.178 29.7173 592.954 29.4C592.739 29.0827 592.417 28.924 591.988 28.924C591.689 28.924 591.391 28.9987 591.092 29.148C590.803 29.2973 590.541 29.5027 590.308 29.764C590.075 30.016 589.907 30.31 589.804 30.646V35H588.264V27.678H589.664V29.148C589.851 28.8213 590.093 28.5413 590.392 28.308C590.7 28.0653 591.045 27.8787 591.428 27.748C591.811 27.6173 592.217 27.552 592.646 27.552C593.085 27.552 593.444 27.6313 593.724 27.79C594.013 27.9487 594.237 28.168 594.396 28.448C594.564 28.7187 594.676 29.036 594.732 29.4C594.797 29.7547 594.83 30.1327 594.83 30.534V35ZM599.221 35.14C598.605 35.14 598.022 35.042 597.471 34.846C596.921 34.6407 596.449 34.3373 596.057 33.936L596.631 32.9C597.051 33.2733 597.471 33.544 597.891 33.712C598.321 33.88 598.745 33.964 599.165 33.964C599.595 33.964 599.945 33.8847 600.215 33.726C600.486 33.558 600.621 33.3153 600.621 32.998C600.621 32.7647 600.551 32.592 600.411 32.48C600.271 32.368 600.066 32.27 599.795 32.186C599.534 32.102 599.217 32.0087 598.843 31.906C598.321 31.7473 597.882 31.584 597.527 31.416C597.173 31.2387 596.907 31.024 596.729 30.772C596.552 30.52 596.463 30.198 596.463 29.806C596.463 29.33 596.585 28.924 596.827 28.588C597.07 28.252 597.406 27.9953 597.835 27.818C598.274 27.6407 598.778 27.552 599.347 27.552C599.879 27.552 600.369 27.636 600.817 27.804C601.275 27.9627 601.676 28.2147 602.021 28.56L601.363 29.582C601.037 29.2833 600.701 29.064 600.355 28.924C600.019 28.784 599.655 28.714 599.263 28.714C599.039 28.714 598.825 28.742 598.619 28.798C598.414 28.8447 598.241 28.938 598.101 29.078C597.971 29.2087 597.905 29.3953 597.905 29.638C597.905 29.834 597.961 29.9927 598.073 30.114C598.185 30.2353 598.353 30.338 598.577 30.422C598.801 30.506 599.077 30.5993 599.403 30.702C599.973 30.87 600.458 31.038 600.859 31.206C601.261 31.3647 601.569 31.5747 601.783 31.836C602.007 32.088 602.119 32.438 602.119 32.886C602.119 33.5953 601.853 34.1507 601.321 34.552C600.799 34.944 600.099 35.14 599.221 35.14ZM603.424 32.158V27.678H604.964V31.85C604.964 32.5033 605.081 32.998 605.314 33.334C605.557 33.6607 605.907 33.824 606.364 33.824C606.654 33.824 606.934 33.7633 607.204 33.642C607.484 33.5207 607.736 33.3433 607.96 33.11C608.194 32.8673 608.38 32.578 608.52 32.242V27.678H610.06V33.264C610.06 33.4413 610.093 33.5673 610.158 33.642C610.224 33.7167 610.331 33.7587 610.48 33.768V35C610.322 35.028 610.191 35.0467 610.088 35.056C609.986 35.0653 609.888 35.07 609.794 35.07C609.514 35.07 609.281 34.9953 609.094 34.846C608.908 34.6873 608.8 34.4867 608.772 34.244L608.744 33.516C608.418 34.048 607.993 34.454 607.47 34.734C606.948 35.0047 606.374 35.14 605.748 35.14C604.983 35.14 604.404 34.888 604.012 34.384C603.62 33.88 603.424 33.138 603.424 32.158ZM623.226 35H621.686V30.898C621.686 30.2167 621.574 29.7173 621.35 29.4C621.126 29.0827 620.799 28.924 620.37 28.924C619.94 28.924 619.539 29.0873 619.166 29.414C618.802 29.7313 618.545 30.1467 618.396 30.66V35H616.856V30.898C616.856 30.2167 616.744 29.7173 616.52 29.4C616.296 29.0827 615.974 28.924 615.554 28.924C615.124 28.924 614.723 29.0827 614.35 29.4C613.986 29.7173 613.724 30.1327 613.566 30.646V35H612.026V27.678H613.426V29.148C613.715 28.6347 614.093 28.2427 614.56 27.972C615.036 27.692 615.577 27.552 616.184 27.552C616.79 27.552 617.266 27.7107 617.612 28.028C617.966 28.3453 618.186 28.742 618.27 29.218C618.587 28.6767 618.974 28.266 619.432 27.986C619.898 27.6967 620.43 27.552 621.028 27.552C621.457 27.552 621.816 27.6313 622.106 27.79C622.395 27.9487 622.619 28.168 622.778 28.448C622.936 28.7187 623.048 29.036 623.114 29.4C623.188 29.7547 623.226 30.1327 623.226 30.534V35ZM628.318 35.14C627.749 35.14 627.231 35.042 626.764 34.846C626.307 34.6407 625.91 34.3653 625.574 34.02C625.238 33.6653 624.977 33.264 624.79 32.816C624.613 32.3587 624.524 31.8733 624.524 31.36C624.524 30.6693 624.683 30.0393 625 29.47C625.318 28.8913 625.761 28.4293 626.33 28.084C626.9 27.7293 627.567 27.552 628.332 27.552C629.098 27.552 629.756 27.7293 630.306 28.084C630.866 28.4293 631.3 28.8867 631.608 29.456C631.916 30.0253 632.07 30.6367 632.07 31.29C632.07 31.402 632.066 31.5093 632.056 31.612C632.047 31.7053 632.038 31.7847 632.028 31.85H626.162C626.19 32.2793 626.307 32.6573 626.512 32.984C626.727 33.3013 626.998 33.5533 627.324 33.74C627.651 33.9173 628.001 34.006 628.374 34.006C628.785 34.006 629.172 33.9033 629.536 33.698C629.91 33.4927 630.162 33.222 630.292 32.886L631.608 33.264C631.45 33.6187 631.207 33.9407 630.88 34.23C630.563 34.51 630.185 34.734 629.746 34.902C629.308 35.0607 628.832 35.14 628.318 35.14ZM626.12 30.828H630.544C630.516 30.408 630.395 30.0393 630.18 29.722C629.975 29.3953 629.709 29.1433 629.382 28.966C629.065 28.7793 628.71 28.686 628.318 28.686C627.936 28.686 627.581 28.7793 627.254 28.966C626.937 29.1433 626.676 29.3953 626.47 29.722C626.265 30.0393 626.148 30.408 626.12 30.828ZM637.442 29.008C636.845 29.0173 636.313 29.1527 635.846 29.414C635.389 29.6753 635.062 30.044 634.866 30.52V35H633.326V27.678H634.754V29.316C635.006 28.812 635.338 28.4107 635.748 28.112C636.159 27.804 636.593 27.636 637.05 27.608C637.144 27.608 637.218 27.608 637.274 27.608C637.34 27.608 637.396 27.6127 637.442 27.622V29.008Z" fill="white"/>
<path d="M150.878 161V146.8H160.198V148.04H152.278V153.26H158.958V154.42H152.278V161H150.878ZM166.211 161.2C165.464 161.2 164.771 161.06 164.131 160.78C163.491 160.487 162.938 160.093 162.471 159.6C162.004 159.093 161.638 158.513 161.371 157.86C161.118 157.207 160.991 156.507 160.991 155.76C160.991 154.787 161.211 153.893 161.651 153.08C162.104 152.267 162.724 151.62 163.511 151.14C164.298 150.647 165.191 150.4 166.191 150.4C167.218 150.4 168.111 150.647 168.871 151.14C169.644 151.633 170.251 152.287 170.691 153.1C171.131 153.9 171.351 154.78 171.351 155.74C171.351 155.847 171.351 155.953 171.351 156.06C171.351 156.153 171.344 156.227 171.331 156.28H162.411C162.478 157.027 162.684 157.693 163.031 158.28C163.391 158.853 163.851 159.313 164.411 159.66C164.984 159.993 165.604 160.16 166.271 160.16C166.951 160.16 167.591 159.987 168.191 159.64C168.804 159.293 169.231 158.84 169.471 158.28L170.651 158.6C170.438 159.093 170.111 159.54 169.671 159.94C169.231 160.34 168.711 160.653 168.111 160.88C167.524 161.093 166.891 161.2 166.211 161.2ZM162.371 155.3H170.071C170.018 154.54 169.811 153.873 169.451 153.3C169.104 152.727 168.644 152.28 168.071 151.96C167.511 151.627 166.891 151.46 166.211 151.46C165.531 151.46 164.911 151.627 164.351 151.96C163.791 152.28 163.331 152.733 162.971 153.32C162.624 153.893 162.424 154.553 162.371 155.3ZM177.949 161.2C177.203 161.2 176.509 161.06 175.869 160.78C175.229 160.487 174.676 160.093 174.209 159.6C173.743 159.093 173.376 158.513 173.109 157.86C172.856 157.207 172.729 156.507 172.729 155.76C172.729 154.787 172.949 153.893 173.389 153.08C173.843 152.267 174.463 151.62 175.249 151.14C176.036 150.647 176.929 150.4 177.929 150.4C178.956 150.4 179.849 150.647 180.609 151.14C181.383 151.633 181.989 152.287 182.429 153.1C182.869 153.9 183.089 154.78 183.089 155.74C183.089 155.847 183.089 155.953 183.089 156.06C183.089 156.153 183.083 156.227 183.069 156.28H174.149C174.216 157.027 174.423 157.693 174.769 158.28C175.129 158.853 175.589 159.313 176.149 159.66C176.723 159.993 177.343 160.16 178.009 160.16C178.689 160.16 179.329 159.987 179.929 159.64C180.543 159.293 180.969 158.84 181.209 158.28L182.389 158.6C182.176 159.093 181.849 159.54 181.409 159.94C180.969 160.34 180.449 160.653 179.849 160.88C179.263 161.093 178.629 161.2 177.949 161.2ZM174.109 155.3H181.809C181.756 154.54 181.549 153.873 181.189 153.3C180.843 152.727 180.383 152.28 179.809 151.96C179.249 151.627 178.629 151.46 177.949 151.46C177.269 151.46 176.649 151.627 176.089 151.96C175.529 152.28 175.069 152.733 174.709 153.32C174.363 153.893 174.163 154.553 174.109 155.3ZM184.488 155.82C184.488 154.833 184.688 153.933 185.088 153.12C185.501 152.293 186.068 151.633 186.788 151.14C187.508 150.647 188.328 150.4 189.248 150.4C190.114 150.4 190.888 150.633 191.568 151.1C192.261 151.553 192.801 152.107 193.188 152.76V146.4H194.548V159.36C194.548 159.547 194.588 159.687 194.668 159.78C194.748 159.86 194.868 159.907 195.028 159.92V161C194.761 161.04 194.554 161.053 194.408 161.04C194.128 161.027 193.881 160.913 193.668 160.7C193.454 160.487 193.348 160.253 193.348 160V158.98C192.934 159.66 192.374 160.2 191.668 160.6C190.961 161 190.228 161.2 189.468 161.2C188.748 161.2 188.081 161.053 187.468 160.76C186.868 160.467 186.341 160.067 185.888 159.56C185.448 159.053 185.101 158.48 184.848 157.84C184.608 157.187 184.488 156.513 184.488 155.82ZM193.188 157.42V154.2C193.014 153.72 192.734 153.287 192.348 152.9C191.961 152.5 191.521 152.187 191.028 151.96C190.548 151.72 190.068 151.6 189.588 151.6C189.028 151.6 188.521 151.72 188.068 151.96C187.614 152.187 187.221 152.5 186.888 152.9C186.568 153.3 186.321 153.753 186.148 154.26C185.974 154.767 185.888 155.287 185.888 155.82C185.888 156.38 185.981 156.913 186.168 157.42C186.368 157.927 186.648 158.38 187.008 158.78C187.368 159.167 187.781 159.467 188.248 159.68C188.714 159.893 189.221 160 189.768 160C190.114 160 190.474 159.933 190.848 159.8C191.221 159.667 191.574 159.487 191.908 159.26C192.254 159.02 192.541 158.74 192.768 158.42C192.994 158.1 193.134 157.767 193.188 157.42ZM202.729 161.2C201.916 161.2 201.162 160.993 200.469 160.58C199.776 160.153 199.236 159.62 198.849 158.98V161H197.629V146.4H198.989V152.76C199.456 152.053 200.016 151.487 200.669 151.06C201.322 150.62 202.082 150.4 202.949 150.4C203.682 150.4 204.336 150.553 204.909 150.86C205.496 151.167 205.996 151.58 206.409 152.1C206.822 152.607 207.136 153.187 207.349 153.84C207.562 154.48 207.669 155.14 207.669 155.82C207.669 156.553 207.542 157.24 207.289 157.88C207.049 158.52 206.702 159.093 206.249 159.6C205.796 160.093 205.269 160.487 204.669 160.78C204.082 161.06 203.436 161.2 202.729 161.2ZM202.409 160C202.969 160 203.489 159.887 203.969 159.66C204.449 159.433 204.862 159.12 205.209 158.72C205.556 158.32 205.822 157.873 206.009 157.38C206.196 156.873 206.289 156.353 206.289 155.82C206.289 155.087 206.129 154.4 205.809 153.76C205.502 153.107 205.069 152.587 204.509 152.2C203.962 151.8 203.316 151.6 202.569 151.6C202.036 151.6 201.536 151.72 201.069 151.96C200.616 152.2 200.209 152.52 199.849 152.92C199.502 153.307 199.216 153.733 198.989 154.2V157.44C199.042 157.8 199.182 158.14 199.409 158.46C199.636 158.767 199.916 159.033 200.249 159.26C200.596 159.487 200.956 159.667 201.329 159.8C201.702 159.933 202.062 160 202.409 160ZM209.133 158C209.133 157.347 209.319 156.787 209.693 156.32C210.066 155.84 210.579 155.473 211.233 155.22C211.899 154.953 212.666 154.82 213.533 154.82C214.039 154.82 214.566 154.86 215.113 154.94C215.659 155.02 216.146 155.14 216.573 155.3V154.42C216.573 153.54 216.313 152.84 215.793 152.32C215.273 151.8 214.553 151.54 213.633 151.54C213.073 151.54 212.519 151.647 211.973 151.86C211.439 152.06 210.879 152.36 210.293 152.76L209.773 151.8C210.453 151.333 211.119 150.987 211.773 150.76C212.426 150.52 213.093 150.4 213.773 150.4C215.053 150.4 216.066 150.767 216.813 151.5C217.559 152.233 217.933 153.247 217.933 154.54V159.36C217.933 159.547 217.973 159.687 218.053 159.78C218.133 159.86 218.259 159.907 218.433 159.92V161C218.286 161.013 218.159 161.027 218.053 161.04C217.946 161.053 217.866 161.053 217.813 161.04C217.479 161.027 217.226 160.92 217.053 160.72C216.879 160.52 216.786 160.307 216.773 160.08L216.753 159.32C216.286 159.92 215.679 160.387 214.933 160.72C214.186 161.04 213.426 161.2 212.653 161.2C211.986 161.2 211.379 161.06 210.833 160.78C210.299 160.487 209.879 160.1 209.573 159.62C209.279 159.127 209.133 158.587 209.133 158ZM216.113 158.8C216.259 158.613 216.373 158.433 216.453 158.26C216.533 158.087 216.573 157.933 216.573 157.8V156.28C216.119 156.107 215.646 155.973 215.153 155.88C214.673 155.787 214.186 155.74 213.693 155.74C212.719 155.74 211.933 155.933 211.333 156.32C210.733 156.707 210.433 157.233 210.433 157.9C210.433 158.287 210.533 158.653 210.733 159C210.933 159.333 211.226 159.613 211.613 159.84C211.999 160.053 212.453 160.16 212.973 160.16C213.626 160.16 214.233 160.033 214.793 159.78C215.366 159.527 215.806 159.2 216.113 158.8ZM225.391 161.2C224.631 161.2 223.931 161.06 223.291 160.78C222.664 160.487 222.111 160.087 221.631 159.58C221.164 159.073 220.798 158.493 220.531 157.84C220.278 157.187 220.151 156.493 220.151 155.76C220.151 154.773 220.371 153.873 220.811 153.06C221.251 152.247 221.864 151.6 222.651 151.12C223.438 150.64 224.344 150.4 225.371 150.4C226.344 150.4 227.204 150.627 227.951 151.08C228.698 151.52 229.251 152.12 229.611 152.88L228.291 153.3C227.998 152.767 227.584 152.353 227.051 152.06C226.531 151.753 225.951 151.6 225.311 151.6C224.618 151.6 223.984 151.78 223.411 152.14C222.838 152.5 222.378 152.993 222.031 153.62C221.698 154.247 221.531 154.96 221.531 155.76C221.531 156.547 221.704 157.26 222.051 157.9C222.398 158.54 222.858 159.053 223.431 159.44C224.004 159.813 224.638 160 225.331 160C225.784 160 226.218 159.92 226.631 159.76C227.058 159.6 227.424 159.387 227.731 159.12C228.051 158.84 228.264 158.54 228.371 158.22L229.711 158.62C229.524 159.113 229.211 159.56 228.771 159.96C228.344 160.347 227.838 160.653 227.251 160.88C226.678 161.093 226.058 161.2 225.391 161.2ZM239.288 161L235.428 155.66L233.208 157.74V161H231.848V146.4H233.208V156.28L239.108 150.6H240.608L236.348 154.86L240.768 161H239.288ZM257.571 146.8L248.131 161H246.591L256.031 146.8H257.571ZM264.999 161V146.8H270.879C271.492 146.8 272.052 146.927 272.559 147.18C273.079 147.433 273.525 147.78 273.899 148.22C274.272 148.647 274.565 149.127 274.779 149.66C274.992 150.18 275.099 150.713 275.099 151.26C275.099 152.033 274.925 152.767 274.579 153.46C274.245 154.14 273.772 154.693 273.159 155.12C272.545 155.547 271.825 155.76 270.999 155.76H266.399V161H264.999ZM266.399 154.52H270.939C271.499 154.52 271.985 154.367 272.399 154.06C272.812 153.753 273.132 153.353 273.359 152.86C273.585 152.367 273.699 151.833 273.699 151.26C273.699 150.673 273.565 150.133 273.299 149.64C273.032 149.147 272.679 148.76 272.239 148.48C271.812 148.187 271.339 148.04 270.819 148.04H266.399V154.52ZM282.36 151.78C281.453 151.807 280.653 152.06 279.96 152.54C279.28 153.02 278.8 153.68 278.52 154.52V161H277.16V150.58H278.44V153.08C278.8 152.347 279.273 151.753 279.86 151.3C280.46 150.847 281.093 150.593 281.76 150.54C281.893 150.527 282.007 150.52 282.1 150.52C282.207 150.52 282.293 150.527 282.36 150.54V151.78ZM288.28 161.2C287.533 161.2 286.84 161.06 286.2 160.78C285.573 160.487 285.027 160.093 284.56 159.6C284.107 159.093 283.753 158.52 283.5 157.88C283.247 157.227 283.12 156.54 283.12 155.82C283.12 155.073 283.247 154.38 283.5 153.74C283.753 153.087 284.113 152.513 284.58 152.02C285.047 151.513 285.593 151.12 286.22 150.84C286.86 150.547 287.553 150.4 288.3 150.4C289.047 150.4 289.733 150.547 290.36 150.84C290.987 151.12 291.533 151.513 292 152.02C292.467 152.513 292.827 153.087 293.08 153.74C293.333 154.38 293.46 155.073 293.46 155.82C293.46 156.54 293.333 157.227 293.08 157.88C292.827 158.52 292.467 159.093 292 159.6C291.547 160.093 291 160.487 290.36 160.78C289.733 161.06 289.04 161.2 288.28 161.2ZM284.5 155.84C284.5 156.613 284.667 157.32 285 157.96C285.347 158.587 285.807 159.087 286.38 159.46C286.953 159.82 287.587 160 288.28 160C288.973 160 289.607 159.813 290.18 159.44C290.753 159.067 291.213 158.56 291.56 157.92C291.907 157.267 292.08 156.56 292.08 155.8C292.08 155.027 291.907 154.32 291.56 153.68C291.213 153.04 290.753 152.533 290.18 152.16C289.607 151.787 288.973 151.6 288.28 151.6C287.587 151.6 286.953 151.793 286.38 152.18C285.82 152.567 285.367 153.08 285.02 153.72C284.673 154.347 284.5 155.053 284.5 155.84ZM301.054 161.2C300.188 161.2 299.408 160.973 298.714 160.52C298.034 160.067 297.494 159.507 297.094 158.84V165.26H295.734V150.58H296.954V152.6C297.368 151.947 297.921 151.42 298.614 151.02C299.308 150.607 300.048 150.4 300.834 150.4C301.554 150.4 302.214 150.553 302.814 150.86C303.414 151.153 303.934 151.553 304.374 152.06C304.814 152.567 305.154 153.147 305.394 153.8C305.648 154.44 305.774 155.107 305.774 155.8C305.774 156.773 305.574 157.673 305.174 158.5C304.788 159.313 304.241 159.967 303.534 160.46C302.828 160.953 302.001 161.2 301.054 161.2ZM300.674 160C301.248 160 301.761 159.887 302.214 159.66C302.668 159.42 303.054 159.1 303.374 158.7C303.708 158.3 303.961 157.853 304.134 157.36C304.308 156.853 304.394 156.333 304.394 155.8C304.394 155.24 304.294 154.707 304.094 154.2C303.908 153.693 303.634 153.247 303.274 152.86C302.914 152.473 302.501 152.167 302.034 151.94C301.568 151.713 301.061 151.6 300.514 151.6C300.168 151.6 299.808 151.667 299.434 151.8C299.061 151.933 298.701 152.127 298.354 152.38C298.021 152.62 297.741 152.893 297.514 153.2C297.288 153.507 297.148 153.833 297.094 154.18V157.38C297.308 157.873 297.594 158.32 297.954 158.72C298.314 159.107 298.728 159.42 299.194 159.66C299.674 159.887 300.168 160 300.674 160ZM312.518 161.2C311.771 161.2 311.078 161.06 310.438 160.78C309.811 160.487 309.265 160.093 308.798 159.6C308.345 159.093 307.991 158.52 307.738 157.88C307.485 157.227 307.358 156.54 307.358 155.82C307.358 155.073 307.485 154.38 307.738 153.74C307.991 153.087 308.351 152.513 308.818 152.02C309.285 151.513 309.831 151.12 310.458 150.84C311.098 150.547 311.791 150.4 312.538 150.4C313.285 150.4 313.971 150.547 314.598 150.84C315.225 151.12 315.771 151.513 316.238 152.02C316.705 152.513 317.065 153.087 317.318 153.74C317.571 154.38 317.698 155.073 317.698 155.82C317.698 156.54 317.571 157.227 317.318 157.88C317.065 158.52 316.705 159.093 316.238 159.6C315.785 160.093 315.238 160.487 314.598 160.78C313.971 161.06 313.278 161.2 312.518 161.2ZM308.738 155.84C308.738 156.613 308.905 157.32 309.238 157.96C309.585 158.587 310.045 159.087 310.618 159.46C311.191 159.82 311.825 160 312.518 160C313.211 160 313.845 159.813 314.418 159.44C314.991 159.067 315.451 158.56 315.798 157.92C316.145 157.267 316.318 156.56 316.318 155.8C316.318 155.027 316.145 154.32 315.798 153.68C315.451 153.04 314.991 152.533 314.418 152.16C313.845 151.787 313.211 151.6 312.518 151.6C311.825 151.6 311.191 151.793 310.618 152.18C310.058 152.567 309.605 153.08 309.258 153.72C308.911 154.347 308.738 155.053 308.738 155.84ZM323.393 161.2C322.539 161.2 321.746 161.06 321.013 160.78C320.279 160.5 319.646 160.073 319.113 159.5L319.673 158.54C320.259 159.087 320.846 159.487 321.433 159.74C322.033 159.98 322.666 160.1 323.333 160.1C324.146 160.1 324.806 159.94 325.313 159.62C325.819 159.287 326.073 158.813 326.073 158.2C326.073 157.787 325.946 157.473 325.693 157.26C325.453 157.033 325.099 156.853 324.633 156.72C324.179 156.573 323.633 156.42 322.993 156.26C322.273 156.06 321.666 155.853 321.173 155.64C320.693 155.413 320.326 155.133 320.073 154.8C319.833 154.453 319.713 154.007 319.713 153.46C319.713 152.78 319.879 152.22 320.213 151.78C320.559 151.327 321.026 150.987 321.613 150.76C322.213 150.52 322.879 150.4 323.613 150.4C324.413 150.4 325.119 150.527 325.733 150.78C326.346 151.033 326.846 151.387 327.233 151.84L326.573 152.76C326.199 152.333 325.753 152.02 325.233 151.82C324.726 151.607 324.159 151.5 323.533 151.5C323.106 151.5 322.699 151.56 322.313 151.68C321.926 151.787 321.606 151.973 321.353 152.24C321.113 152.493 320.993 152.847 320.993 153.3C320.993 153.673 321.086 153.967 321.273 154.18C321.459 154.38 321.739 154.553 322.113 154.7C322.486 154.833 322.946 154.98 323.493 155.14C324.279 155.353 324.966 155.573 325.553 155.8C326.139 156.013 326.593 156.293 326.913 156.64C327.233 156.987 327.393 157.473 327.393 158.1C327.393 159.073 327.026 159.833 326.293 160.38C325.559 160.927 324.593 161.2 323.393 161.2ZM328.801 158C328.801 157.347 328.987 156.787 329.361 156.32C329.734 155.84 330.247 155.473 330.901 155.22C331.567 154.953 332.334 154.82 333.201 154.82C333.707 154.82 334.234 154.86 334.781 154.94C335.327 155.02 335.814 155.14 336.241 155.3V154.42C336.241 153.54 335.981 152.84 335.461 152.32C334.941 151.8 334.221 151.54 333.301 151.54C332.741 151.54 332.187 151.647 331.641 151.86C331.107 152.06 330.547 152.36 329.961 152.76L329.441 151.8C330.121 151.333 330.787 150.987 331.441 150.76C332.094 150.52 332.761 150.4 333.441 150.4C334.721 150.4 335.734 150.767 336.481 151.5C337.227 152.233 337.601 153.247 337.601 154.54V159.36C337.601 159.547 337.641 159.687 337.721 159.78C337.801 159.86 337.927 159.907 338.101 159.92V161C337.954 161.013 337.827 161.027 337.721 161.04C337.614 161.053 337.534 161.053 337.481 161.04C337.147 161.027 336.894 160.92 336.721 160.72C336.547 160.52 336.454 160.307 336.441 160.08L336.421 159.32C335.954 159.92 335.347 160.387 334.601 160.72C333.854 161.04 333.094 161.2 332.321 161.2C331.654 161.2 331.047 161.06 330.501 160.78C329.967 160.487 329.547 160.1 329.241 159.62C328.947 159.127 328.801 158.587 328.801 158ZM335.781 158.8C335.927 158.613 336.041 158.433 336.121 158.26C336.201 158.087 336.241 157.933 336.241 157.8V156.28C335.787 156.107 335.314 155.973 334.821 155.88C334.341 155.787 333.854 155.74 333.361 155.74C332.387 155.74 331.601 155.933 331.001 156.32C330.401 156.707 330.101 157.233 330.101 157.9C330.101 158.287 330.201 158.653 330.401 159C330.601 159.333 330.894 159.613 331.281 159.84C331.667 160.053 332.121 160.16 332.641 160.16C333.294 160.16 333.901 160.033 334.461 159.78C335.034 159.527 335.474 159.2 335.781 158.8ZM340.599 146.4H341.959V158.64C341.959 159.16 342.052 159.5 342.239 159.66C342.426 159.82 342.652 159.9 342.919 159.9C343.159 159.9 343.399 159.873 343.639 159.82C343.879 159.767 344.086 159.713 344.259 159.66L344.499 160.76C344.246 160.867 343.932 160.953 343.559 161.02C343.199 161.087 342.886 161.12 342.619 161.12C342.006 161.12 341.512 160.94 341.139 160.58C340.779 160.22 340.599 159.727 340.599 159.1V146.4ZM349.408 161.2C348.555 161.2 347.762 161.06 347.028 160.78C346.295 160.5 345.662 160.073 345.128 159.5L345.688 158.54C346.275 159.087 346.862 159.487 347.448 159.74C348.048 159.98 348.682 160.1 349.348 160.1C350.162 160.1 350.822 159.94 351.328 159.62C351.835 159.287 352.088 158.813 352.088 158.2C352.088 157.787 351.962 157.473 351.708 157.26C351.468 157.033 351.115 156.853 350.648 156.72C350.195 156.573 349.648 156.42 349.008 156.26C348.288 156.06 347.682 155.853 347.188 155.64C346.708 155.413 346.342 155.133 346.088 154.8C345.848 154.453 345.728 154.007 345.728 153.46C345.728 152.78 345.895 152.22 346.228 151.78C346.575 151.327 347.042 150.987 347.628 150.76C348.228 150.52 348.895 150.4 349.628 150.4C350.428 150.4 351.135 150.527 351.748 150.78C352.362 151.033 352.862 151.387 353.248 151.84L352.588 152.76C352.215 152.333 351.768 152.02 351.248 151.82C350.742 151.607 350.175 151.5 349.548 151.5C349.122 151.5 348.715 151.56 348.328 151.68C347.942 151.787 347.622 151.973 347.368 152.24C347.128 152.493 347.008 152.847 347.008 153.3C347.008 153.673 347.102 153.967 347.288 154.18C347.475 154.38 347.755 154.553 348.128 154.7C348.502 154.833 348.962 154.98 349.508 155.14C350.295 155.353 350.982 155.573 351.568 155.8C352.155 156.013 352.608 156.293 352.928 156.64C353.248 156.987 353.408 157.473 353.408 158.1C353.408 159.073 353.042 159.833 352.308 160.38C351.575 160.927 350.608 161.2 349.408 161.2ZM370.774 146.8L361.334 161H359.794L369.234 146.8H370.774ZM378.202 161V146.8H379.602V161H378.202ZM386.205 161.2C385.352 161.2 384.558 161.06 383.825 160.78C383.092 160.5 382.458 160.073 381.925 159.5L382.485 158.54C383.072 159.087 383.658 159.487 384.245 159.74C384.845 159.98 385.478 160.1 386.145 160.1C386.958 160.1 387.618 159.94 388.125 159.62C388.632 159.287 388.885 158.813 388.885 158.2C388.885 157.787 388.758 157.473 388.505 157.26C388.265 157.033 387.912 156.853 387.445 156.72C386.992 156.573 386.445 156.42 385.805 156.26C385.085 156.06 384.478 155.853 383.985 155.64C383.505 155.413 383.138 155.133 382.885 154.8C382.645 154.453 382.525 154.007 382.525 153.46C382.525 152.78 382.692 152.22 383.025 151.78C383.372 151.327 383.838 150.987 384.425 150.76C385.025 150.52 385.692 150.4 386.425 150.4C387.225 150.4 387.932 150.527 388.545 150.78C389.158 151.033 389.658 151.387 390.045 151.84L389.385 152.76C389.012 152.333 388.565 152.02 388.045 151.82C387.538 151.607 386.972 151.5 386.345 151.5C385.918 151.5 385.512 151.56 385.125 151.68C384.738 151.787 384.418 151.973 384.165 152.24C383.925 152.493 383.805 152.847 383.805 153.3C383.805 153.673 383.898 153.967 384.085 154.18C384.272 154.38 384.552 154.553 384.925 154.7C385.298 154.833 385.758 154.98 386.305 155.14C387.092 155.353 387.778 155.573 388.365 155.8C388.952 156.013 389.405 156.293 389.725 156.64C390.045 156.987 390.205 157.473 390.205 158.1C390.205 159.073 389.838 159.833 389.105 160.38C388.372 160.927 387.405 161.2 386.205 161.2ZM395.873 161.2C395.02 161.2 394.226 161.06 393.493 160.78C392.76 160.5 392.126 160.073 391.593 159.5L392.153 158.54C392.74 159.087 393.326 159.487 393.913 159.74C394.513 159.98 395.146 160.1 395.813 160.1C396.626 160.1 397.286 159.94 397.793 159.62C398.3 159.287 398.553 158.813 398.553 158.2C398.553 157.787 398.426 157.473 398.173 157.26C397.933 157.033 397.58 156.853 397.113 156.72C396.66 156.573 396.113 156.42 395.473 156.26C394.753 156.06 394.146 155.853 393.653 155.64C393.173 155.413 392.806 155.133 392.553 154.8C392.313 154.453 392.193 154.007 392.193 153.46C392.193 152.78 392.36 152.22 392.693 151.78C393.04 151.327 393.506 150.987 394.093 150.76C394.693 150.52 395.36 150.4 396.093 150.4C396.893 150.4 397.6 150.527 398.213 150.78C398.826 151.033 399.326 151.387 399.713 151.84L399.053 152.76C398.68 152.333 398.233 152.02 397.713 151.82C397.206 151.607 396.64 151.5 396.013 151.5C395.586 151.5 395.18 151.56 394.793 151.68C394.406 151.787 394.086 151.973 393.833 152.24C393.593 152.493 393.473 152.847 393.473 153.3C393.473 153.673 393.566 153.967 393.753 154.18C393.94 154.38 394.22 154.553 394.593 154.7C394.966 154.833 395.426 154.98 395.973 155.14C396.76 155.353 397.446 155.573 398.033 155.8C398.62 156.013 399.073 156.293 399.393 156.64C399.713 156.987 399.873 157.473 399.873 158.1C399.873 159.073 399.506 159.833 398.773 160.38C398.04 160.927 397.073 161.2 395.873 161.2ZM402.021 156.7V150.58H403.381V156.46C403.381 157.647 403.581 158.533 403.981 159.12C404.394 159.707 405.001 160 405.801 160C406.334 160 406.848 159.887 407.341 159.66C407.848 159.42 408.294 159.087 408.681 158.66C409.068 158.22 409.361 157.713 409.561 157.14V150.58H410.921V159.36C410.921 159.547 410.961 159.687 411.041 159.78C411.121 159.86 411.241 159.907 411.401 159.92V161C411.241 161.013 411.114 161.02 411.021 161.02C410.928 161.033 410.841 161.04 410.761 161.04C410.494 161.013 410.261 160.907 410.061 160.72C409.874 160.533 409.774 160.307 409.761 160.04L409.721 158.64C409.268 159.44 408.648 160.067 407.861 160.52C407.088 160.973 406.248 161.2 405.341 161.2C404.248 161.2 403.421 160.82 402.861 160.06C402.301 159.3 402.021 158.18 402.021 156.7ZM418.496 161.2C417.749 161.2 417.056 161.06 416.416 160.78C415.776 160.487 415.223 160.093 414.756 159.6C414.289 159.093 413.923 158.513 413.656 157.86C413.403 157.207 413.276 156.507 413.276 155.76C413.276 154.787 413.496 153.893 413.936 153.08C414.389 152.267 415.009 151.62 415.796 151.14C416.583 150.647 417.476 150.4 418.476 150.4C419.503 150.4 420.396 150.647 421.156 151.14C421.929 151.633 422.536 152.287 422.976 153.1C423.416 153.9 423.636 154.78 423.636 155.74C423.636 155.847 423.636 155.953 423.636 156.06C423.636 156.153 423.629 156.227 423.616 156.28H414.696C414.763 157.027 414.969 157.693 415.316 158.28C415.676 158.853 416.136 159.313 416.696 159.66C417.269 159.993 417.889 160.16 418.556 160.16C419.236 160.16 419.876 159.987 420.476 159.64C421.089 159.293 421.516 158.84 421.756 158.28L422.936 158.6C422.723 159.093 422.396 159.54 421.956 159.94C421.516 160.34 420.996 160.653 420.396 160.88C419.809 161.093 419.176 161.2 418.496 161.2ZM414.656 155.3H422.356C422.303 154.54 422.096 153.873 421.736 153.3C421.389 152.727 420.929 152.28 420.356 151.96C419.796 151.627 419.176 151.46 418.496 151.46C417.816 151.46 417.196 151.627 416.636 151.96C416.076 152.28 415.616 152.733 415.256 153.32C414.909 153.893 414.709 154.553 414.656 155.3ZM429.154 161.2C428.301 161.2 427.508 161.06 426.774 160.78C426.041 160.5 425.408 160.073 424.874 159.5L425.434 158.54C426.021 159.087 426.608 159.487 427.194 159.74C427.794 159.98 428.428 160.1 429.094 160.1C429.908 160.1 430.568 159.94 431.074 159.62C431.581 159.287 431.834 158.813 431.834 158.2C431.834 157.787 431.708 157.473 431.454 157.26C431.214 157.033 430.861 156.853 430.394 156.72C429.941 156.573 429.394 156.42 428.754 156.26C428.034 156.06 427.428 155.853 426.934 155.64C426.454 155.413 426.088 155.133 425.834 154.8C425.594 154.453 425.474 154.007 425.474 153.46C425.474 152.78 425.641 152.22 425.974 151.78C426.321 151.327 426.788 150.987 427.374 150.76C427.974 150.52 428.641 150.4 429.374 150.4C430.174 150.4 430.881 150.527 431.494 150.78C432.108 151.033 432.608 151.387 432.994 151.84L432.334 152.76C431.961 152.333 431.514 152.02 430.994 151.82C430.488 151.607 429.921 151.5 429.294 151.5C428.868 151.5 428.461 151.56 428.074 151.68C427.688 151.787 427.368 151.973 427.114 152.24C426.874 152.493 426.754 152.847 426.754 153.3C426.754 153.673 426.848 153.967 427.034 154.18C427.221 154.38 427.501 154.553 427.874 154.7C428.248 154.833 428.708 154.98 429.254 155.14C430.041 155.353 430.728 155.573 431.314 155.8C431.901 156.013 432.354 156.293 432.674 156.64C432.994 156.987 433.154 157.473 433.154 158.1C433.154 159.073 432.788 159.833 432.054 160.38C431.321 160.927 430.354 161.2 429.154 161.2Z" fill="#0694A2"/>
<path d="M605 60V138.5" stroke="#0694A2" stroke-width="2" stroke-dasharray="5 5"/>
<path d="M425 68V130.5" stroke="#0694A2" stroke-width="2" stroke-dasharray="5 5"/>
<path d="M253 68V130.5" stroke="#0694A2" stroke-width="2" stroke-dasharray="5 5"/>
<path d="M54.5 68.5L48.7265 78.5L60.2735 78.5L54.5 68.5ZM589 154L589 155H589L589 154ZM601 150L601.707 150.707L601.707 150.707L601 150ZM54.5 77.5L53.5 77.5L53.5 137H54.5L55.5 137L55.5 77.5L54.5 77.5ZM71.5 154L71.5 155L139.5 155L139.5 154L139.5 153L71.5 153L71.5 154ZM445 154L445 155L589 155L589 154L589 153L445 153L445 154ZM589 154C589 155 589 155 589.001 155C589.001 155 589.001 155 589.001 155C589.002 155 589.003 155 589.003 155C589.005 155 589.007 155 589.01 155C589.015 155 589.022 155 589.031 155C589.049 155 589.075 154.999 589.107 154.999C589.172 154.998 589.266 154.996 589.386 154.992C589.625 154.983 589.967 154.967 590.389 154.935C591.231 154.87 592.398 154.74 593.696 154.481C596.255 153.969 599.495 152.92 601.707 150.707L601 150L600.293 149.293C598.505 151.08 595.745 152.031 593.304 152.519C592.102 152.76 591.019 152.88 590.236 152.94C589.845 152.971 589.531 152.985 589.317 152.993C589.21 152.996 589.128 152.998 589.074 152.999C589.048 153 589.028 153 589.015 153C589.009 153 589.004 153 589.002 153C589.001 153 589 153 588.999 153C588.999 153 588.999 153 588.999 153C588.999 153 589 153 589 153C589 153 589 153 589 154ZM601 150L601.707 150.707C604.161 148.253 605.217 145.024 605.672 142.489C605.901 141.212 605.983 140.083 606.007 139.272C606.02 138.866 606.018 138.538 606.012 138.308C606.01 138.193 606.006 138.103 606.003 138.04C606.002 138.008 606.001 137.983 606 137.965C605.999 137.956 605.999 137.949 605.998 137.944C605.998 137.941 605.998 137.939 605.998 137.937C605.998 137.936 605.998 137.936 605.998 137.935C605.998 137.935 605.998 137.934 605.998 137.934C605.998 137.934 605.998 137.933 605 138C604.002 138.067 604.002 138.066 604.002 138.066C604.002 138.066 604.002 138.066 604.002 138.066C604.002 138.065 604.002 138.065 604.002 138.065C604.002 138.065 604.002 138.066 604.002 138.067C604.002 138.069 604.003 138.073 604.003 138.078C604.003 138.089 604.004 138.107 604.006 138.131C604.008 138.18 604.011 138.255 604.013 138.354C604.017 138.552 604.019 138.845 604.008 139.212C603.986 139.948 603.911 140.976 603.703 142.136C603.283 144.476 602.339 147.247 600.293 149.293L601 150ZM54.5 137H53.5C53.5 146.941 61.5589 155 71.5 155L71.5 154L71.5 153C62.6634 153 55.5 145.837 55.5 137L54.5 137Z" fill="#0694A2"/>
<path d="M176 27.5L166 21.7265V33.2735L176 27.5ZM122.5 27.5V28.5H167V27.5V26.5H122.5V27.5Z" fill="#0694A2"/>
<path d="M380.5 30L370.5 24.2265V35.7735L380.5 30ZM327 30V31H371.5V30V29H327V30Z" fill="#0694A2"/>
<path d="M541.5 30L531.5 24.2265V35.7735L541.5 30ZM488 30V31H532.5V30V29H488V30Z" fill="#0694A2"/>
</svg>
