<svg width="40" height="40" viewBox="0 0 40 40" fill="none" xmlns="http://www.w3.org/2000/svg">
<path d="M20 3C24.9706 3 29 7.02944 29 12C29 16.9706 24.9706 21 20 21C15.0294 21 11 16.9706 11 12C11 7.02944 15.0294 3 20 3Z" fill="#DEF7EC"/>
<circle cx="20" cy="12" r="5" fill="#0694A2"/>
<path d="M10 19C14.9706 19 19 23.0294 19 28C19 32.9706 14.9706 37 10 37C5.02944 37 1 32.9706 1 28C1 23.0294 5.02944 19 10 19Z" fill="#DEF7EC"/>
<circle cx="10" cy="28" r="5" fill="#0694A2"/>
<circle cx="14" cy="21" r="2" fill="#0694A2"/>
<circle cx="16" cy="19" r="2" fill="#0694A2"/>
<path d="M30 19C34.9706 19 39 23.0294 39 28C39 32.9706 34.9706 37 30 37C25.0294 37 21 32.9706 21 28C21 23.0294 25.0294 19 30 19Z" fill="#DEF7EC"/>
<circle cx="30" cy="28" r="5" fill="#0694A2"/>
<circle cx="25" cy="19" r="2" fill="#0694A2"/>
<circle cx="27" cy="21" r="2" fill="#0694A2"/>
<circle cx="18" cy="29" r="2" fill="#0694A2"/>
<circle cx="21" cy="29" r="2" fill="#0694A2"/>
</svg>
