<svg width="40" height="40" viewBox="0 0 40 40" fill="none" xmlns="http://www.w3.org/2000/svg">
<ellipse cx="20" cy="6.5" rx="3" ry="3.5" fill="#0694A2"/>
<circle cx="32.5" cy="6.5" r="3.5" fill="#0694A2"/>
<ellipse cx="26" cy="7" rx="2" ry="1" fill="#0694A2"/>
<path d="M6.5498 14.5547C9.61508 14.5547 12.1006 17.0402 12.1006 20.1055C12.1005 23.1706 9.61501 25.6553 6.5498 25.6553C3.48477 25.6551 1.00012 23.1705 1 20.1055C1 17.0403 3.4847 14.5549 6.5498 14.5547Z" fill="#DEF7EC"/>
<path d="M6.5498 28.125C9.61507 28.125 12.1006 30.6095 12.1006 33.6748C12.1006 36.7401 9.61508 39.2246 6.5498 39.2246C3.4847 39.2244 1 36.74 1 33.6748C1.00002 30.6097 3.48471 28.1252 6.5498 28.125Z" fill="#DEF7EC"/>
<path d="M20.1172 14.5547C23.1823 14.5549 25.667 17.0403 25.667 20.1055C25.6669 23.1705 23.1822 25.6551 20.1172 25.6553C17.052 25.6553 14.5665 23.1706 14.5664 20.1055C14.5664 17.0402 17.0519 14.5547 20.1172 14.5547Z" fill="#DEF7EC"/>
<path d="M20.1172 28.125C23.1823 28.1252 25.667 30.6097 25.667 33.6748C25.667 36.74 23.1823 39.2244 20.1172 39.2246C17.0519 39.2246 14.5664 36.7401 14.5664 33.6748C14.5664 30.6095 17.0519 28.125 20.1172 28.125Z" fill="#DEF7EC"/>
<path d="M32.4502 14.5547C35.5155 14.5547 38 17.0402 38 20.1055C37.9999 23.1706 35.5154 25.6553 32.4502 25.6553C29.385 25.6553 26.9005 23.1706 26.9004 20.1055C26.9004 17.0402 29.3849 14.5547 32.4502 14.5547Z" fill="#DEF7EC"/>
<path d="M32.4502 28.125C35.5154 28.125 38 30.6096 38 33.6748C38 36.7401 35.5155 39.2246 32.4502 39.2246C29.3849 39.2246 26.9004 36.7401 26.9004 33.6748C26.9004 30.6095 29.3849 28.125 32.4502 28.125Z" fill="#DEF7EC"/>
<ellipse cx="6.5" cy="20" rx="3.5" ry="3" fill="#0694A2"/>
<ellipse cx="6.5" cy="34" rx="3.5" ry="3" fill="#0694A2"/>
<circle cx="20" cy="20" r="3" fill="#0694A2"/>
<circle cx="20" cy="34" r="3" fill="#0694A2"/>
<ellipse cx="32.5" cy="20" rx="3.5" ry="3" fill="#0694A2"/>
<ellipse cx="32.5" cy="34" rx="3.5" ry="3" fill="#0694A2"/>
<circle cx="26" cy="20" r="2" fill="#0694A2"/>
<circle cx="26" cy="34" r="2" fill="#0694A2"/>
<circle cx="14" cy="20" r="2" fill="#0694A2"/>
<circle cx="14" cy="34" r="2" fill="#0694A2"/>
<ellipse cx="20" cy="27" rx="2" ry="2" transform="rotate(-90 20 27)" fill="#0694A2"/>
<ellipse cx="7" cy="27" rx="2" ry="2" transform="rotate(-90 7 27)" fill="#0694A2"/>
<ellipse cx="33" cy="27" rx="2" ry="2" transform="rotate(-90 33 27)" fill="#0694A2"/>
<path d="M6.5498 1C9.61496 1 12.1004 3.4847 12.1006 6.5498C12.1006 9.61508 9.61508 12.1006 6.5498 12.1006C3.4847 12.1004 1 9.61496 1 6.5498C1.0002 3.48482 3.48482 1.0002 6.5498 1Z" fill="#DEF7EC"/>
<path d="M20.1172 1C23.1822 1.00019 25.6668 3.48482 25.667 6.5498C25.667 9.61496 23.1823 12.1004 20.1172 12.1006C17.0519 12.1006 14.5664 9.61508 14.5664 6.5498C14.5666 3.4847 17.052 1 20.1172 1Z" fill="#DEF7EC"/>
<path d="M32.4502 1C35.5153 1.00001 37.9998 3.48471 38 6.5498C38 9.61507 35.5155 12.1006 32.4502 12.1006C29.3849 12.1006 26.9004 9.61508 26.9004 6.5498C26.9006 3.4847 29.385 1 32.4502 1Z" fill="#DEF7EC"/>
<circle cx="6.5" cy="6.5" r="3.5" fill="#0694A2"/>
<ellipse cx="20" cy="6.5" rx="3" ry="3.5" fill="#0694A2"/>
<circle cx="32.5" cy="6.5" r="3.5" fill="#0694A2"/>
<ellipse cx="26" cy="7" rx="2" ry="2" transform="rotate(-90 26 7)" fill="#0694A2"/>
<ellipse cx="13" cy="7" rx="2" ry="2" transform="rotate(-90 13 7)" fill="#0694A2"/>
<ellipse cx="32.5" cy="13.5" rx="1.5" ry="1.5" transform="rotate(-90 32.5 13.5)" fill="#0694A2"/>
<ellipse cx="20" cy="13" rx="2" ry="2" transform="rotate(-90 20 13)" fill="#0694A2"/>
<ellipse cx="7" cy="14" rx="2" ry="2" transform="rotate(-90 7 14)" fill="#0694A2"/>
</svg>
