<svg width="800" height="800" viewBox="0 0 800 800" fill="none" xmlns="http://www.w3.org/2000/svg">
<path d="M243.334 419.998L336.667 699.998C337.747 702.418 339.297 704.599 341.226 706.415C343.156 708.23 345.428 709.645 347.909 710.575C350.39 711.505 353.031 711.934 355.679 711.834C358.327 711.735 360.929 711.111 363.334 709.998L396.667 693.331C410.703 686.029 422.471 675.024 430.698 661.509C438.924 647.995 443.294 632.486 443.334 616.664V486.664H656.667C666.738 486.481 676.637 484.018 685.62 479.46C694.603 474.902 702.436 468.368 708.531 460.348C714.626 452.328 718.824 443.031 720.811 433.156C722.797 423.281 722.52 413.084 720 403.331L653.334 136.665C649.693 122.554 641.529 110.025 630.091 100.995C618.653 91.9641 604.571 86.9306 590 86.6641H143.334C125.653 86.6641 108.696 93.6879 96.1932 106.191C83.6908 118.693 76.667 135.65 76.667 153.331V353.331C76.667 371.012 83.6908 387.969 96.1932 400.472C108.696 412.974 125.653 419.998 143.334 419.998H243.334ZM243.334 419.998V86.6641" stroke="#0694A2" stroke-width="66.6667" stroke-linecap="round" stroke-linejoin="round"/>
</svg>
