<svg width="800" height="800" viewBox="0 0 800 800" fill="none" xmlns="http://www.w3.org/2000/svg">
<path d="M243.333 379.999L336.667 99.999C337.746 97.5791 339.296 95.398 341.226 93.5822C343.156 91.7664 345.427 90.3522 347.908 89.4218C350.389 88.4914 353.03 88.0633 355.678 88.1624C358.326 88.2615 360.929 88.8858 363.333 89.999L396.665 106.666C410.701 113.968 422.471 124.973 430.697 138.487C438.924 152.002 443.294 167.511 443.333 183.332V313.332H656.667C666.738 313.516 676.637 315.979 685.62 320.537C694.602 325.095 702.435 331.629 708.53 339.649C714.625 347.669 718.824 356.965 720.81 366.841C722.797 376.716 722.52 386.913 720 396.666L653.333 663.332C649.692 677.443 641.528 689.972 630.09 699.002C618.652 708.032 604.57 713.066 590 713.332H143.333C125.652 713.332 108.695 706.309 96.1922 693.806C83.6898 681.304 76.666 664.347 76.666 646.666V446.666C76.666 428.985 83.6898 412.028 96.1922 399.525C108.695 387.023 125.652 379.999 143.333 379.999H243.333ZM243.333 379.999V713.332" stroke="#0694A2" stroke-width="66.6667" stroke-linecap="round" stroke-linejoin="round"/>
</svg>
