<svg width="262" height="42" viewBox="0 0 262 42" fill="none" xmlns="http://www.w3.org/2000/svg">
<rect width="42" height="42" rx="8" fill="#E5E7EB"/>
<path d="M17.2119 18.616C17.1372 18.5413 16.9985 18.44 16.7959 18.312C16.6039 18.184 16.3639 18.0613 16.0759 17.944C15.7985 17.8267 15.4945 17.7253 15.1639 17.64C14.8332 17.544 14.4972 17.496 14.1559 17.496C13.5585 17.496 13.1052 17.608 12.7959 17.832C12.4972 18.056 12.3479 18.3707 12.3479 18.776C12.3479 19.0853 12.4439 19.3307 12.6359 19.512C12.8279 19.6933 13.1159 19.848 13.4999 19.976C13.8839 20.104 14.3639 20.2427 14.9399 20.392C15.6865 20.5733 16.3319 20.7973 16.8759 21.064C17.4305 21.32 17.8519 21.6613 18.1399 22.088C18.4385 22.504 18.5879 23.0587 18.5879 23.752C18.5879 24.36 18.4759 24.8827 18.2519 25.32C18.0279 25.7467 17.7185 26.0933 17.3239 26.36C16.9292 26.6267 16.4812 26.824 15.9799 26.952C15.4785 27.0693 14.9452 27.128 14.3799 27.128C13.8145 27.128 13.2492 27.0693 12.6839 26.952C12.1185 26.8347 11.5745 26.6693 11.0519 26.456C10.5292 26.232 10.0492 25.9653 9.61188 25.656L10.5879 23.752C10.6839 23.848 10.8545 23.976 11.0999 24.136C11.3452 24.2853 11.6439 24.44 11.9959 24.6C12.3479 24.7493 12.7319 24.8773 13.1479 24.984C13.5639 25.0907 13.9852 25.144 14.4119 25.144C15.0092 25.144 15.4625 25.0427 15.7719 24.84C16.0812 24.6373 16.2359 24.3493 16.2359 23.976C16.2359 23.6347 16.1132 23.368 15.8679 23.176C15.6225 22.984 15.2812 22.8187 14.8439 22.68C14.4065 22.5307 13.8892 22.3707 13.2919 22.2C12.5772 21.9973 11.9799 21.7733 11.4999 21.528C11.0199 21.272 10.6625 20.952 10.4279 20.568C10.1932 20.184 10.0759 19.704 10.0759 19.128C10.0759 18.3493 10.2572 17.6987 10.6199 17.176C10.9932 16.6427 11.4945 16.2427 12.1239 15.976C12.7532 15.6987 13.4519 15.56 14.2199 15.56C14.7532 15.56 15.2545 15.6187 15.7239 15.736C16.2039 15.8533 16.6519 16.008 17.0679 16.2C17.4839 16.392 17.8572 16.6 18.1879 16.824L17.2119 18.616ZM29.3444 27V19.544L26.4324 25.096H25.2004L22.2884 19.544V27H20.0804V15.64H22.4484L25.8084 22.104L29.2004 15.64H31.5524V27H29.3444Z" fill="black"/>
<rect x="55" width="42" height="42" rx="8" fill="#E5E7EB"/>
<path d="M79.5261 27V19.544L76.6141 25.096H75.3821L72.4701 19.544V27H70.2621V15.64H72.6301L75.9901 22.104L79.3821 15.64H81.7341V27H79.5261Z" fill="black"/>
<rect x="110" width="42" height="42" rx="8" fill="#E5E7EB"/>
<path d="M127.512 27V15.64H129.72V25.064H135.512V27H127.512Z" fill="black"/>
<rect x="165" width="42" height="42" rx="8" fill="#E5E7EB"/>
<path d="M178.612 15.64L181.428 19.832L184.228 15.64H186.628L182.692 21.4L186.5 27H184.1L181.428 22.968L178.74 27H176.324L180.132 21.4L176.196 15.64H178.612ZM187.596 27V15.64H189.804V25.064H195.596V27H187.596Z" fill="black"/>
<rect x="220" width="42" height="42" rx="8" fill="#E5E7EB"/>
<path d="M228.528 15.64L231.344 19.832L234.144 15.64H236.544L232.608 21.4L236.416 27H234.016L231.344 22.968L228.656 27H226.24L230.048 21.4L226.112 15.64H228.528ZM238.696 15.64L241.512 19.832L244.312 15.64H246.712L242.776 21.4L246.584 27H244.184L241.512 22.968L238.824 27H236.408L240.216 21.4L236.28 15.64H238.696ZM247.68 27V15.64H249.888V25.064H255.68V27H247.68Z" fill="black"/>
</svg>
