<svg width="800" height="800" viewBox="0 0 800 800" fill="none" xmlns="http://www.w3.org/2000/svg">
<path d="M400 66.6641C557.134 66.6641 635.704 66.6641 684.517 115.48C733.334 164.295 733.334 242.863 733.334 399.998C733.334 557.131 733.334 635.701 684.517 684.514C635.704 733.331 557.134 733.331 400 733.331C242.865 733.331 164.298 733.331 115.483 684.514C66.667 635.701 66.667 557.131 66.667 399.998C66.667 242.863 66.667 164.295 115.483 115.48C164.298 66.6641 242.865 66.6641 400 66.6641Z" stroke="#0694A2" stroke-width="50"/>
<path d="M716.666 566.664H83.333" stroke="#0694A2" stroke-width="50" stroke-linecap="round"/>
<path d="M716.666 233.336H83.333" stroke="#0694A2" stroke-width="50" stroke-linecap="round"/>
<path d="M400 66.6641V233.331M400 733.331V566.664" stroke="#0694A2" stroke-width="50" stroke-linecap="round"/>
<path d="M566.667 83.3359V233.335M566.667 716.669V566.669" stroke="#0694A2" stroke-width="50" stroke-linecap="round"/>
<path d="M233.333 83.3359V233.335M233.333 716.669V566.669" stroke="#0694A2" stroke-width="50" stroke-linecap="round"/>
<path d="M466.666 399.997C466.666 382.404 449.013 370.537 413.706 346.807C377.916 322.754 360.02 310.727 346.676 319.558C333.333 328.388 333.333 352.257 333.333 399.997C333.333 447.737 333.333 471.607 346.676 480.437C360.02 489.267 377.916 477.24 413.706 453.187C449.013 429.457 466.666 417.59 466.666 399.997Z" stroke="#0694A2" stroke-width="50" stroke-linecap="round"/>
</svg>
