<svg width="800" height="800" viewBox="0 0 800 800" fill="none" xmlns="http://www.w3.org/2000/svg">
<path d="M359.075 212.25L338.75 181C198.125 275.525 120 390.375 120 484.9C120 576.3 187.2 619.275 244.225 619.275C316.1 619.275 366.875 558.325 366.875 494.275C366.875 440.375 332.5 394.275 286.4 377.075C273.125 372.375 260.625 368.475 260.625 345.825C260.625 316.925 281.725 273.975 359.075 212.25ZM669.225 212.25L648.9 181C509.825 275.525 430.15 390.375 430.15 484.9C430.15 576.3 498.9 619.275 555.925 619.275C628.575 619.275 680.15 558.325 680.15 494.275C680.15 440.375 645 394.275 597.325 377.075C584.05 372.375 572.325 368.475 572.325 345.825C572.325 316.925 594.2 273.95 669.2 212.225L669.225 212.25Z" fill="#9164EE"/>
</svg>
