<svg width="800" height="800" viewBox="0 0 800 800" fill="none" xmlns="http://www.w3.org/2000/svg">
<path d="M243.334 420L336.667 700C337.747 702.42 339.297 704.601 341.226 706.417C343.156 708.232 345.428 709.647 347.909 710.577C350.39 711.507 353.031 711.936 355.679 711.836C358.327 711.737 360.929 711.113 363.334 710L396.667 693.333C410.703 686.031 422.471 675.026 430.698 661.511C438.924 647.997 443.294 632.488 443.334 616.666V486.666H656.667C666.738 486.483 676.637 484.02 685.62 479.462C694.603 474.904 702.436 468.37 708.531 460.35C714.626 452.33 718.824 443.033 720.811 433.158C722.797 423.283 722.52 413.086 720 403.333L653.334 136.667C649.693 122.556 641.529 110.027 630.091 100.997C618.653 91.9665 604.571 86.933 590 86.6665H143.334C125.653 86.6665 108.696 93.6903 96.1932 106.193C83.6908 118.695 76.667 135.652 76.667 153.333V353.333C76.667 371.014 83.6908 387.971 96.1932 400.474C108.696 412.976 125.653 420 143.334 420H243.334ZM243.334 420V86.6665" stroke="#9164EE" stroke-width="66.6667" stroke-linecap="round" stroke-linejoin="round"/>
</svg>
