<svg width="800" height="800" viewBox="0 0 800 800" fill="none" xmlns="http://www.w3.org/2000/svg">
<path d="M400 66.6665C557.134 66.6665 635.704 66.6665 684.517 115.482C733.334 164.297 733.334 242.865 733.334 400C733.334 557.133 733.334 635.703 684.517 684.516C635.704 733.333 557.134 733.333 400 733.333C242.865 733.333 164.298 733.333 115.483 684.516C66.667 635.703 66.667 557.133 66.667 400C66.667 242.865 66.667 164.297 115.483 115.482C164.298 66.6665 242.865 66.6665 400 66.6665Z" stroke="#9164EE" stroke-width="50"/>
<path d="M716.666 566.667H83.333" stroke="#9164EE" stroke-width="50" stroke-linecap="round"/>
<path d="M716.666 233.333H83.333" stroke="#9164EE" stroke-width="50" stroke-linecap="round"/>
<path d="M400 66.6665V233.333M400 733.333V566.666" stroke="#9164EE" stroke-width="50" stroke-linecap="round"/>
<path d="M566.667 83.3335V233.333M566.667 716.667V566.667" stroke="#9164EE" stroke-width="50" stroke-linecap="round"/>
<path d="M233.333 83.3335V233.333M233.333 716.667V566.667" stroke="#9164EE" stroke-width="50" stroke-linecap="round"/>
<path d="M466.666 400C466.666 382.407 449.013 370.54 413.706 346.81C377.916 322.757 360.02 310.73 346.676 319.561C333.333 328.391 333.333 352.26 333.333 400C333.333 447.74 333.333 471.61 346.676 480.44C360.02 489.27 377.916 477.243 413.706 453.19C449.013 429.46 466.666 417.593 466.666 400Z" stroke="#9164EE" stroke-width="50" stroke-linecap="round"/>
</svg>
