<svg width="800" height="800" viewBox="0 0 800 800" fill="none" xmlns="http://www.w3.org/2000/svg">
<path d="M562.916 67.4813C521.338 25.8297 463.525 -0.0249819 400 1.81138e-05C336.475 -0.0249819 278.663 25.8297 237.085 67.4813C195.458 109.083 169.58 166.87 169.604 230.397C169.579 284.523 188.379 334.547 219.725 373.83C228.954 385.452 236.938 395.094 243.31 403.37C248.096 409.572 251.977 414.992 255.054 419.923C259.668 427.345 262.475 433.473 264.55 440.822C266.577 448.195 267.822 457.18 267.846 469.875C267.846 478.42 268.797 486.745 271.191 494.923C272.974 501.027 275.635 507.081 279.394 512.648C284.936 521.047 293.164 528.103 302.197 532.278C311.207 536.502 320.605 538.041 329.371 538.041H470.655C478.443 538.041 486.719 536.82 494.825 533.573C500.88 531.156 506.788 527.544 511.818 522.905C519.435 515.97 524.782 507.059 527.882 497.978C531.007 488.847 532.179 479.497 532.179 469.878C532.179 458.598 533.18 450.225 534.816 443.364C537.355 433.109 541.066 425.492 548.318 414.823C555.519 404.252 566.408 391.264 580.324 373.833C611.647 334.55 630.422 284.502 630.397 230.4C630.421 166.87 604.541 109.083 562.916 67.4813ZM528.955 332.911C520.093 343.995 512.11 353.688 504.711 363.233C499.194 370.411 493.994 377.539 489.233 385.156C482.129 396.533 476.074 409.18 472.168 423.341C468.261 437.502 466.504 452.808 466.504 469.873C466.504 470.802 466.479 471.631 466.43 472.364H333.618C333.569 471.631 333.519 470.827 333.519 469.873C333.519 454.687 332.152 440.919 329.052 428.077C324.511 408.766 315.941 392.261 305.883 377.686C295.752 362.989 284.3 349.561 271.093 332.911C248.632 304.713 235.302 269.264 235.277 230.397C235.302 184.816 253.661 143.848 283.544 113.917C313.452 84.0578 354.396 65.6735 400 65.6735C445.605 65.6735 486.572 84.0578 516.48 113.916C546.338 143.847 564.697 184.814 564.722 230.395C564.697 269.288 551.368 304.736 528.955 332.911Z" fill="#2388FF"/>
<path d="M400 800C427.197 800 449.267 777.955 449.267 750.733H350.731C350.733 777.955 372.803 800 400 800Z" fill="#2388FF"/>
<path d="M484.449 577.148H315.577C300.88 577.148 288.989 589.038 288.989 603.711C288.989 618.408 300.878 630.298 315.577 630.298H484.449C499.122 630.298 511.036 618.409 511.036 603.711C511.036 589.038 499.122 577.148 484.449 577.148Z" fill="#2388FF"/>
<path d="M484.449 662.964H315.577C300.88 662.964 288.989 674.853 288.989 689.551C288.989 704.225 300.878 716.114 315.577 716.114H484.449C499.122 716.114 511.036 704.225 511.036 689.551C511.036 674.853 499.122 662.964 484.449 662.964Z" fill="#2388FF"/>
</svg>
