<svg width="800" height="800" viewBox="0 0 800 800" fill="none" xmlns="http://www.w3.org/2000/svg">
<path d="M243.333 380L336.667 100C337.746 97.5801 339.296 95.399 341.226 93.5832C343.156 91.7674 345.427 90.3532 347.908 89.4228C350.389 88.4924 353.031 88.0643 355.679 88.1634C358.327 88.2625 360.929 88.8868 363.333 90L396.666 106.667C410.702 113.969 422.471 124.974 430.697 138.488C438.924 152.003 443.294 167.512 443.333 183.333V313.333H656.667C666.738 313.517 676.637 315.98 685.62 320.538C694.602 325.096 702.435 331.63 708.53 339.65C714.625 347.67 718.824 356.966 720.81 366.842C722.797 376.717 722.52 386.914 720 396.667L653.333 663.333C649.692 677.444 641.528 689.973 630.09 699.003C618.652 708.033 604.57 713.067 590 713.333H143.333C125.652 713.333 108.695 706.31 96.1927 693.807C83.6903 681.305 76.6665 664.348 76.6665 646.667V446.667C76.6665 428.986 83.6903 412.029 96.1927 399.526C108.695 387.024 125.652 380 143.333 380H243.333ZM243.333 380V713.333" stroke="#2388FF" stroke-width="66.6667" stroke-linecap="round" stroke-linejoin="round"/>
</svg>
