<svg width="616" height="648" viewBox="0 0 616 648" fill="none" xmlns="http://www.w3.org/2000/svg">
<path d="M313.204 103.47H125.142V225.115H284.458C319.472 177.331 368.89 147.551 423.665 147.551C529.846 147.551 615.922 259.451 615.922 397.485C615.922 535.52 529.846 647.42 423.665 647.42C317.484 647.42 231.408 535.52 231.408 397.485C231.408 392.028 231.559 386.612 231.824 381.241C231.826 381.222 231.882 380.699 233.438 366.657L238.446 366.677C244.218 366.698 254.214 365.252 263.536 363.869C268.203 363.177 272.708 362.498 276.44 362.026C280.182 361.554 283.126 361.293 284.686 361.42C287.826 361.675 289.2 362.284 290.669 363.077C292.07 363.834 293.572 364.767 296.696 365.711L297.343 365.898C300.221 366.711 302.344 366.435 303.83 365.73C305.311 365.028 306.145 363.907 306.456 363.066L306.47 363.025L306.585 331.874L306.579 331.85C306.369 330.726 305.63 329.222 304.091 328.355C302.591 327.511 300.38 327.298 297.264 328.548L296.959 328.672C289.919 331.653 285.878 332.013 282.852 332.214L281.61 332.299C281.313 332.32 280.737 332.297 279.927 332.23C279.121 332.164 278.095 332.056 276.904 331.918C274.52 331.641 271.475 331.238 268.207 330.782C263.305 330.098 257.898 329.296 253.456 328.617L253.249 328.585H125.142V489.382H0V0H313.204V103.47ZM396.327 263.635C392.004 263.62 388.488 267.141 388.472 271.5L387.554 523.137C387.538 527.496 391.029 531.043 395.352 531.06L444.77 531.242C449.092 531.258 452.612 527.735 452.628 523.376L453.546 271.74C453.562 267.381 450.068 263.833 445.745 263.816L396.327 263.635ZM411.748 238.314C406.198 238.047 392.165 237.649 380.411 238.198C368.527 238.754 362.557 248.2 361.055 252.854C354.478 274.262 340.881 320.081 337.458 331.395L334.651 337.043C330.316 343.302 324.818 340.711 312.248 340.664L312.198 353.987C329.038 352.575 331.846 358.223 347.909 344.191C358.485 307.39 364.484 286.245 373.945 257.968C375.287 253.96 378.727 252.501 380.392 252.261L411.671 252.377C413.539 252.575 414.779 253.558 415.576 254.716C416.378 255.882 416.729 257.223 416.805 258.092L416.823 258.314L431.482 258.37V258.125C431.508 251.028 428.215 246.236 424.098 243.144C420.118 240.155 415.364 238.749 412.076 238.351L411.764 238.314H411.748Z" fill="white"/>
</svg>
