<svg width="800" height="800" viewBox="0 0 800 800" fill="none" xmlns="http://www.w3.org/2000/svg">
<g clip-path="url(#clip0_95_6662)">
<path d="M0 400C0 413.867 1.06667 430.667 3.2 450.4C3.73333 453.067 4.53333 457.067 5.6 462.4C7.73333 476.267 10.4 489.6 13.6 502.4C14.1333 503.467 14.4 504.8 14.4 506.4C14.4 508 14.9333 509.067 16 509.6C25.0667 542.667 38.4 573.867 56 603.2C90.6667 662.4 137.867 709.6 197.6 744.8C226.4 761.867 257.333 775.2 290.4 784.8C291.467 784.8 292.8 785.067 294.4 785.6C296 786.133 297.067 786.4 297.6 786.4C309.333 789.6 322.933 792.533 338.4 795.2C339.467 795.733 341.333 796 344 796C346.667 796 348.8 796.267 350.4 796.8C366.4 798.933 382.933 800 400 800C417.067 800 433.867 798.933 450.4 796.8C451.467 796.8 453.333 796.533 456 796C458.667 795.467 460.533 795.2 461.6 795.2C477.067 792.533 490.667 789.6 502.4 786.4C502.933 786.4 504 786.133 505.6 785.6C507.2 785.067 508.533 784.8 509.6 784.8C542.133 775.733 573.067 762.4 602.4 744.8C662.133 709.6 709.333 662.4 744 603.2C761.6 573.867 775.2 542.667 784.8 509.6C784.8 509.067 785.067 508 785.6 506.4C786.133 504.8 786.4 503.467 786.4 502.4C789.6 490.667 792.533 477.333 795.2 462.4C795.2 460.8 795.467 458.667 796 456C796.533 453.333 796.8 451.467 796.8 450.4C798.933 433.867 800 417.067 800 400C800 382.933 798.933 366.4 796.8 350.4C796.8 348.8 796.533 346.933 796 344.8C795.467 342.667 795.2 340.533 795.2 338.4C792.533 322.933 789.6 309.333 786.4 297.6C785.867 297.067 785.6 296 785.6 294.4C785.6 292.8 785.333 291.733 784.8 291.2C775.2 258.667 761.6 227.467 744 197.6C709.333 138.4 662.133 91.2 602.4 56C573.067 38.4 542.133 25.0667 509.6 16C508.533 15.4667 507.2 15.2 505.6 15.2C504 15.2 502.933 14.6667 502.4 13.6C490.667 10.9333 477.067 8.26667 461.6 5.6C460.533 5.06667 458.667 4.53333 456 4C453.333 3.46667 451.467 3.46667 450.4 4C433.867 1.33333 417.067 0 400 0C382.933 0 366.4 1.33333 350.4 4C348.8 4 346.667 4 344 4C341.333 4 339.467 4.53333 338.4 5.6C322.933 8.26667 309.333 10.9333 297.6 13.6C297.067 14.1333 296 14.6667 294.4 15.2C292.8 15.7333 291.467 16 290.4 16C257.333 25.0667 226.4 38.4 197.6 56C137.867 91.2 90.6667 138.4 56 197.6C38.4 227.467 25.0667 258.667 16 291.2C15.4667 291.733 14.9333 292.8 14.4 294.4C13.8667 296 13.6 297.067 13.6 297.6C10.4 310.933 7.73333 324.533 5.6 338.4C4.53333 343.733 3.73333 347.733 3.2 350.4C1.06667 370.133 0 386.667 0 400ZM50.4 400C50.4 342.933 64.8 288 93.6 235.2L168 309.6C156.267 340 150.4 370.133 150.4 400C150.4 429.867 156.267 460.267 168 491.2L93.6 565.6C64.8 512.8 50.4 457.6 50.4 400ZM200 400C200 389.867 201.067 379.733 203.2 369.6C203.733 364.8 205.067 357.867 207.2 348.8C216.267 314.133 233.6 284.267 259.2 259.2C284.8 234.133 314.667 217.067 348.8 208C353.6 206.4 360.267 204.8 368.8 203.2C380 201.067 390.4 200 400 200C410.133 200 420.533 201.067 431.2 203.2C439.733 204.8 446.4 206.4 451.2 208C485.867 217.067 515.733 234.133 540.8 259.2C565.867 284.267 583.2 314.133 592.8 348.8C593.867 353.6 595.2 360.267 596.8 368.8C598.933 380 600 390.4 600 400C600 409.6 598.933 420 596.8 431.2C595.2 440.267 593.867 446.933 592.8 451.2C583.733 485.867 566.4 516 540.8 541.6C515.2 567.2 485.333 584.267 451.2 592.8C442.133 594.933 435.467 596.267 431.2 596.8C420.533 598.933 410.133 600 400 600C390.4 600 380 598.933 368.8 596.8C364.533 596.267 357.867 594.933 348.8 592.8C314.133 583.733 284.267 566.667 259.2 541.6C234.133 516.533 216.8 486.4 207.2 451.2C205.067 442.667 203.733 436 203.2 431.2C201.067 420 200 409.6 200 400ZM235.2 707.2L308.8 632.8C339.2 644.533 369.6 650.4 400 650.4C430.933 650.4 461.333 644.267 491.2 632L565.6 707.2C512.267 736 457.067 750.4 400 750.4C342.933 750.4 288 736 235.2 707.2ZM235.2 93.6C288 64.8 342.933 50.4 400 50.4C457.067 50.4 512.267 64.8 565.6 93.6L491.2 168C460.8 156.267 430.4 150.4 400 150.4C369.6 150.4 339.2 156.267 308.8 168L235.2 93.6ZM632.8 491.2C644.533 460.8 650.4 430.4 650.4 400C650.4 369.6 644.533 339.467 632.8 309.6L706.4 235.2C735.733 288 750.4 342.933 750.4 400C750.4 457.067 735.733 512.267 706.4 565.6L632.8 491.2Z" fill="#2388FF"/>
</g>
<defs>
<clipPath id="clip0_95_6662">
<rect width="800" height="800" fill="white"/>
</clipPath>
</defs>
</svg>
