<svg width="269" height="269" viewBox="0 0 269 269" fill="none" xmlns="http://www.w3.org/2000/svg">
<path fill-rule="evenodd" clip-rule="evenodd" d="M233.668 21.0556C220.536 7.92421 199.246 7.92416 186.114 21.0556L27.4314 179.739C22.7374 184.433 19.5377 190.411 18.2359 196.92L11.6558 229.821C8.51871 245.506 22.348 259.336 38.0334 256.199L70.9336 249.618C77.4431 248.317 83.4216 245.117 88.1157 240.423L246.798 81.7398C259.93 68.6085 259.93 47.3184 246.798 34.1869L233.668 21.0556ZM201.965 36.9065C206.343 32.5294 213.439 32.5294 217.817 36.9065L230.947 50.038C235.325 54.415 235.325 61.5117 230.947 65.8889L201.003 95.833L172.022 66.8506L201.965 36.9065ZM156.17 82.7016L43.2823 195.59C41.7177 197.154 40.6512 199.147 40.2172 201.317L33.6371 234.217L66.5374 227.637C68.7072 227.203 70.7 226.137 72.2647 224.572L185.152 111.684L156.17 82.7016Z" fill="#FF0000"/>
</svg>
