<svg width="249" height="249" viewBox="0 0 249 249" fill="none" xmlns="http://www.w3.org/2000/svg">
<path d="M124.5 228.25C181.8 228.25 228.25 181.8 228.25 124.5C228.25 67.2005 181.8 20.75 124.5 20.75C67.2005 20.75 20.75 67.2005 20.75 124.5C20.75 181.8 67.2005 228.25 124.5 228.25Z" stroke="#FF0000" stroke-width="20" stroke-linecap="round" stroke-linejoin="round"/>
<path d="M124.5 186.75C158.88 186.75 186.75 158.88 186.75 124.5C186.75 90.1203 158.88 62.25 124.5 62.25C90.1203 62.25 62.25 90.1203 62.25 124.5C62.25 158.88 90.1203 186.75 124.5 186.75Z" stroke="#FF0000" stroke-width="20" stroke-linecap="round" stroke-linejoin="round"/>
<path d="M124.5 145.25C135.96 145.25 145.25 135.96 145.25 124.5C145.25 113.04 135.96 103.75 124.5 103.75C113.04 103.75 103.75 113.04 103.75 124.5C103.75 135.96 113.04 145.25 124.5 145.25Z" stroke="#FF0000" stroke-width="20" stroke-linecap="round" stroke-linejoin="round"/>
</svg>
