<svg width="707" height="707" viewBox="0 0 707 707" fill="none" xmlns="http://www.w3.org/2000/svg">
<path d="M215.046 335.825L297.529 88.3753C298.483 86.2368 299.853 84.3091 301.558 82.7044C303.264 81.0998 305.271 79.85 307.464 79.0277C309.657 78.2055 311.991 77.8271 314.331 77.9147C316.671 78.0023 318.97 78.554 321.096 79.5378L350.554 94.267C362.958 100.72 373.359 110.446 380.629 122.389C387.899 134.333 391.761 148.039 391.796 162.021V276.909H580.329C589.229 277.071 597.978 279.248 605.916 283.276C613.855 287.304 620.777 293.079 626.164 300.166C631.55 307.254 635.261 315.469 637.016 324.197C638.772 332.924 638.527 341.935 636.3 350.554L577.383 586.221C574.166 598.692 566.95 609.764 556.842 617.745C546.734 625.725 534.289 630.173 521.412 630.409H126.671C111.045 630.409 96.0592 624.201 85.0102 613.152C73.9612 602.103 67.7539 587.118 67.7539 571.492V394.742C67.7539 379.116 73.9612 364.131 85.0102 353.082C96.0592 342.033 111.045 335.825 126.671 335.825H215.046ZM215.046 335.825V630.409" stroke="#FF0000" stroke-width="66.6667" stroke-linecap="round" stroke-linejoin="round"/>
</svg>
