<svg width="707" height="708" viewBox="0 0 707 708" fill="none" xmlns="http://www.w3.org/2000/svg">
<path d="M215.046 371.699L297.529 619.499C298.483 621.641 299.853 623.571 301.558 625.178C303.264 626.785 305.271 628.037 307.464 628.86C309.657 629.683 311.991 630.062 314.331 629.975C316.671 629.887 318.97 629.334 321.096 628.349L350.554 613.599C362.958 607.137 373.359 597.397 380.629 585.437C387.899 573.476 391.761 559.751 391.796 545.749V430.699H580.329C589.229 430.537 597.978 428.357 605.916 424.323C613.855 420.289 620.777 414.506 626.164 407.409C631.55 400.311 635.261 392.084 637.016 383.344C638.772 374.605 638.527 365.58 636.3 356.949L577.383 120.949C574.166 108.461 566.95 97.3728 556.842 89.3813C546.734 81.3897 534.289 76.9351 521.412 76.6992H126.671C111.045 76.6992 96.0592 82.9153 85.0102 93.9799C73.9612 105.045 67.7539 120.051 67.7539 135.699V312.699C67.7539 328.347 73.9612 343.354 85.0102 354.419C96.0592 365.483 111.045 371.699 126.671 371.699H215.046ZM215.046 371.699V76.6992" stroke="#FF0000" stroke-width="66.6667" stroke-linecap="round" stroke-linejoin="round"/>
</svg>
